<svg width="1007" height="918" viewBox="0 0 1007 918" fill="none" xmlns="http://www.w3.org/2000/svg">
<path fill-rule="evenodd" clip-rule="evenodd" d="M123.087 606.006C157.948 624.685 197.902 627.41 307.366 618.576C338.604 616.058 365.708 613.299 367.6 612.447C373.026 610.005 444.948 604.9 452.327 606.433C461.161 608.267 460.392 612.945 450.522 617.387C439.483 622.355 363.736 639.541 335.001 643.598C305.739 647.73 260.478 650.106 225.404 649.356C182.614 648.441 146.261 652.743 149.053 658.389C152.839 666.046 194.586 679.706 225.224 683.316C258.366 687.217 331.479 676.261 402.924 656.683C482.297 634.931 496.734 632.744 491.639 643.244C488.52 649.68 482.464 652.342 445.588 663.501C428.975 668.526 398.308 678.247 377.436 685.098C356.565 691.953 323.359 701.312 303.647 705.903C267.655 714.28 238.131 725.306 226.058 734.881L219.575 740.02L227.04 743.72C236.88 748.598 267.906 752.015 285.287 750.136C308.626 747.61 346.322 733.915 431.615 696.973C476.569 677.499 515.91 661.141 519.037 660.618C522.747 659.999 525.146 661.276 525.936 664.293C527.62 670.727 519.566 675.946 460.934 706.398C421.8 726.723 402.67 735.281 374.64 744.992C339.144 757.287 276.791 786.223 275.311 791.088C274.187 794.772 287.207 798.224 310.548 800.424L331.224 802.375L384.9 777.938C415.746 763.897 455.958 743.476 479.442 729.928C550.217 689.1 561.502 683.511 563.628 688.235C565.697 692.831 565.151 693.348 534.95 715.427C522.933 724.213 496.878 743.279 477.051 757.802C457.22 772.322 432.647 791.503 422.441 800.425C404.174 816.391 365.032 862.835 366.706 866.554C368.394 870.304 391.942 867.111 404.597 861.416C413.817 857.267 426.302 847.283 448.413 826.379C465.419 810.298 494.888 784.193 513.899 768.366C547.822 740.123 596.108 706.848 601.616 707.918C607.123 708.993 608.345 717.51 603.826 723.299C597.655 731.195 571.032 754.07 537.672 780.133C505.145 805.547 466.748 837.639 451.351 852.276C441.053 862.07 421.412 890.697 420.986 896.536C420.661 900.999 438.395 896.015 463.28 884.647C486.22 874.167 488.708 872.304 515.61 845.489C565.932 795.333 591.685 771.289 617.1 750.736C638.26 733.625 642.721 730.892 646.602 732.671C650.486 734.449 650.721 735.406 648.16 739.006C644.987 743.465 616.043 767.58 602.338 777.183C549.271 814.364 474.519 889.613 476.512 903.844C477.22 908.884 489.335 906.317 509.674 896.82C528.737 887.921 544.71 873.226 595.548 817.818C617.367 794.038 674.629 745.648 678.739 747.518C683.708 749.779 679.129 757.324 663.903 771.948C636.66 798.117 579.878 857.68 568.685 871.826C557.24 886.288 531.569 933.453 533.14 937.131C534.54 940.413 554.488 929.99 566.316 919.798C572.55 914.424 583.751 902.465 591.207 893.224C628.826 846.575 697.826 769.066 706.05 764.212C718.971 756.586 712.183 770.314 686.513 803.717C654.637 845.197 636.471 874.197 623.077 904.99C614.415 924.898 609.543 948.397 613.681 950.29C619.732 953.06 655.117 908.069 682.043 863.374C697.061 838.441 733.633 789.13 741.542 783.144C753.143 774.368 749.746 786.367 734.985 806.3C707.786 843.032 682.065 887.454 674.834 910.188C667.701 932.623 668.284 944.014 676.203 936.916C684.403 929.568 705.003 899.624 716.414 878.47C722.761 866.7 729.936 854.893 732.357 852.231C734.778 849.569 742.21 838.328 748.874 827.249C765.01 800.425 771.959 794.415 790.969 790.846C805.523 788.115 807.196 788.596 858.819 810.323C903.046 828.937 966.117 850.109 999.735 857.633C1007.51 859.372 1007.55 859.334 1004.76 853.137C1002.55 848.209 997.38 845.735 980.363 841.446C936.896 830.492 898.717 817.644 848.283 796.999C797.951 776.394 796.463 775.567 787.34 763.044L777.986 750.208L777.646 725.103C777.458 711.294 778.607 690.18 780.199 678.18C786.512 630.664 785.5 565.15 778.21 549.321C775.188 542.758 774.423 544.219 766.394 571.907C761.229 589.712 757.594 609.99 757.271 622.798C756.037 671.538 751.603 744.49 749.825 745.291C743.766 748.017 738.032 727.456 740.709 712.605C741.464 708.429 741.969 689.503 741.835 670.553C741.583 635.092 744.164 598.455 749.525 561.394C753.575 533.393 751.661 496.956 746.266 499.384C742.914 500.892 731.292 529.056 726.709 546.775C719.569 574.386 716.77 609.512 717.42 663.285C718.028 713.579 716.512 726 710.039 723.736C706.885 722.632 705.668 719.19 704.033 706.741C702.906 698.154 702.469 687.228 703.062 682.457C703.658 677.689 703.539 669.312 702.802 663.842C700.91 649.855 705.066 580.104 710.596 532.985C713.449 508.683 712.19 472.534 708.035 459.381C706.174 453.5 703.874 449.039 702.921 449.467C698.831 451.308 686.46 483.664 684.129 498.616C680.952 519.013 679.888 571.417 681.753 615.781C684.29 676.115 680.349 709.914 671.266 705.755C666.542 703.592 663.034 680.465 664.755 662.839C665.349 656.762 665.213 647.315 664.454 641.846C663.695 636.377 663.73 627.532 664.533 622.191C667.59 601.842 663.249 472.45 658.592 445.122C655.794 428.703 648.568 410.542 645.401 411.967C638.315 415.156 631.82 463.726 633.462 501.233C634.013 513.777 634.764 531.378 635.132 540.343C635.5 549.308 636.676 572.549 637.745 591.989C638.813 611.43 640.139 641.868 640.694 659.632C641.562 687.581 641.052 691.701 636.901 690.249C627.202 686.86 623.715 662.534 622.298 588.376C621.747 559.572 620.336 525.571 619.161 512.819C617.986 500.066 617.583 481.51 618.264 471.584C620.593 437.59 613.12 372.74 606.531 369.759C603.213 368.258 591.461 411.922 589.672 432.411C588.308 448.011 591.014 524.351 593.727 546.903C595.905 564.981 599.074 645.426 597.963 654.413C596.696 664.678 592.35 667.655 587.368 661.665C583.111 656.546 578.898 630.66 580.371 618.678C580.958 613.911 580.703 600.458 579.803 588.78C578.906 577.101 578.544 563.968 579.002 559.596C579.46 555.222 579.932 547.527 580.053 542.492C580.176 537.457 581.333 511.128 582.625 483.985C587.283 386.242 587.114 363.115 581.633 348.121C578.787 340.337 575.665 334.689 574.495 335.215C570.702 336.922 562.087 379.057 559.776 407.193C558.523 422.445 557.743 457.226 558.044 484.483C558.855 558.533 554.625 636.942 549.699 639.158C545.137 641.211 539.889 630.757 541.19 622.209C541.909 617.479 541.97 610.476 541.323 606.65C540.676 602.821 540.598 594.734 541.148 588.676C542.345 575.511 543.072 562.784 544.157 536.009C544.871 518.392 548.092 480.571 556.318 393.199C559.966 354.461 559.15 331.267 553.79 321.439L549.177 312.984L543.78 326.819C540.811 334.428 538.344 339.368 538.297 337.799C537.403 308.748 536.505 299.016 533.9 290.089C532.19 284.224 530.101 279.734 529.258 280.113C528.415 280.493 525.078 285.954 521.844 292.252C511.714 311.969 503.351 346.393 500.372 380.646C496.358 426.793 493.192 453.974 485.35 509.652C475.92 576.606 475.21 580.125 471.463 578.409C467.623 576.651 466.972 550.404 470.342 533.098C472.622 521.378 475.895 501.885 482.69 459.536C484.698 447.012 487.533 424.088 488.985 408.593C490.439 393.1 493.359 367.944 495.475 352.69C499.977 320.239 500.522 283.187 496.81 261.719C493.49 242.492 490.994 236.965 486.547 238.967C484.073 240.08 482.884 239.039 482.562 235.478C481.599 224.804 477.178 212.999 474.582 214.168C467.175 217.501 455.055 269.891 442.555 352.622C431.727 424.277 413.405 507.318 407.873 509.808C402.723 512.125 400.47 502.759 402.567 487.746C403.657 479.951 408.643 456.059 413.648 434.649C446.334 294.861 453.596 255.492 453.233 220.084C452.973 194.807 449.065 166.125 445.67 164.571C441.976 162.88 435.669 175.395 429.587 196.488C421.985 222.849 421.223 226.974 413.388 283.964C405.091 344.338 398.14 379.051 386.02 420.648C376.242 454.215 371.676 462.974 365.449 460.123C360.817 458.002 361.291 444.221 366.754 422.28C369.254 412.238 372.029 399.619 372.925 394.235C375.323 379.809 390.795 316.245 402.973 270.782C420.37 205.833 428.148 146.951 421.348 131.648C419.471 127.424 419.078 127.583 414.116 134.582C400.22 154.18 391.419 181.654 381.299 237.039C378.71 251.204 373.166 276.56 368.978 293.386C364.792 310.211 359.085 334.512 356.297 347.387C348.939 381.363 338.155 417.429 334.915 418.887C330.902 420.693 327.375 411.372 328.326 401.472C329.167 392.718 336.98 359.307 357.814 275.383C377.069 197.819 378.75 161.123 365.847 100.108C364.083 91.7715 362.5 82.7105 362.33 79.974C362.045 75.4476 361.164 75.9108 352.571 85.0962C347.373 90.65 342.308 97.9489 341.313 101.316C340.32 104.681 338.997 123.755 338.377 143.705C336.544 202.616 333.664 231.171 324.21 284.122C312.729 348.431 305.651 375.51 300.044 376.603C293.095 377.955 292.415 368.753 297.71 345.079C300.393 333.08 303.68 311.227 305.018 296.514C306.355 281.801 308.953 254.825 310.788 236.567C317.993 164.916 312.383 91.9148 295.991 44.0127L290.172 27.0118L285.692 41.0017C283.227 48.6974 280.541 60.4554 279.722 67.1353C277.941 81.6648 276.086 81.9714 275.063 67.904C274.378 58.481 262.179 16.7906 259.786 15.6972C258.089 14.9184 251.731 36.8469 246.286 62.2703C241.163 86.1848 240.514 111.367 243.002 189.471C244.546 237.903 241.941 270.569 236.335 273.093C234.177 274.064 231.787 273.44 231.026 271.709C229.757 268.818 229.244 230.443 228.911 113.44C228.786 69.2646 225.446 46.0986 214.813 15.65L209.346 1.39941e-05L204.216 18.9097C198.051 41.6418 193.015 77.207 193.037 97.8912C193.046 106.188 194.373 129.934 195.984 150.661C197.597 171.39 198.059 189.802 197.011 191.578C192.978 198.419 189.04 191.347 179.331 159.83C164.979 113.235 139.06 59.877 122.208 42.2332C104.412 23.5989 102.446 26.8621 109.738 62.9374C118.259 105.106 133.951 143.16 161.095 187.497C172.192 205.621 181.184 221.607 181.08 223.024C180.204 235.085 163.701 218.047 129.831 170.103C86.7708 109.156 64.8076 83.897 45.4051 73.0153C40.063 70.0196 34.9973 68.7466 34.1502 70.1843C32.1895 73.5115 58.1507 124.541 75.8456 152.141C98.6299 187.682 133.743 224.756 185.033 267.436C210.943 288.993 219.033 298.038 217.351 303.561C214.463 313.047 169.295 278.95 134.022 240.658C126.996 233.029 113.717 219.084 104.515 209.664C78.1219 182.656 47.7017 142.881 41.2633 126.956C38.2152 119.42 33.9417 141.763 35.426 157.472C36.7688 171.701 44.7477 185.031 71.3728 217.54C103.958 257.321 175.549 313.635 223.415 337.138C247.867 349.146 257.925 356.947 252.241 359.504C246.339 362.161 183.222 332.878 161.252 317.29C143.204 304.483 66.4101 235.336 46.9775 214.393C31.6997 197.93 3.89801 175.464 0.62285 176.938C-3.25597 178.684 11.5994 209.934 28.0085 234.547C32.6529 241.512 32.657 241.897 28.0333 238.427C17.4096 230.452 4.87802 223.318 2.99019 224.167C0.393332 225.336 24.1363 270.739 38.0823 291.275C44.0946 300.13 55.8911 313.837 64.293 321.737C75.4297 332.206 80.4171 338.649 82.6982 345.518C90.5441 369.129 130.164 407.954 168.612 429.709C213.241 454.96 265.627 471.753 318.665 477.814C341.042 480.37 346.807 483.181 343.957 490.139C341.991 494.938 322.077 496.846 309.264 493.461C304.89 492.305 300.842 491.57 300.269 491.828C298.485 492.631 268.648 486.79 259.374 483.821C254.523 482.268 249.589 481.434 248.406 481.966C247.222 482.499 238.257 480.038 228.482 476.496C218.705 472.954 205.224 468.885 198.525 467.454C178.072 463.085 124.16 438.968 102.284 424.403C79.1923 409.03 62.8977 391.951 59.0752 379.116C56.6674 371.027 56.5653 370.97 56.9729 377.959C57.7387 391.028 72.1898 425.52 81.198 435.782C115.374 474.712 190.334 504.789 273.312 512.867C290.898 514.581 313.03 516.031 322.494 516.091C351.227 516.272 375.491 519.572 378.188 523.665C382.61 530.377 374.754 533.843 353.286 534.654C306.728 536.41 297.813 536.239 283.957 533.319C275.995 531.639 256.482 529.101 240.597 527.677C224.712 526.254 204.523 523.625 195.733 521.837C147.761 512.08 114.283 504.325 105.005 500.818C95.865 497.361 69.3571 493.121 66.0908 494.591C63.4149 495.795 68.7365 502.558 81.3335 513.967C107.948 538.072 144.927 548.345 242.729 558.81C292.326 564.117 345.675 566.256 374.451 564.088C403.023 561.939 412.112 562.72 414.27 567.514C417.411 574.495 410.267 576.774 368.104 582.244C302.797 590.72 285.594 591.007 189.425 585.234C152.881 583.042 130.709 583.856 115.817 587.935C102.202 591.666 103.819 595.683 123.087 606.006ZM87.8121 300.008C99.4352 310.175 115.005 322.863 122.413 328.204C147.393 346.216 178.573 368.51 193.28 378.873C206.879 388.455 253.644 407.698 265.332 408.524C278.286 409.434 284.458 406.216 282.691 399.468C281.881 396.371 272.74 392.208 254.509 386.639C191.94 367.518 127.455 330.462 72.3841 281.98C67.3944 277.586 64.0689 275.686 64.9964 277.759C65.9239 279.832 76.1923 289.844 87.8121 300.008ZM160.826 395.223C191.36 416.311 210.315 426.314 259.975 447.557C282.437 457.167 315.163 459.62 317.523 451.872C319.563 445.174 312.026 441.406 291.114 438.678C245.973 432.786 208.485 419.603 167.089 395.067C131.523 373.986 130.121 374.019 160.826 395.223ZM265.692 329.304C269.75 327.477 271.98 317.34 276.006 282.405C279.412 252.861 279.989 235.955 278.938 196.57C278.4 176.435 275.844 181.286 275.809 202.506C275.787 216.663 269.759 271.368 263.852 310.998C261.15 329.114 261.367 331.25 265.692 329.304ZM439.108 547.064C440.19 546.576 442.276 541.098 443.742 534.89C446.843 521.766 457.413 447.996 458.148 434.36C458.724 423.669 448.696 458.886 445.193 479.855C443.953 487.289 440.544 503.236 437.622 515.29C432.884 534.836 433.572 549.555 439.108 547.064ZM506.704 608.695C508.288 609.005 510.624 605.322 511.894 600.513C514.389 591.065 520.414 509.453 520.436 484.807C520.444 476.502 520.944 465.411 521.547 460.159C522.153 454.907 522.159 449.507 521.562 448.161C520.965 446.812 519.112 456.661 517.447 470.046C515.778 483.432 513.305 499.709 511.949 506.221C508.04 524.976 503.969 563.539 503.204 588.987C502.644 607.645 502.693 607.917 506.704 608.695Z" fill="#155971" fill-opacity="0.03"/>
</svg>
