<svg width="161" height="228" viewBox="0 0 161 228" fill="none" xmlns="http://www.w3.org/2000/svg">
<path fill-rule="evenodd" clip-rule="evenodd" d="M19.2609 7.0534C12.7093 15.0547 9.71558 25.6849 5.45309 56.0828C4.23614 64.7572 3.31889 72.3285 3.41411 72.9086C3.68715 74.5721 0.717523 94.4898 -0.0841656 96.3726C-1.04386 98.6269 -2.12936 98.0525 -2.62597 95.0269C-3.18145 91.6426 -2.90786 69.7425 -2.20908 61.6272C-1.49749 53.3626 0.573466 40.8936 2.80464 31.4335C5.52657 19.8922 6.61157 9.69007 5.08376 10.0065C3.0122 10.4357 -2.72896 20.6978 -5.39199 28.7306C-8.27184 37.4201 -9.89692 58.1185 -9.34093 79.0381C-8.72302 102.279 -9.03826 106.368 -11.278 104.165C-12.651 102.815 -12.9404 100.964 -13.4822 90.0839C-13.7257 85.1827 -14.2826 76.1001 -14.7187 69.9001C-15.1553 63.7003 -15.4767 53.957 -15.4342 48.2487C-15.3552 37.826 -16.2943 28.952 -17.9027 24.9271L-18.7658 22.7661L-20.0964 24.5028C-21.8502 26.7921 -24.4893 34.9452 -25.051 39.8093C-25.8046 46.3407 -24.6979 57.6412 -20.7549 83.6758C-18.6759 97.398 -17.0217 109.353 -17.0781 110.243C-17.1453 111.298 -17.5943 111.849 -18.3694 111.828C-20.0229 111.782 -20.8134 109.188 -24.7462 90.8961C-27.3711 78.6872 -28.3213 72.8267 -29.03 64.4607C-29.9268 53.8665 -33.2758 34.6832 -34.365 33.9014C-35.1897 33.3084 -36.7849 36.5722 -38.6808 42.7348L-40.3606 48.1936L-37.5919 64.6705C-36.0012 74.139 -33.4161 86.6482 -31.5144 94.0803C-25.7838 116.479 -25.0926 119.978 -26.3585 120.186C-27.5901 120.388 -27.6832 120.2 -31.2541 110.278C-32.675 106.33 -35.7601 97.7688 -38.111 91.2529C-40.4613 84.7362 -43.6607 76.5683 -45.2203 73.1015C-48.0112 66.8962 -56.9479 52.6438 -57.9447 52.8074C-58.9497 52.9724 -59.5542 59.6126 -58.9174 63.4922C-58.4535 66.3185 -56.7704 70.4873 -53.0106 78.1216C-50.1182 83.9937 -45.5315 94.0313 -42.8177 100.428C-37.9748 111.841 -32.7549 127.546 -33.3356 128.957C-33.9171 130.368 -36.0469 130.034 -37.1818 128.355C-38.7295 126.063 -42.7017 117.05 -47.0509 105.96C-51.2918 95.1461 -56.8033 82.2175 -59.4411 76.8952C-61.206 73.3349 -66.9766 65.7673 -68.3629 65.1952C-69.4224 64.7582 -69.2544 69.9607 -67.9614 77.6026C-66.7692 84.6473 -66.4646 85.4681 -61.5562 94.8648C-52.3758 112.441 -48.0702 121.309 -44.5883 129.813C-41.6897 136.893 -41.2902 138.317 -41.9469 139.232C-42.6035 140.147 -42.8485 140.136 -43.5689 139.159C-44.461 137.95 -48.5974 128.21 -50.1171 123.74C-56.0014 106.432 -69.8185 80.2646 -73.3742 79.6935C-74.6334 79.4917 -74.7212 82.9802 -73.6146 89.2422C-72.5781 95.1113 -69.9602 100.594 -59.5407 118.722C-55.069 126.502 -46.7211 145.824 -47.413 146.793C-48.2499 147.965 -49.8057 146.132 -52.4502 140.857C-57.1824 131.419 -68.2585 111.354 -71.0232 107.21C-73.8495 102.974 -83.7475 92.3213 -84.7283 92.4602C-85.6033 92.5838 -84.2501 98.8122 -82.4783 102.818C-81.5439 104.93 -79.3083 108.905 -77.5107 111.651C-68.4355 125.506 -53.7363 150.289 -53.0438 152.9C-51.956 157.003 -54.877 154.088 -61.4492 144.511C-69.611 132.618 -75.5577 125.422 -82.217 119.38C-86.5219 115.474 -91.9163 112.315 -92.6156 113.29C-93.6387 114.716 -84.8335 127.835 -75.6055 138.635C-70.4577 144.66 -60.678 158.439 -59.6935 161.053C-58.2504 164.887 -60.9519 163.027 -64.9065 157.464C-72.194 147.211 -81.4263 136.759 -86.4981 133.02C-91.503 129.331 -94.2901 128.599 -93.0374 131.303C-91.7407 134.103 -85.708 142.034 -81.2626 146.784C-78.7891 149.426 -76.355 152.296 -75.8531 153.161C-75.3512 154.026 -73.0689 156.922 -70.7809 159.596C-65.2413 166.071 -64.195 168.427 -64.4435 173.865C-64.634 178.028 -64.8481 178.445 -73.116 190.757C-80.1993 201.305 -89.0021 216.767 -92.7852 225.303C-93.6597 227.276 -93.6531 227.291 -91.9924 227.018C-90.672 226.802 -89.7721 225.593 -87.7411 221.31C-82.5533 210.37 -77.217 201.012 -69.2803 188.939C-61.3588 176.889 -61.0719 176.55 -57.5123 175.053L-53.8637 173.517L-47.7766 175.387C-44.4284 176.415 -39.3927 178.377 -36.5858 179.747C-25.4713 185.174 -9.57901 190.019 -5.32756 189.278C-3.56478 188.97 -3.87318 188.648 -10.0954 184.306C-14.0967 181.513 -18.7848 178.941 -21.8612 177.853C-33.5685 173.709 -50.9399 166.804 -51.0294 166.259C-51.3342 164.402 -46.03 164.452 -42.5973 166.339C-41.6322 166.871 -37.0877 168.487 -32.5003 169.931C-23.9155 172.634 -15.2121 176.198 -6.56886 180.549C-0.0384146 183.837 8.87932 186.165 8.60782 184.511C8.43916 183.483 2.3119 178.128 -1.70246 175.5C-7.958 171.404 -16.2835 167.899 -29.317 163.873C-41.5071 160.108 -44.4203 158.726 -43.495 157.146C-43.0439 156.376 -42.1407 156.315 -39.0367 156.844C-36.8955 157.209 -34.2294 157.945 -33.1112 158.478C-31.9936 159.013 -29.9622 159.635 -28.5973 159.863C-25.1064 160.442 -8.49226 167.021 2.5719 172.204C8.27838 174.878 17.0883 177.361 20.5097 177.262C22.0399 177.216 23.2525 176.941 23.2046 176.649C22.9988 175.395 15.9022 169.509 12.425 167.708C7.68121 165.251 -4.92133 160.867 -15.752 157.906C-30.4814 153.88 -38.4193 150.169 -36.8835 148.029C-36.0846 146.915 -30.2904 147.771 -26.1312 149.615C-24.6971 150.252 -22.4061 150.953 -21.0401 151.174C-19.674 151.396 -17.5386 152.097 -16.2946 152.732C-11.5554 155.152 19.969 164.086 26.8455 164.958C30.9772 165.481 35.7885 164.94 35.6291 163.969C35.2725 161.796 23.914 156.238 14.7536 153.753C11.6898 152.922 7.39237 151.75 5.20425 151.149C3.01613 150.549 -2.66929 149.051 -7.42994 147.822C-12.1907 146.593 -19.6244 144.574 -23.9499 143.336C-30.7552 141.388 -31.7211 140.927 -31.1276 139.914C-29.7416 137.547 -23.659 138.501 -5.65408 143.912C1.33931 146.014 9.63893 148.288 12.7895 148.966C15.94 149.644 20.4483 150.984 22.8073 151.945C30.8867 155.234 46.9959 158.274 48.1014 156.718C48.6581 155.935 38.7923 149.334 33.9454 147.247C30.255 145.658 11.6474 140.426 6.03868 139.4C1.54241 138.578 -18.0842 133.151 -20.1913 132.147C-22.5981 131.001 -23.0634 129.589 -21.3248 128.705C-19.8386 127.95 -13.3366 128.829 -10.527 130.166C-9.40908 130.697 -6.14296 131.68 -3.26817 132.348C-0.393278 133.017 2.80183 133.945 3.83156 134.412C4.86197 134.877 6.6941 135.607 7.90379 136.033C9.11358 136.46 15.4088 138.832 21.8931 141.304C45.2428 150.206 50.8417 151.968 54.7859 151.652C56.8333 151.488 58.3809 151.082 58.3221 150.724C58.1312 149.561 48.4517 143.93 41.787 141.104C38.1744 139.572 29.8141 136.642 23.2093 134.594C5.2659 129.027 -13.436 121.751 -13.6839 120.241C-13.9134 118.843 -11.0802 118.235 -9.09042 119.256C-7.9892 119.821 -6.30034 120.385 -5.33792 120.508C-4.37471 120.632 -2.41567 121.243 -0.983779 121.865C2.12783 123.219 5.16104 124.411 11.5686 126.798C15.7844 128.369 24.7365 132.199 45.3713 141.259C54.52 145.277 60.1731 146.868 62.8614 146.181L65.1744 145.59L62.1462 143.044C60.481 141.644 59.4311 140.588 59.8132 140.698C66.8863 142.726 69.2907 143.243 71.6004 143.233C73.1177 143.228 74.3249 143.011 74.2825 142.753C74.2401 142.495 73.1152 141.162 71.7823 139.792C67.6092 135.502 59.7785 130.542 51.6745 127.057C40.7567 122.361 34.3728 119.378 21.3752 112.898C5.74534 105.107 4.93638 104.639 5.56994 103.756C6.21925 102.851 12.6007 104.726 16.5861 106.993C19.2853 108.528 23.8049 110.939 33.6423 116.093C36.5518 117.617 41.9262 120.178 45.5861 121.783C49.2453 123.388 55.1543 126.147 58.7169 127.913C66.2965 131.671 75.219 134.714 80.6244 135.385C85.4651 135.986 86.9465 135.741 86.7228 134.377C86.5983 133.619 86.9192 133.378 87.7988 133.568C90.4348 134.141 93.546 133.864 93.4153 133.068C93.0427 130.798 81.0896 123.414 61.8264 113.556C45.1421 105.018 26.144 93.5555 25.8656 91.8597C25.6065 90.281 28.0018 90.4013 31.5073 92.1438C33.3275 93.0489 38.8101 96.2692 43.6919 99.3006C75.5649 119.096 84.6548 124.143 93.2333 126.812C99.3572 128.717 106.517 129.898 107.091 129.098C107.716 128.228 105.06 125.538 100.318 122.239C94.3913 118.115 93.439 117.586 80.1237 111.006C66.0178 104.036 58.0349 99.437 48.6904 92.897C41.1495 87.6199 39.2996 85.6962 40.3526 84.229C41.1357 83.1378 44.4385 84.3434 49.422 87.5406C51.7027 89.0038 54.5903 90.7434 55.8389 91.4071C59.1853 93.1854 73.6428 102.352 83.9181 109.21C98.5979 119.007 112.374 125.719 116.469 125.07C117.6 124.891 117.584 124.772 116.183 122.878C112.259 117.575 106.133 113.04 93.3398 105.965C90.0677 104.155 84.2638 100.669 80.4422 98.2173C76.6207 95.7665 71.0814 92.3185 68.1327 90.5558C60.3518 85.9035 52.2657 80.1582 52.1027 79.165C51.9008 77.9348 54.3596 77.7061 56.6965 78.7378C58.7631 79.6502 66.3809 84.3818 85.4456 96.5945C103.065 107.882 111.836 111.206 127.335 112.473C129.453 112.645 131.736 112.924 132.407 113.091C133.517 113.368 133.457 113.092 131.739 110.043C130.701 108.198 129.233 106.253 128.477 105.72C127.722 105.187 123.19 103.338 118.405 101.61C104.274 96.5088 97.5417 93.4957 85.2975 86.7917C70.4266 78.6501 64.296 74.6128 64.3597 73.006C64.439 71.0144 66.7025 71.5489 72.1146 74.8361C74.8575 76.502 79.9468 79.1019 83.4244 80.6147C86.9019 82.1276 93.2695 84.9407 97.5746 86.8657C114.47 94.4207 132.44 98.603 144.975 97.8981L149.424 97.6475L146.304 95.3385C144.589 94.0679 141.904 92.4201 140.337 91.6759C136.93 90.0569 136.965 89.5295 140.424 90.3514C142.741 90.9019 153.53 90.8492 153.934 90.2853C154.221 89.8857 149.293 86.4465 143.467 82.9819C137.987 79.7225 131.939 77.5784 112.918 72.1497C101.123 68.7838 93.3809 65.5239 93.0988 63.8052C92.9902 63.1437 93.2806 62.5438 93.7435 62.4727C94.5163 62.3542 103.82 65.214 132.116 74.2674C142.8 77.6859 148.594 78.5897 156.574 78.0836L160.675 77.823L156.405 74.9531C151.272 71.5034 142.971 67.3573 137.971 65.7468C135.965 65.1009 130.149 63.605 125.046 62.4226C119.942 61.2403 115.465 59.9268 115.097 59.5034C113.679 57.8743 115.619 57.3584 123.803 57.1864C135.902 56.933 150.312 54.0688 155.561 50.8742C161.105 47.5006 160.431 46.7121 151.287 45.8717C140.598 44.8888 130.484 46.1736 118.182 50.0752C113.154 51.6704 108.765 52.8615 108.428 52.7225C105.565 51.5422 110.647 48.395 124.213 42.95C141.459 36.0267 148.847 32.0401 152.611 27.6249C153.647 26.4092 154.251 25.1339 153.953 24.7917C153.263 23.9995 139.413 27.0571 131.709 29.7025C121.788 33.1083 110.776 39.7402 97.4641 50.3245C90.7401 55.6714 88.0812 57.1603 86.8447 56.272C84.7211 54.7471 95.6013 45.1535 106.917 38.5734C109.171 37.2628 113.317 34.7488 116.132 32.9877C124.202 27.9355 135.592 22.7881 139.817 22.2854C141.816 22.0471 136.666 19.1412 132.783 18.3163C129.266 17.5688 125.578 18.6924 116.165 23.3776C104.647 29.112 86.8532 44.1402 78.3758 55.2938C74.0448 60.9915 71.5717 63.1113 71.2857 61.369C70.9887 59.5594 81.7544 44.7186 86.8056 39.9746C90.9556 36.0772 112.155 20.64 118.352 17.0029C123.223 14.1432 130.277 8.35379 130.113 7.34976C129.917 6.16066 121.497 7.75008 114.59 10.2798C112.635 10.9959 112.542 10.967 113.651 9.98336C116.199 7.72339 118.655 4.87999 118.56 4.30126C118.43 3.50517 106.069 6.40054 100.291 8.58044C97.7999 9.5201 93.7978 11.6504 91.3975 13.3131C88.2164 15.5174 86.368 16.3674 84.5745 16.4496C78.4099 16.7337 66.7114 24.452 59.2067 33.1861C50.4958 43.3248 43.3758 56.2293 38.8112 70.1498C36.8857 76.0228 35.8694 77.3679 34.3545 76.0505C33.3095 75.1419 34.0123 69.5885 35.5793 66.3755C36.1142 65.2788 36.5284 64.2378 36.4995 64.0621C36.4097 63.515 39.5653 55.8741 40.8246 53.5894C41.4836 52.3942 41.9735 51.1202 41.914 50.7575C41.8545 50.3948 42.9731 48.1539 44.4005 45.7779C45.8278 43.4013 47.599 40.0609 48.3364 38.3545C50.5877 33.1454 59.5669 20.3988 64.3653 15.6002C69.4301 10.5346 74.5102 7.44721 77.8353 7.41283C79.931 7.39158 79.9507 7.36831 78.238 6.93279C75.0348 6.11924 65.8543 7.34552 62.8477 8.98826C51.4421 15.221 39.7922 33.2138 32.9904 55.1019C31.5484 59.7408 29.9046 65.6339 29.3369 68.1976C27.6139 75.9814 25.3983 82.3083 24.2516 82.7205C22.3711 83.3961 21.9925 80.9932 23.0511 75.1035C25.3478 62.3307 25.9103 59.9247 27.4256 56.3926C28.2971 54.363 30.0508 49.2659 31.3232 45.0661C32.5956 40.8663 34.4108 35.5926 35.3566 33.3469C40.5183 21.09 44.3492 12.6106 45.7389 10.3666C47.1085 8.15633 49.6824 1.29372 49.5181 0.292376C49.3834 -0.527946 47.438 0.387767 43.9445 2.91484C36.5637 8.2541 31.9197 17.4869 23.6747 43.2117C19.4936 56.2571 15.8586 70.5682 14.7009 78.5473C13.5504 86.4693 12.8303 88.8749 11.5456 89.0858C9.67505 89.3928 9.54171 87.2758 10.6838 75.4057C12.4522 57.0197 13.3883 52.3284 20.4039 26.6803C23.0696 16.934 24.1686 10.8532 24.0532 6.49279C23.9473 2.50608 22.8819 2.63118 19.2609 7.0534ZM95.2741 21.3941C92.138 23.754 88.1616 26.9878 86.4379 28.5811C80.6248 33.9525 73.4146 40.6722 70.0507 43.8539C66.9402 46.7956 59.5564 57.9833 58.6739 61.0908C57.6968 64.5351 58.1139 66.4618 59.8479 66.5096C60.6438 66.5317 62.1841 64.3764 64.5953 59.8638C72.8734 44.3775 85.5974 29.7729 100.533 18.616C101.886 17.6053 102.54 16.8512 101.985 16.9409C101.43 17.0307 98.4097 19.0349 95.2741 21.3941ZM67.996 33.7683C61.1151 40.407 57.5899 44.7693 49.5537 56.5864C45.9184 61.9315 43.4129 70.6211 45.1475 71.8672C46.6471 72.9444 47.9981 71.1933 49.8797 65.7311C53.9416 53.9409 59.3186 44.7972 67.6677 35.4801C74.8411 27.4756 74.915 27.0923 67.996 33.7683ZM77.7982 67.3794C78.0025 68.6237 80.322 70.0211 88.5297 73.8439C95.4706 77.0771 99.5227 78.555 109.102 81.3475C114 82.7751 112.977 81.7025 107.851 80.0346C104.431 78.9222 91.5622 73.011 82.3297 68.3108C78.1095 66.1618 77.5806 66.0537 77.7982 67.3794ZM15.0364 97.425C15.0908 97.7567 16.2929 98.7508 17.7074 99.6341C20.6981 101.501 37.9086 110.135 41.161 111.4C43.7111 112.392 35.7863 106.918 30.9232 104.329C29.1991 103.411 25.5444 101.24 22.8019 99.5048C18.3552 96.6916 14.7578 95.7278 15.0364 97.425ZM-3.80889 110.953C-3.9765 111.359 -3.22285 112.281 -2.13479 113.001C0.00264944 114.417 19.3741 122.43 25.3291 124.362C27.3355 125.013 29.9867 126.016 31.2207 126.59C32.4548 127.165 33.7594 127.588 34.1196 127.531C34.4806 127.475 32.2085 126.202 29.0711 124.704C25.9336 123.205 22.1443 121.262 20.6499 120.385C16.3457 117.859 7.2639 113.74 1.15846 111.544C-3.318 109.934 -3.38633 109.926 -3.80889 110.953Z" fill="#155971" fill-opacity="0.04"/>
</svg>
