<svg width="327" height="1056" viewBox="0 0 327 1056" fill="none" xmlns="http://www.w3.org/2000/svg">
<path fill-rule="evenodd" clip-rule="evenodd" d="M22.567 502.291C50.3457 474.139 87.7069 459.72 194.888 435.789C225.473 428.958 252.181 423.579 254.24 423.832C260.146 424.561 330.36 408.169 336.956 404.523C344.853 400.158 342.734 395.917 331.993 394.592C319.978 393.111 242.536 399.093 213.888 403.715C184.712 408.421 140.772 419.535 107.489 430.624C66.8833 444.151 30.8837 450.792 31.881 444.572C33.2337 436.139 69.0741 410.745 97.2743 398.236C127.781 384.708 200.864 373.554 274.903 371.129C357.158 368.436 371.597 366.256 363.625 357.733C358.742 352.507 352.169 351.755 313.643 352C296.287 352.112 264.116 351.895 242.152 351.522C220.187 351.146 185.699 352.024 165.511 353.468C128.651 356.109 97.1874 354.307 82.8228 348.73L75.1102 345.738L81.1469 339.996C89.1042 332.427 117.732 319.987 134.892 316.643C157.934 312.154 197.994 314.089 290.396 324.157C339.099 329.466 381.517 333.459 384.66 333.034C388.387 332.528 390.301 330.598 390.163 327.483C389.869 320.838 380.632 318.235 315.617 306.483C272.223 298.639 251.418 296.121 221.77 295.134C184.225 293.885 116.104 284.682 113.252 280.472C111.089 277.285 122.506 270.137 144.152 261.133L163.327 253.155L221.828 260.627C255.447 264.919 299.9 272.535 326.339 278.532C406.023 296.605 418.456 298.607 419.09 293.466C419.707 288.464 419.032 288.131 383.653 275.97C369.576 271.131 339.047 260.622 315.812 252.613C292.574 244.606 263.428 233.549 251.041 228.045C228.87 218.194 177.744 185.402 178.243 181.354C178.746 177.273 202.186 173.36 215.959 175.058C225.993 176.295 240.873 182.14 268.176 195.571C289.177 205.903 325.048 222.127 347.888 231.624C388.646 248.572 444.613 266.081 449.558 263.429C454.501 260.774 453.15 252.276 447.121 248.083C438.89 242.365 406.694 228.386 367.119 213.353C328.531 198.694 282.361 179.393 263.325 169.963C250.591 163.653 223.363 142.114 221.229 136.662C219.599 132.495 238.014 132.011 265.147 135.512C290.16 138.74 293.088 139.784 326.717 157.445C389.62 190.477 421.331 205.829 451.687 217.948C476.961 228.036 482.031 229.327 485.212 226.48C488.396 223.633 488.338 222.65 484.827 219.968C480.478 216.647 445.697 202.169 429.765 197.049C368.076 177.223 274.415 127.445 272.111 113.26C271.297 108.237 283.629 107.107 305.867 110.165C326.709 113.028 346.313 122.343 411.262 160.239C439.138 176.503 508.148 205.796 511.521 202.795C515.6 199.165 508.994 193.312 490.125 183.844C456.361 166.901 384.505 126.794 369.63 116.59C354.42 106.159 315.949 68.6954 316.362 64.7167C316.73 61.1677 338.868 65.2258 353.18 71.4638C360.725 74.7542 374.962 82.8661 384.817 89.4892C434.548 122.927 523.382 176.565 532.674 178.77C547.272 182.234 536.728 171.128 502.329 146.81C459.613 116.611 433.683 94.2802 411.782 68.8245C397.621 52.3686 386.017 31.3609 389.411 28.3293C394.372 23.8935 441.479 56.409 480.417 91.1428C502.137 110.519 551.655 146.81 560.981 150.189C574.658 155.143 567.864 144.684 547.869 130.008C511.024 102.962 473.317 68.1333 459.687 48.5536C446.239 29.2319 443.428 18.1774 453.091 22.6165C463.097 27.2115 491.631 49.7244 508.787 66.5578C518.331 75.9243 528.676 85.0817 531.776 86.9089C534.876 88.736 545.3 97.2763 554.942 105.889C578.289 126.742 586.704 130.428 605.919 128.216C620.63 126.521 622.086 125.567 664.976 89.5458C701.72 58.6857 755.709 19.8095 785.599 2.68099C792.51 -1.27868 792.563 -1.25552 791.731 5.48934C791.07 10.8519 786.867 14.7433 771.88 23.8724C733.596 47.1906 700.924 70.7541 658.85 105.389C616.863 139.957 615.686 141.187 610.674 155.848L605.535 170.875L612.633 194.958C616.537 208.205 623.879 228.035 628.948 239.027C649.029 282.552 667.437 345.436 665.154 362.712C664.207 369.875 663.044 368.706 647.187 344.63C636.988 329.148 627.519 310.853 623.423 298.714C607.831 252.517 582.022 184.139 580.087 183.901C573.493 183.088 574.095 204.425 581.044 217.82C583 221.586 589.079 239.517 594.555 257.659C604.801 291.608 618.101 325.844 634.181 359.661C646.33 385.213 655.277 420.586 649.405 419.862C645.757 419.412 626.326 395.945 616.709 380.373C601.723 356.109 588.662 323.381 573.382 271.821C559.09 223.597 553.968 212.18 548.455 216.256C545.767 218.244 545.623 221.892 547.743 234.268C549.205 242.804 552.018 253.371 553.996 257.752C555.976 262.131 558.339 270.169 559.252 275.612C561.581 289.533 586.178 354.935 605.394 398.311C615.306 420.683 624.793 455.588 624.713 469.381C624.675 475.55 623.797 480.492 622.76 480.364C618.309 479.815 596.922 452.565 590.274 438.971C581.207 420.425 564.695 370.679 553.357 327.748C537.939 269.362 524.18 238.24 516.732 244.899C512.859 248.362 516.347 271.492 523.203 287.821C525.568 293.451 528.231 302.516 529.124 307.964C530.017 313.413 532.665 321.852 535.012 326.717C543.949 345.252 578.066 470.141 581.699 497.624C583.881 514.136 582.349 533.621 578.901 533.196C571.189 532.246 550.622 487.768 541.1 451.453C537.916 439.307 533.429 422.272 531.13 413.599C528.83 404.926 523.08 382.377 518.353 363.49C513.624 344.603 505.89 315.134 501.167 298C493.732 271.044 492.025 267.259 488.489 269.874C480.227 275.98 484.089 300.248 504.665 371.509C512.657 399.188 521.363 432.086 524.012 444.615C526.66 457.144 531.763 474.99 535.348 484.271C547.626 516.056 559.665 580.215 554.252 585.011C551.526 587.426 527.388 549.19 519.619 530.147C513.704 515.648 493.713 441.922 489.636 419.576C486.37 401.663 465.609 323.879 461.891 315.621C457.645 306.19 452.612 304.632 449.625 311.827C447.072 317.976 450.702 343.95 455.653 354.96C457.623 359.341 461.358 372.268 463.951 383.689C466.547 395.111 470.086 407.764 471.816 411.805C473.547 415.848 476.274 423.059 477.878 427.833C479.484 432.607 488.376 457.416 497.637 482.963C530.99 574.957 537.668 597.099 536.866 613.044C536.449 621.321 535.136 627.641 533.863 627.484C529.735 626.975 509.045 589.272 498.518 563.077C492.81 548.878 481.78 515.883 474.007 489.756C452.885 418.778 425.657 345.127 420.296 344.466C415.331 343.854 413.409 355.393 417.179 363.174C419.265 367.48 421.394 374.152 421.907 377.998C422.422 381.847 424.739 389.596 427.055 395.22C432.092 407.442 436.55 419.385 445.505 444.642C451.397 461.259 465.657 496.437 499.353 577.469C514.293 613.395 520.372 635.793 518.158 646.766L516.252 656.208L507.005 644.587C501.919 638.197 498.101 634.207 498.521 635.72C506.257 663.736 508.277 673.298 508.428 682.596C508.529 688.705 507.861 693.612 506.944 693.498C506.026 693.385 501.224 689.155 496.272 684.096C480.764 668.256 462.595 637.844 449.621 606.004C432.14 563.108 421.078 538.079 397.122 487.21C368.315 426.039 366.596 422.887 363.524 425.634C360.375 428.449 367.514 453.715 375.851 469.251C381.495 479.772 390.386 497.426 409.401 535.871C415.023 547.241 424.509 568.301 430.479 582.674C436.449 597.044 446.678 620.212 453.21 634.157C467.107 663.826 478.584 699.059 481.387 720.666C483.9 740.015 483.151 746.032 478.311 745.435C475.618 745.103 474.79 746.449 475.535 749.946C477.772 760.428 477.04 773.012 474.214 772.663C466.153 771.669 439.083 725.206 402.676 649.872C371.143 584.624 329.085 510.714 323.064 509.972C317.459 509.281 318.076 518.895 324.519 532.616C327.866 539.74 339.694 561.089 350.806 580.061C423.367 703.933 441.947 739.393 452.071 773.325C459.297 797.548 464.045 826.103 461.262 828.591C458.233 831.299 448.507 821.208 436.46 802.858C421.402 779.924 419.454 776.209 395.117 724.084C369.338 668.864 352.433 637.759 328.554 601.607C309.287 572.432 302.335 565.415 297.229 569.98C293.432 573.375 297.96 586.4 309.667 605.745C315.024 614.598 321.408 625.833 323.855 630.71C330.412 643.783 363.989 699.928 389.066 739.756C424.891 796.656 449.734 850.605 447.763 867.235C447.219 871.824 446.797 871.789 439.987 866.57C420.918 851.958 404.386 828.315 378.34 778.4C371.677 765.634 358.883 743.051 349.907 728.216C340.933 713.382 328.295 691.856 321.825 680.38C304.748 650.1 283.781 618.836 280.255 618.401C275.888 617.863 275.275 627.81 279.111 636.986C282.503 645.1 299.847 674.706 344.566 748.716C385.897 817.116 398.355 851.675 404.072 913.776C404.852 922.261 406.019 931.385 406.665 934.05C407.732 938.458 406.753 938.276 395.828 932.042C389.221 928.274 382.224 922.799 380.278 919.878C378.334 916.956 371.43 899.126 364.938 880.252C345.766 824.518 334.571 798.091 309.881 750.305C279.896 692.267 265.127 668.492 259.448 669.106C252.41 669.869 254.481 678.861 266.54 699.911C272.652 710.579 282.254 730.483 287.883 744.142C293.511 757.802 303.97 782.803 311.122 799.701C339.193 866.018 355.421 937.413 353.928 988.02L353.396 1005.98L344.98 993.942C340.349 987.319 334.307 976.882 331.549 970.742C325.55 957.39 323.688 957.645 326.871 971.386C329.003 980.59 329.678 1024.02 327.715 1025.78C326.325 1027.02 313.767 1007.95 301.047 985.277C289.081 963.948 281.014 940.084 260.295 864.737C247.448 818.014 235.299 787.579 229.197 786.827C226.849 786.537 224.75 787.84 224.536 789.719C224.178 792.856 235.036 829.666 269.317 941.534C282.261 983.771 285.921 1006.89 284.767 1039.12L284.173 1055.69L273.681 1039.14C261.069 1019.25 245.741 986.762 239.646 966.996C237.201 959.068 231.446 935.991 226.856 915.715C222.267 895.436 217.264 877.711 215.737 876.324C209.862 870.982 208.191 878.902 208.236 911.88C208.305 960.636 199.324 1019.27 188.444 1041.11C176.953 1064.17 174.11 1061.64 170.408 1025.02C166.078 982.217 169.816 941.225 182.634 890.844C187.876 870.249 191.738 852.318 191.22 850.995C186.816 839.733 176.09 860.889 157.913 916.705C134.801 987.66 121.289 1018.28 105.972 1034.42C101.755 1038.86 97.2924 1041.57 96.0581 1040.45C93.2012 1037.85 102.911 981.426 111.653 949.828C122.908 909.139 145.487 863.339 181.863 807.401C200.239 779.146 205.293 768.113 202.053 763.334C196.489 755.127 163.424 801.056 141.052 848.066C136.596 857.431 128.035 874.679 122.03 886.4C104.804 920.005 87.5061 966.996 86.065 984.113C85.3816 992.213 74.6922 972.134 71.4645 956.687C68.5397 942.699 72.2199 927.605 88.0408 888.676C107.405 841.038 159.141 766.072 197.916 729.466C217.724 710.765 225.025 700.339 218.839 699.576C212.415 698.784 160.781 745.421 144.403 766.809C130.949 784.381 78.0374 873.144 65.6673 898.897C55.941 919.141 36.026 948.823 32.4615 948.384C28.24 947.863 33.1899 913.618 41.5867 885.253C43.9637 877.226 43.8539 876.858 40.4631 881.54C32.6727 892.3 22.8113 902.82 20.7567 902.567C17.9304 902.219 27.1853 851.825 34.4347 828.084C37.5596 817.847 44.7752 801.265 50.4652 791.233C58.0078 777.939 60.867 770.31 61.0147 763.073C61.5277 738.198 87.8946 689.393 118.189 657.241C153.356 619.922 198.433 588.389 247.307 566.914C267.926 557.856 272.603 553.465 267.822 547.662C264.525 543.659 244.938 547.725 233.699 554.748C229.862 557.145 226.213 559.044 225.589 558.967C223.647 558.728 196.872 573.132 188.891 578.709C184.716 581.628 180.249 583.884 178.961 583.725C177.674 583.566 169.837 588.568 161.546 594.843C153.254 601.117 141.58 608.99 135.603 612.339C117.357 622.561 72.9877 661.541 56.3974 681.924C38.8841 703.438 28.369 724.572 28.5127 737.963C28.6048 746.402 28.5241 746.487 26.8469 739.69C23.7137 726.979 27.3185 689.756 32.8892 677.289C54.025 629.994 116.738 579.095 193.616 546.841C209.909 540.003 230.622 532.074 239.645 529.217C267.04 520.548 289.242 510.22 290.609 505.513C292.848 497.793 284.319 496.805 263.571 502.379C218.575 514.469 210.11 517.269 197.737 524.156C190.628 528.116 172.739 536.31 157.985 542.367C143.231 548.424 124.723 556.906 116.855 561.213C73.9124 584.72 44.2254 602.029 36.3992 608.122C28.6905 614.127 4.62203 626.016 1.06704 625.578C-1.84528 625.219 1.23845 617.185 9.89823 602.561C28.1948 571.664 60.4816 550.915 150.815 511.997C196.625 492.261 246.955 474.441 275.086 468.003C303.015 461.607 311.466 458.173 312.11 452.955C313.046 445.358 305.548 445.293 263.653 452.535C198.76 463.751 182.241 468.564 92.0809 502.517C57.8197 515.418 36.3989 521.197 20.9665 521.704C6.85656 522.166 7.21403 517.851 22.567 502.291ZM79.3578 805.035C87.4548 791.886 98.576 775.161 104.074 767.869C122.609 743.275 145.802 712.757 156.788 698.509C166.945 685.334 205.928 653.122 216.849 648.878C228.954 644.177 235.802 645.427 236.11 652.395C236.251 655.594 228.75 662.273 212.982 672.984C158.865 709.753 108.222 764.22 69.951 826.819C66.484 832.493 63.8688 835.29 64.1419 833.036C64.415 830.782 71.2634 818.181 79.3578 805.035ZM120.95 692.487C143.883 663.313 159.031 648.152 200.189 613.174C218.805 597.351 249.341 585.331 253.887 592.034C257.817 597.83 251.731 603.658 232.561 612.448C191.181 631.425 159.268 655.104 126.979 690.784C99.238 721.44 97.8884 721.823 120.95 692.487ZM240.619 724.448C245.036 724.993 250.164 734.017 264.341 766.2C276.331 793.415 281.882 809.394 292.524 847.328C297.964 866.722 294.089 862.844 287.78 842.584C283.572 829.066 261.637 778.59 244.275 742.479C236.337 725.972 235.912 723.868 240.619 724.448ZM341.885 465.146C343.063 465.291 346.675 469.908 349.912 475.404C356.754 487.025 388.667 554.37 393.401 567.178C397.113 577.221 377.119 546.545 367.572 527.549C364.189 520.814 356.217 506.588 349.861 495.937C339.555 478.667 335.859 464.403 341.885 465.146ZM388.233 386.282C389.654 385.517 392.975 388.344 395.61 392.563C400.787 400.85 430.677 477.031 437.986 500.568C440.45 508.499 444.206 518.946 446.336 523.785C448.468 528.624 450.071 533.78 449.898 535.242C449.727 536.708 445.044 527.846 439.495 515.553C433.943 503.259 426.767 488.441 423.545 482.622C414.266 465.861 398.972 430.227 390.717 406.143C384.665 388.485 384.631 388.211 388.233 386.282Z" fill="#155971" fill-opacity="0.06"/>
</svg>
