<svg width="299" height="1176" viewBox="0 0 299 1176" fill="none" xmlns="http://www.w3.org/2000/svg">
<path fill-rule="evenodd" clip-rule="evenodd" d="M118.775 258.499C125.09 297.541 114.664 336.207 70.6832 436.836C58.1348 465.553 46.7045 490.283 45.2834 491.795C41.2082 496.131 12.973 562.475 12.0208 569.951C10.8801 578.902 15.5535 579.696 22.9654 571.81C31.256 562.989 72.1597 496.959 85.3482 471.11C98.7795 444.785 115.757 402.762 126.463 369.354C139.525 328.596 155.424 295.622 159.855 300.1C165.862 306.172 165.191 350.092 158.633 380.236C151.535 412.844 117.379 478.41 75.6138 539.593C29.2129 607.565 22.4462 620.504 34.0324 619.104C41.133 618.249 45.6211 613.389 68.1747 582.153C78.3333 568.081 97.5061 542.246 110.778 524.741C124.052 507.237 143.71 478.885 154.466 461.741C174.101 430.435 194.136 406.108 207.119 397.808L214.088 393.351L215.157 401.614C216.567 412.505 209.7 442.954 202.266 458.778C192.281 480.024 167.063 511.21 104.372 579.835C71.3277 616.004 43.0559 647.878 41.5434 650.665C39.7504 653.971 40.1777 656.656 42.7725 658.384C48.3088 662.071 55.8648 656.154 103.742 610.625C135.697 580.237 150.015 564.934 168.32 541.591C191.499 512.029 239.153 462.489 244.235 462.673C248.084 462.809 247.111 476.244 241.595 499.031L236.71 519.216L196.133 562.016C172.817 586.612 140.42 617.988 119.967 635.784C58.3265 689.417 49.3689 698.269 53.1437 701.817C56.8161 705.268 57.483 704.921 88.1894 683.55C100.408 675.047 126.916 656.616 147.101 642.595C167.285 628.57 193.42 611.578 205.177 604.831C226.219 592.755 282.874 570.861 285.846 573.654C288.843 576.471 278.159 597.697 268.655 607.809C261.731 615.177 248.227 623.733 221.265 637.836C200.525 648.683 166.25 668.051 145.097 680.875C107.351 703.759 60.1717 738.586 59.3915 744.142C58.6151 749.699 66.2707 753.627 73.2152 751.238C82.6902 747.973 112.984 730.245 148.486 707.184C183.103 684.699 225.944 658.837 244.796 649.044C257.408 642.493 290.869 633.239 296.529 634.737C300.855 635.882 290.37 651.028 271.522 670.858C254.146 689.138 251.575 690.884 217.464 707.594C153.66 738.852 122.544 755.377 94.8379 772.719C71.7718 787.158 67.7362 790.487 68.155 794.736C68.5722 798.986 69.4002 799.52 73.6381 798.27C78.8863 796.721 111.109 777.202 124.65 767.369C177.078 729.292 272.56 683.102 285.367 689.618C289.902 691.928 283.532 702.548 267.932 718.688C253.313 733.817 234.22 744.137 165.282 774.173C135.695 787.066 71.3034 825.46 71.7335 829.954C72.2541 835.389 80.8788 833.515 99.6623 823.878C133.274 806.635 208.074 772.331 225.093 766.351C242.493 760.237 295.444 751.314 298.411 753.996C301.059 756.388 284.71 771.858 271.224 779.725C264.113 783.87 249.16 790.569 237.995 794.611C181.642 814.999 85.8967 855.016 78.6302 861.212C67.214 870.948 82.404 868.997 122.342 855.596C171.939 838.957 205.272 831.218 238.749 828.576C260.391 826.865 284.197 829.907 284.64 834.435C285.29 841.059 231.231 859.873 180.206 870.786C151.743 876.872 93.2143 895.403 84.9794 900.934C72.905 909.047 85.3575 909.74 109.009 902.27C152.594 888.507 202.968 878.644 226.818 879.207C250.353 879.764 260.934 884.023 251.645 889.2C242.028 894.562 207.009 904.295 183.294 908.199C170.099 910.37 156.599 913.311 153.294 914.734C149.989 916.157 136.941 919.526 124.297 922.221C93.6812 928.748 85.737 933.362 76.1752 950.176C68.8557 963.048 68.766 964.788 72.5083 1020.67C75.7142 1068.55 75.2064 1135.08 71.3784 1169.31C70.4929 1177.23 70.443 1177.26 65.4908 1172.6C61.5536 1168.9 60.8951 1163.21 62.3779 1145.73C66.1674 1101.06 66.4453 1060.78 63.3395 1006.37C60.2372 952.074 59.9397 950.398 51.0679 937.696L41.9755 924.674L18.3485 916.181C5.35248 911.509 -14.9865 905.723 -26.8509 903.324C-73.8342 893.827 -135.453 871.547 -148.047 859.503C-153.269 854.509 -151.638 854.261 -122.845 855.681C-104.328 856.593 -83.9713 859.755 -71.7557 863.618C-25.267 878.315 45.1561 897.866 46.4914 896.445C51.0414 891.604 33.4661 879.489 18.5525 877.187C14.3579 876.542 -3.70225 870.86 -21.5767 864.566C-55.025 852.786 -90.5074 843.302 -127.295 836.309C-155.09 831.025 -188.92 817.356 -184.868 813.045C-182.35 810.366 -151.938 808.544 -133.692 809.977C-105.26 812.213 -71.1356 820.998 -20.5024 839.115C26.855 856.059 39.0932 858.667 39.0593 851.811C39.0426 848.468 36.1833 846.197 24.9446 840.6C17.1918 836.739 7.0031 832.77 2.29936 831.778C-2.404 830.79 -10.2859 827.951 -15.2174 825.473C-27.8273 819.132 -95.1335 800.36 -141.487 790.254C-165.394 785.042 -199.166 772.086 -210.249 763.876C-215.205 760.202 -218.675 756.575 -217.959 755.814C-214.888 752.546 -180.267 751.378 -165.371 754.041C-145.05 757.676 -95.153 773.726 -53.8112 789.928C2.41212 811.964 35.6531 819.238 34.6773 809.296C34.1698 804.125 13.4437 793.281 -3.78305 789.172C-9.72289 787.755 -18.611 784.552 -23.5353 782.054C-28.4597 779.557 -36.8338 776.711 -42.1463 775.732C-62.3821 771.999 -183.316 725.782 -207.641 712.484C-222.255 704.494 -237.075 691.751 -234.696 689.22C-229.375 683.558 -181.335 693.224 -146.405 706.985C-134.723 711.589 -118.326 718.027 -109.969 721.293C-101.612 724.559 -80.0186 733.234 -61.9852 740.573C-43.9502 747.91 -15.6005 759.07 1.01521 765.377C27.1599 775.295 31.2224 776.153 31.2004 771.755C31.1517 761.482 9.2858 750.267 -60.3734 724.791C-87.4299 714.895 -119.12 702.494 -130.796 697.233C-142.471 691.972 -159.887 685.551 -169.494 682.964C-202.395 674.102 -261.282 645.93 -261.956 638.729C-262.295 635.103 -217.183 638.203 -197.228 643.179C-182.033 646.967 -110.73 674.372 -90.2893 684.277C-73.9044 692.22 1.12878 721.399 9.9885 723.274C20.1071 725.417 24.3361 722.276 20.2941 715.617C16.8387 709.924 -6.26592 697.516 -18.0753 695.009C-22.7741 694.012 -35.4116 689.393 -46.1606 684.741C-56.9113 680.092 -69.2118 675.475 -73.4947 674.486C-77.7796 673.494 -85.2098 671.437 -90.0095 669.912C-94.8109 668.389 -120.082 660.915 -146.168 653.302C-240.105 625.893 -261.918 618.207 -274.312 608.144C-280.746 602.92 -285.071 598.129 -284.192 597.194C-281.343 594.163 -238.698 599.731 -211.342 606.704C-196.513 610.482 -163.372 621.066 -137.697 630.221C-67.9425 655.09 7.5734 676.609 11.2728 672.673C14.6985 669.028 6.52178 660.663 -1.98399 659.11C-6.69112 658.251 -13.3326 656.029 -16.7394 654.172C-20.1498 652.315 -27.7711 649.608 -33.678 648.156C-46.5157 645.004 -58.7859 641.549 -84.457 633.86C-101.347 628.802 -138.157 619.538 -223.45 598.879C-261.265 589.72 -282.931 581.399 -290.479 573.133L-296.972 566.019L-282.134 565.42C-273.973 565.088 -268.499 564.363 -269.968 563.808C-297.146 553.508 -306.056 549.491 -313.649 544.122C-318.638 540.597 -322.203 537.16 -321.57 536.486C-320.937 535.813 -314.687 534.435 -307.68 533.426C-285.739 530.265 -250.467 533.562 -217.109 541.894C-172.169 553.118 -145.438 558.971 -90.2391 569.677C-23.8614 582.552 -20.3027 583.026 -20.7053 578.925C-21.1178 574.722 -45.7242 565.563 -63.1845 563.117C-75.009 561.458 -94.5055 558.209 -136.76 550.851C-149.256 548.673 -171.854 543.892 -186.979 540.223C-202.101 536.555 -226.838 531.128 -241.95 528.165C-274.099 521.86 -309.311 510.315 -328.402 499.818C-345.502 490.421 -349.915 486.263 -346.575 482.709C-344.718 480.732 -345.314 479.269 -348.577 477.805C-358.357 473.421 -368.08 465.399 -366.13 463.324C-360.568 457.405 -307.085 462.997 -224.79 478.103C-153.513 491.186 -69.0296 500.89 -64.8752 496.469C-61.0077 492.354 -69.1303 487.175 -84.0082 484.272C-91.7338 482.766 -115.948 479.704 -137.821 477.468C-280.637 462.877 -320.225 456.931 -353.588 445.063C-377.404 436.591 -403.251 423.56 -403.616 419.844C-404.013 415.801 -390.126 413.911 -368.203 415.025C-340.803 416.416 -336.654 417.038 -280.217 428.179C-220.429 439.983 -185.345 444.709 -142.068 446.788C-107.146 448.467 -97.3779 447 -98.0469 440.184C-98.5444 435.115 -111.729 431.077 -134.254 429.101C-144.563 428.197 -157.399 426.714 -162.78 425.809C-177.202 423.381 -242.341 417.322 -289.291 414.041C-356.366 409.351 -414.574 397.541 -426.831 386.131C-430.213 382.981 -429.935 382.661 -421.702 380.247C-398.649 373.487 -369.806 374.107 -314.144 382.564C-299.906 384.726 -274.126 387.737 -256.854 389.253C-239.583 390.771 -214.748 393.284 -201.666 394.839C-167.145 398.939 -129.533 400.48 -127.1 397.891C-124.086 394.685 -131.752 388.316 -141.422 385.993C-149.973 383.939 -184.108 380.453 -270.243 372.837C-349.851 365.8 -385.096 355.446 -438.589 323.387C-445.898 319.005 -453.95 314.559 -456.482 313.508C-460.67 311.766 -459.945 311.083 -448.463 305.948C-441.52 302.84 -432.97 300.427 -429.462 300.582C-425.957 300.738 -407.491 305.695 -388.425 311.602C-332.125 329.042 -304.188 335.613 -251.043 343.907C-186.498 353.982 -158.59 356.103 -155.732 351.157C-152.192 345.027 -160.671 341.389 -184.78 338.69C-196.999 337.322 -218.732 333.317 -233.079 329.794C-247.426 326.27 -273.779 319.946 -291.64 315.739C-361.735 299.232 -428.935 270.166 -468.894 239.077L-483.076 228.041L-468.39 228.359C-460.31 228.532 -448.319 229.82 -441.736 231.22C-427.418 234.264 -426.524 232.61 -439.493 227.064C-448.18 223.35 -483.629 198.245 -483.885 195.627C-484.069 193.769 -461.265 194.895 -435.454 198.021C-411.174 200.96 -387.152 208.542 -314.11 236.315C-268.817 253.538 -237.081 261.707 -232.871 257.227C-231.251 255.503 -231.063 253.04 -232.452 251.757C-234.772 249.616 -270.891 236.641 -381.415 198.245C-423.144 183.75 -443.962 173.051 -469.292 153.087L-482.31 142.824L-462.761 144.128C-439.26 145.698 -403.992 152.511 -384.441 159.264C-376.599 161.973 -354.577 170.956 -335.504 179.226C-316.429 187.497 -299.169 193.927 -297.148 193.514C-289.368 191.927 -294.773 185.902 -321.413 166.464C-360.801 137.728 -402.818 95.854 -414.016 74.177C-425.843 51.2844 -422.118 50.4877 -390.38 69.1238C-353.281 90.9057 -322.406 118.129 -289.318 158.225C-275.793 174.617 -263.603 188.322 -262.23 188.685C-250.541 191.782 -261.279 170.633 -295.59 123.003C-339.203 62.4502 -355.938 33.4618 -359.913 11.5741C-361.007 5.54782 -360.562 0.343611 -358.927 0.0105575C-355.142 -0.760453 -315.341 40.3959 -295.003 66.1101C-268.812 99.2215 -245.185 144.489 -221.523 206.878C-209.572 238.393 -203.653 248.987 -197.882 249.194C-187.974 249.551 -205.513 195.744 -230.24 149.929C-235.167 140.803 -244.031 123.708 -249.943 111.941C-266.89 78.1941 -294.599 36.4848 -307.561 25.2137C-313.695 19.879 -291.178 23.1101 -276.806 29.6266C-263.79 35.527 -253.782 47.4102 -231.709 83.1663C-204.699 126.925 -174.752 212.947 -168.108 265.856C-164.712 292.885 -160.61 304.933 -156.341 300.392C-151.908 295.675 -159.054 226.464 -166.644 200.618C-172.879 179.383 -213.266 84.266 -226.745 59.0749C-237.339 39.2708 -249.532 5.67106 -247.073 3.05394C-244.16 -0.0455471 -219.446 24.1718 -201.514 47.6984C-196.44 54.3569 -196.077 54.4859 -197.854 48.9846C-201.936 36.3437 -204.604 22.1725 -203.186 20.664C-201.236 18.5889 -166.033 55.8163 -151.154 75.6869C-144.738 84.2538 -135.616 99.8693 -130.881 110.385C-124.606 124.323 -120.138 131.135 -114.385 135.528C-94.6134 150.631 -70.7974 200.73 -62.7401 244.165C-53.3893 294.584 -54.5607 349.582 -66.0918 401.706C-70.958 423.696 -70.1765 430.062 -62.6701 429.631C-57.492 429.335 -49.2069 411.126 -48.2373 397.909C-47.9063 393.397 -47.284 389.33 -46.8537 388.872C-45.5135 387.446 -41.3263 357.333 -41.1147 347.598C-41.0046 342.505 -40.1873 337.568 -39.2987 336.623C-38.4101 335.677 -37.8187 326.399 -37.9868 316.003C-38.1534 305.606 -37.6135 291.535 -36.7861 284.735C-34.261 263.974 -39.5174 205.148 -46.1694 179.722C-53.1895 152.884 -64.0358 131.918 -74.9274 124.126C-81.7926 119.217 -81.813 119.102 -75.3379 121.762C-63.2296 126.74 -35.3185 151.63 -28.5469 163.488C-2.86041 208.474 1.18215 289.141 -18.1865 370.23C-22.2895 387.417 -28.1222 408.816 -31.1456 417.784C-40.3262 445.012 -45.1027 469.028 -42.1108 472.911C-37.2037 479.277 -31.3693 472.976 -23.6149 452.941C-6.80108 409.489 -4.06171 401.004 -2.31274 386.953C-1.31014 378.877 2.64077 359.601 6.46493 344.117C10.2891 328.634 14.3745 308.689 15.5445 299.795C21.9327 251.259 25.4951 217.08 25.1994 207.166C24.9054 197.398 29.5237 170.954 31.9767 168.344C33.9863 166.205 38.6489 173.438 45.3368 189.063C59.4664 222.074 57.1451 260.383 35.2082 356.266C24.0838 404.89 8.74368 456.03 -2.67277 482.534C-14.0038 508.85 -16.2233 517.699 -12.3924 521.299C-6.81448 526.542 -2.33398 520.528 16.5613 482.442C45.8312 423.449 51.7015 407.276 77.5429 314.464C87.3637 279.196 95.3497 258.497 104.054 245.743C112.013 234.083 115.285 236.92 118.775 258.499ZM-159.081 125.552C-153.251 139.851 -146.322 158.702 -143.683 167.445C-134.781 196.927 -123.849 233.666 -118.837 250.945C-114.203 266.922 -111.228 317.404 -114.252 328.724C-117.607 341.269 -122.659 346.058 -128.464 342.191C-131.129 340.416 -132.09 330.419 -131.422 311.368C-129.138 245.982 -143.188 172.948 -171.106 105.096C-173.638 98.9475 -174.351 95.185 -172.693 96.7366C-171.035 98.2882 -164.91 111.256 -159.081 125.552ZM-92.8144 225.58C-82.8127 261.315 -79.5235 282.493 -75.6001 336.363C-73.8239 360.73 -82.1555 392.472 -90.2497 392.182C-97.2477 391.931 -98.357 383.578 -94.1307 362.916C-85.0092 318.317 -85.2732 278.579 -95.0003 231.45C-103.358 190.96 -102.87 189.645 -92.8144 225.58ZM-189.275 303.281C-192.323 306.524 -202.634 305.333 -236.978 297.769C-266.021 291.374 -282.195 286.418 -319.093 272.605C-337.957 265.543 -332.539 264.705 -312.462 271.578C-299.069 276.165 -245.381 288.27 -205.985 295.583C-187.976 298.925 -186.027 299.825 -189.275 303.281ZM-39.8137 538.129C-40.6265 538.994 -46.4852 539.183 -52.8325 538.549C-66.2516 537.209 -139.445 523.194 -152.578 519.451C-162.874 516.516 -126.311 518.496 -105.343 522.008C-97.9104 523.256 -81.7224 525.223 -69.3733 526.383C-49.3502 528.265 -35.6561 533.705 -39.8137 538.129ZM-3.53855 622.104C-3.76037 623.703 -8.0036 624.713 -12.9644 624.348C-22.7099 623.633 -101.839 602.767 -125.151 594.766C-133.006 592.072 -143.655 588.934 -148.818 587.795C-153.982 586.658 -159.09 584.907 -160.168 583.904C-161.249 582.9 -151.333 584.354 -138.135 587.135C-124.935 589.915 -108.739 592.874 -102.14 593.711C-83.1341 596.12 -45.3451 604.821 -21.034 612.381C-3.20958 617.924 -2.96889 618.058 -3.53855 622.104Z" fill="#155971" fill-opacity="0.04"/>
</svg>
