<svg width="467" height="1176" viewBox="0 0 467 1176" fill="none" xmlns="http://www.w3.org/2000/svg">
<path fill-rule="evenodd" clip-rule="evenodd" d="M602.661 258.499C608.976 297.541 598.549 336.207 554.569 436.836C542.021 465.553 530.59 490.283 529.169 491.795C525.094 496.131 496.859 562.475 495.906 569.951C494.766 578.902 499.439 579.696 506.851 571.81C515.142 562.989 556.045 496.959 569.234 471.11C582.665 444.785 599.643 402.762 610.349 369.354C623.411 328.596 639.31 295.622 643.741 300.1C649.748 306.172 649.077 350.092 642.518 380.236C635.421 412.844 601.265 478.41 559.5 539.593C513.099 607.565 506.332 620.504 517.918 619.104C525.019 618.249 529.507 613.389 552.06 582.153C562.219 568.081 581.392 542.246 594.664 524.741C607.938 507.237 627.595 478.885 638.352 461.741C657.987 430.435 678.022 406.108 691.004 397.808L697.974 393.351L699.043 401.614C700.453 412.505 693.585 442.954 686.151 458.778C676.167 480.024 650.949 511.21 588.258 579.835C555.213 616.004 526.942 647.878 525.429 650.665C523.636 653.971 524.063 656.656 526.658 658.384C532.195 662.071 539.751 656.154 587.628 610.625C619.583 580.237 633.901 564.934 652.206 541.591C675.385 512.029 723.039 462.489 728.121 462.673C731.97 462.809 730.997 476.244 725.48 499.031L720.595 519.216L680.019 562.016C656.703 586.612 624.306 617.988 603.852 635.784C542.212 689.417 533.255 698.269 537.029 701.817C540.702 705.268 541.369 704.921 572.075 683.55C584.293 675.047 610.802 656.616 630.987 642.595C651.171 628.57 677.306 611.578 689.063 604.831C710.105 592.755 766.759 570.861 769.732 573.654C772.728 576.471 762.045 597.697 752.541 607.809C745.617 615.177 732.113 623.733 705.151 637.836C684.41 648.683 650.135 668.051 628.983 680.875C591.237 703.759 544.057 738.586 543.277 744.142C542.501 749.699 550.156 753.627 557.101 751.238C566.576 747.973 596.87 730.245 632.372 707.184C666.989 684.699 709.83 658.837 728.682 649.044C741.294 642.493 774.755 633.239 780.415 634.737C784.741 635.882 774.256 651.028 755.408 670.858C738.032 689.138 735.461 690.884 701.35 707.594C637.546 738.852 606.43 755.377 578.724 772.719C555.658 787.158 551.622 790.487 552.041 794.736C552.458 798.986 553.286 799.52 557.524 798.27C562.772 796.721 594.995 777.202 608.535 767.369C660.964 729.292 756.446 683.102 769.253 689.618C773.787 691.928 767.418 702.548 751.818 718.688C737.199 733.817 718.105 744.137 649.168 774.173C619.581 787.066 555.189 825.46 555.619 829.954C556.14 835.389 564.765 833.515 583.548 823.878C617.159 806.635 691.959 772.331 708.979 766.351C726.378 760.237 779.33 751.314 782.297 753.996C784.944 756.388 768.596 771.858 755.11 779.725C747.999 783.87 733.046 790.569 721.881 794.611C665.528 814.999 569.782 855.016 562.516 861.212C551.1 870.948 566.29 868.997 606.228 855.596C655.825 838.957 689.158 831.218 722.634 828.576C744.277 826.865 768.083 829.907 768.525 834.435C769.175 841.059 715.117 859.873 664.092 870.786C635.629 876.872 577.1 895.403 568.865 900.934C556.791 909.047 569.243 909.74 592.895 902.27C636.479 888.507 686.854 878.644 710.704 879.207C734.238 879.764 744.82 884.023 735.53 889.2C725.914 894.562 690.895 904.295 667.179 908.199C653.985 910.37 640.485 913.311 637.18 914.734C633.875 916.157 620.827 919.526 608.182 922.221C577.567 928.748 569.623 933.362 560.061 950.176C552.741 963.048 552.652 964.788 556.394 1020.67C559.6 1068.55 559.092 1135.08 555.264 1169.31C554.379 1177.23 554.329 1177.26 549.377 1172.6C545.439 1168.9 544.781 1163.21 546.264 1145.73C550.053 1101.06 550.331 1060.78 547.225 1006.37C544.123 952.074 543.825 950.397 534.954 937.696L525.861 924.674L502.234 916.181C489.238 911.509 468.899 905.723 457.035 903.324C410.052 893.827 348.433 871.547 335.839 859.503C330.617 854.509 332.247 854.261 361.041 855.681C379.558 856.593 399.914 859.755 412.13 863.618C458.619 878.315 529.042 897.866 530.377 896.445C534.927 891.604 517.352 879.49 502.438 877.187C498.244 876.542 480.183 870.86 462.309 864.566C428.861 852.786 393.378 843.302 356.591 836.309C328.796 831.025 294.966 817.356 299.018 813.045C301.535 810.366 331.948 808.544 350.194 809.977C378.625 812.213 412.75 820.998 463.383 839.115C510.741 856.059 522.979 858.667 522.945 851.811C522.928 848.468 520.069 846.197 508.83 840.6C501.078 836.739 490.889 832.77 486.185 831.778C481.482 830.79 473.6 827.951 468.668 825.473C456.058 819.132 388.752 800.36 342.399 790.254C318.491 785.042 284.72 772.086 273.636 763.876C268.68 760.202 265.211 756.575 265.927 755.814C268.998 752.546 303.619 751.379 318.515 754.041C338.836 757.676 388.733 773.726 430.075 789.928C486.298 811.964 519.539 819.238 518.563 809.296C518.056 804.125 497.329 793.281 480.103 789.172C474.163 787.755 465.275 784.552 460.35 782.054C455.426 779.557 447.052 776.711 441.739 775.732C421.504 771.999 300.569 725.781 276.245 712.484C261.631 704.494 246.81 691.751 249.189 689.22C254.511 683.558 302.55 693.224 337.48 706.985C349.162 711.589 365.56 718.027 373.917 721.293C382.274 724.559 403.867 733.234 421.901 740.573C439.936 747.91 468.285 759.07 484.901 765.377C511.046 775.295 515.108 776.153 515.086 771.755C515.037 761.482 493.172 750.267 423.512 724.791C396.456 714.895 364.765 702.494 353.09 697.233C341.414 691.972 323.999 685.551 314.392 682.964C281.491 674.102 222.604 645.93 221.93 638.729C221.591 635.103 266.703 638.203 286.658 643.179C301.852 646.967 373.155 674.372 393.596 684.277C409.981 692.22 485.015 721.399 493.874 723.274C503.993 725.417 508.222 722.276 504.18 715.617C500.724 709.924 477.62 697.516 465.81 695.009C461.112 694.012 448.474 689.393 437.725 684.741C426.974 680.092 414.674 675.475 410.391 674.486C406.106 673.494 398.676 671.437 393.876 669.912C389.075 668.389 363.804 660.915 337.718 653.302C243.781 625.893 221.968 618.207 209.574 608.144C203.14 602.92 198.815 598.129 199.694 597.194C202.543 594.163 245.188 599.731 272.543 606.704C287.373 610.482 320.514 621.066 346.189 630.221C415.943 655.09 491.459 676.609 495.159 672.673C498.584 669.028 490.408 660.663 481.902 659.11C477.195 658.251 470.553 656.029 467.146 654.172C463.736 652.315 456.115 649.608 450.208 648.156C437.37 645.004 425.1 641.549 399.429 633.86C382.539 628.802 345.729 619.538 260.436 598.879C222.621 589.72 200.955 581.399 193.407 573.133L186.913 566.019L201.752 565.42C209.912 565.088 215.387 564.363 213.918 563.808C186.74 553.508 177.83 549.491 170.237 544.122C165.248 540.597 161.683 537.16 162.316 536.486C162.949 535.813 169.199 534.435 176.206 533.426C198.147 530.265 233.419 533.562 266.776 541.894C311.717 553.118 338.448 558.971 393.647 569.677C460.024 582.552 463.583 583.026 463.18 578.925C462.768 574.722 438.162 565.563 420.701 563.117C408.877 561.458 389.38 558.209 347.126 550.851C334.63 548.673 312.031 543.892 296.907 540.223C281.785 536.555 257.048 531.128 241.936 528.165C209.786 521.86 174.575 510.315 155.483 499.818C138.384 490.421 133.97 486.263 137.31 482.709C139.168 480.732 138.571 479.269 135.309 477.805C125.529 473.421 115.806 465.399 117.756 463.324C123.318 457.405 176.801 462.997 259.095 478.103C330.373 491.186 414.856 500.89 419.011 496.469C422.878 492.354 414.755 487.175 399.878 484.272C392.152 482.766 367.938 479.704 346.065 477.468C203.249 462.877 163.66 456.931 130.298 445.063C106.482 436.591 80.6344 423.56 80.2697 419.844C79.8729 415.801 93.7597 413.911 115.683 415.025C143.083 416.416 147.231 417.038 203.669 428.179C263.456 439.983 298.541 444.709 341.818 446.788C376.74 448.467 386.508 447 385.839 440.184C385.341 435.115 372.156 431.077 349.631 429.101C339.323 428.197 326.487 426.714 321.105 425.809C306.684 423.381 241.545 417.322 194.594 414.041C127.52 409.351 69.3123 397.541 57.055 386.131C53.6726 382.981 53.9507 382.661 62.1838 380.247C85.2369 373.487 114.08 374.107 169.742 382.564C183.979 384.726 209.759 387.737 227.032 389.253C244.303 390.771 269.138 393.284 282.22 394.839C316.74 398.939 354.353 400.481 356.786 397.891C359.8 394.685 352.134 388.316 342.464 385.993C333.912 383.939 299.778 380.453 213.643 372.837C134.035 365.8 98.7894 355.446 45.2966 323.387C37.9879 319.006 29.9355 314.559 27.4034 313.508C23.216 311.766 23.941 311.083 35.4228 305.948C42.366 302.84 50.916 300.427 54.4232 300.582C57.9289 300.738 76.3949 305.695 95.4603 311.602C151.761 329.042 179.698 335.613 232.843 343.907C297.387 353.982 325.296 356.103 328.153 351.157C331.694 345.027 323.214 341.389 299.106 338.69C286.887 337.322 265.154 333.317 250.807 329.794C236.459 326.27 210.107 319.946 192.246 315.739C122.151 299.232 54.9503 270.166 14.9914 239.077L0.810033 228.041L15.4961 228.359C23.5753 228.532 35.5672 229.82 42.1499 231.22C56.4682 234.264 57.3619 232.61 44.3931 227.064C35.7061 223.35 0.25638 198.245 0.00117615 195.627C-0.182942 193.769 22.6209 194.895 48.4322 198.021C72.7122 200.96 96.7341 208.542 169.776 236.315C215.069 253.538 246.804 261.707 251.015 257.227C252.635 255.503 252.823 253.04 251.434 251.757C249.113 249.616 212.995 236.641 102.471 198.245C60.7415 183.75 39.924 173.051 14.594 153.087L1.5755 142.824L21.1251 144.128C44.6261 145.698 79.8938 152.512 99.4447 159.264C107.286 161.973 129.308 170.956 148.382 179.226C167.457 187.497 184.717 193.927 186.737 193.514C194.518 191.927 189.113 185.902 162.472 166.464C123.085 137.728 81.068 95.8539 69.8697 74.177C58.0423 51.2844 61.7676 50.4877 93.5055 69.1238C130.605 90.9057 161.479 118.129 194.568 158.225C208.093 174.617 220.282 188.322 221.656 188.685C233.345 191.782 222.606 170.633 188.296 123.003C144.683 62.4502 127.947 33.4618 123.973 11.5741C122.879 5.54773 123.324 0.343611 124.959 0.0105575C128.743 -0.760453 168.545 40.3959 188.883 66.1101C215.073 99.2215 238.701 144.489 262.363 206.878C274.314 238.393 280.233 248.987 286.003 249.194C295.912 249.551 278.372 195.744 253.646 149.929C248.719 140.803 239.855 123.708 233.943 111.941C216.995 78.1941 189.287 36.4848 176.324 25.2137C170.191 19.879 192.708 23.1101 207.08 29.6266C220.096 35.5271 230.104 47.4102 252.177 83.1663C279.187 126.925 309.134 212.947 315.778 265.856C319.173 292.885 323.276 304.933 327.544 300.392C331.977 295.675 324.831 226.464 317.242 200.618C311.007 179.383 270.619 84.266 257.141 59.0749C246.547 39.2708 234.353 5.67106 236.813 3.05394C239.726 -0.0455471 264.439 24.1718 282.372 47.6984C287.446 54.3569 287.808 54.4859 286.032 48.9846C281.949 36.3437 279.282 22.1725 280.7 20.664C282.65 18.5889 317.853 55.8163 332.732 75.6869C339.148 84.2538 348.269 99.8693 353.005 110.385C359.279 124.323 363.748 131.135 369.501 135.528C389.272 150.631 413.088 200.73 421.146 244.165C430.496 294.584 429.325 349.582 417.794 401.706C412.928 423.696 413.709 430.062 421.216 429.631C426.394 429.335 434.679 411.126 435.648 397.909C435.979 393.397 436.602 389.33 437.032 388.872C438.372 387.446 442.559 357.333 442.771 347.598C442.881 342.505 443.698 337.568 444.587 336.623C445.476 335.677 446.067 326.399 445.899 316.003C445.732 305.606 446.272 291.535 447.1 284.735C449.625 263.974 444.368 205.148 437.716 179.722C430.696 152.884 419.85 131.918 408.958 124.126C402.093 119.217 402.073 119.102 408.548 121.762C420.656 126.74 448.567 151.63 455.339 163.488C481.025 208.474 485.068 289.141 465.699 370.23C461.596 387.417 455.764 408.816 452.74 417.784C443.56 445.012 438.783 469.028 441.775 472.911C446.682 479.277 452.516 472.976 460.271 452.941C477.085 409.489 479.824 401.004 481.573 386.953C482.576 378.877 486.527 359.601 490.351 344.117C494.175 328.634 498.26 308.689 499.43 299.795C505.819 251.259 509.381 217.08 509.085 207.166C508.791 197.398 513.409 170.954 515.862 168.344C517.872 166.205 522.535 173.438 529.223 189.063C543.352 222.074 541.031 260.383 519.094 356.266C507.97 404.89 492.629 456.03 481.213 482.534C469.882 508.85 467.662 517.699 471.493 521.299C477.071 526.542 481.552 520.528 500.447 482.442C529.717 423.449 535.587 407.276 561.429 314.464C571.249 279.196 579.235 258.497 587.939 245.743C595.899 234.083 599.17 236.92 602.661 258.499ZM324.805 125.552C330.634 139.851 337.564 158.702 340.203 167.445C349.105 196.927 360.037 233.666 365.048 250.945C369.683 266.922 372.658 317.404 369.634 328.724C366.279 341.269 361.227 346.058 355.422 342.191C352.757 340.416 351.795 330.419 352.464 311.368C354.748 245.982 340.697 172.948 312.78 105.096C310.248 98.9475 309.535 95.185 311.193 96.7366C312.851 98.2882 318.976 111.256 324.805 125.552ZM391.071 225.58C401.073 261.315 404.362 282.493 408.286 336.363C410.062 360.73 401.73 392.472 393.636 392.182C386.638 391.931 385.529 383.578 389.755 362.916C398.877 318.317 398.612 278.579 388.885 231.45C380.527 190.96 381.015 189.645 391.071 225.58ZM294.611 303.281C291.563 306.524 281.252 305.333 246.908 297.769C217.864 291.374 201.691 286.418 164.793 272.605C145.929 265.543 151.347 264.705 171.423 271.578C184.817 276.165 238.505 288.27 277.9 295.583C295.909 298.925 297.858 299.825 294.611 303.281ZM444.072 538.129C443.259 538.994 437.401 539.183 431.053 538.549C417.634 537.209 344.441 523.194 331.308 519.451C321.012 516.516 357.575 518.495 378.543 522.008C385.975 523.256 402.163 525.223 414.512 526.383C434.536 528.265 448.23 533.705 444.072 538.129ZM480.347 622.104C480.125 623.703 475.882 624.713 470.921 624.348C461.176 623.633 382.046 602.767 358.735 594.766C350.88 592.072 340.231 588.934 335.068 587.795C329.904 586.658 324.796 584.907 323.718 583.904C322.637 582.9 332.553 584.354 345.751 587.135C358.951 589.915 375.147 592.874 381.746 593.711C400.752 596.12 438.541 604.821 462.852 612.381C480.676 617.924 480.917 618.058 480.347 622.104Z" fill="#155971" fill-opacity="0.04"/>
</svg>
