<svg width="178" height="255" viewBox="0 0 178 255" fill="none" xmlns="http://www.w3.org/2000/svg">
<path fill-rule="evenodd" clip-rule="evenodd" d="M148.515 251.22C158.192 242.812 164.544 229.977 177.815 192.024C181.602 181.194 184.743 171.699 184.795 170.923C184.945 168.698 193.841 143.882 195.276 141.688C196.993 139.061 198.07 140.117 197.798 144.163C197.493 148.689 191.118 176.847 188.076 187.107C184.977 197.556 179.166 213.03 174.006 224.578C167.711 238.667 163.651 251.505 165.478 251.542C167.956 251.592 177.336 240.033 182.593 230.451C188.278 220.086 195.859 193.871 201.018 166.735C206.749 136.588 208.24 131.408 210.181 134.901C211.371 137.041 211.188 139.513 208.793 153.699C207.713 160.09 205.833 171.963 204.613 180.084C203.393 188.205 201.062 200.862 199.433 208.21C196.457 221.626 195.07 233.341 195.787 238.999L196.172 242.037L198.168 240.186C200.799 237.745 206.062 228.001 208.048 221.893C210.715 213.691 212.583 198.797 215.301 164.08C216.732 145.781 218.159 129.885 218.469 128.754C218.838 127.413 219.502 126.833 220.378 127.086C222.249 127.627 222.431 131.202 221.845 155.933C221.454 172.44 220.914 180.273 219.405 191.266C217.493 205.188 215.996 230.898 217.019 232.223C217.794 233.228 220.515 229.485 224.38 222.091L227.804 215.542L229.213 193.49C230.023 180.818 230.543 163.936 230.435 153.799C230.11 123.249 230.292 118.536 231.791 118.636C233.249 118.734 233.303 119.005 234.623 132.838C235.148 138.342 236.291 150.28 237.164 159.366C238.037 168.453 239.419 179.917 240.235 184.841C241.695 193.655 247.927 214.635 249.107 214.715C250.297 214.795 252.824 206.409 253.173 201.221C253.427 197.442 252.665 191.576 250.497 180.637C248.829 172.223 246.384 157.945 245.064 148.907C242.709 132.78 241.113 111.009 242.165 109.359C243.218 107.71 245.551 108.761 246.378 111.256C247.506 114.662 249.535 127.44 251.417 143.007C253.253 158.186 255.95 176.461 257.48 184.092C258.505 189.197 262.981 200.635 264.401 201.777C265.487 202.649 266.736 195.892 267.379 185.662C267.972 176.231 267.852 175.084 264.864 161.538C259.276 136.201 256.828 123.512 255.217 111.533C253.876 101.56 253.815 99.6074 254.816 98.6198C255.817 97.6313 256.093 97.7168 256.644 99.1856C257.325 101.005 259.339 114.768 259.832 120.974C261.741 145.005 270.231 182.77 274.123 184.543C275.501 185.169 276.567 180.697 277.04 172.301C277.485 164.431 276.021 156.598 269.174 130.19C266.236 118.856 262.078 91.5107 263.135 90.4626C264.412 89.1954 265.677 92.0112 267.228 99.583C270.004 113.132 277.062 142.23 279.064 148.377C281.109 154.663 289.432 171.282 290.588 171.389C291.618 171.484 291.802 163.059 290.893 157.377C290.414 154.382 288.968 148.606 287.681 144.542C281.182 124.034 271.304 87.7968 271.238 84.2281C271.135 78.6213 273.655 83.2309 278.488 97.4939C284.49 115.205 289.27 126.217 295.181 135.947C299.002 142.237 304.271 147.882 305.337 146.828C306.897 145.288 300.501 125.807 292.983 109.193C288.788 99.9259 281.466 79.3107 281.068 75.6529C280.486 70.2886 283.048 73.4738 286.011 81.7995C291.472 97.1415 299.092 113.308 303.833 119.606C308.511 125.821 311.483 127.576 310.805 123.725C310.103 119.738 305.429 107.754 301.681 100.335C299.596 96.2072 297.618 91.7977 297.286 90.536C296.954 89.2744 295.157 84.8761 293.291 80.7615C288.776 70.7983 288.236 67.4563 290.025 60.5168C291.394 55.2043 291.754 54.7295 304.578 41.2628C315.565 29.7255 329.871 12.3531 336.543 2.44899C338.085 0.159088 338.082 0.138092 336.115 0.00580408C334.551 -0.0993726 333.192 1.19671 329.693 6.12741C320.756 18.7229 312.088 29.2339 299.707 42.49C287.349 55.7186 286.929 56.0727 282.46 56.9663L277.88 57.883L271.466 53.6993C267.937 51.3983 262.746 47.4017 259.928 44.8177C248.773 34.5832 232.016 23.7062 226.969 23.4237C224.877 23.3064 225.139 23.8113 231.022 31.2234C234.806 35.9904 239.433 40.6712 242.635 42.9711C254.82 51.7246 272.692 65.6876 272.643 66.4165C272.476 68.9001 266.449 67.2898 263.062 63.8566C262.11 62.8905 257.382 59.4828 252.558 56.2838C243.53 50.298 234.605 43.1677 225.966 35.0396C219.439 28.8986 209.928 23.2989 209.78 25.5108C209.687 26.8849 215.182 35.5744 219.026 40.133C225.016 47.2359 233.527 54.1802 247.256 63.1676C260.096 71.5738 263.03 74.2046 261.539 75.9718C260.812 76.8332 259.767 76.649 256.378 75.0625C254.041 73.9679 251.208 72.2433 250.083 71.2293C248.958 70.2145 246.817 68.8203 245.325 68.1297C241.51 66.3653 224.411 53.0428 213.246 43.1367C207.488 38.0272 198.142 32.2588 194.218 31.391C192.463 31.0036 191.006 31.0059 190.98 31.3964C190.867 33.0729 197.319 42.7297 200.78 46.0649C205.502 50.6139 218.641 59.9377 230.155 66.9105C245.815 76.393 253.827 83.49 251.486 85.8021C250.268 87.0047 243.906 84.2139 239.68 80.6239C238.223 79.386 235.808 77.8144 234.314 77.1308C232.819 76.4472 230.581 74.9218 229.341 73.7401C224.613 69.2396 191.186 48.5373 183.596 45.4099C179.036 43.5312 173.407 42.828 173.32 44.1265C173.124 47.0313 184.521 57.5071 194.265 63.38C197.524 65.3438 202.093 68.1063 204.419 69.5183C206.744 70.9303 212.805 74.5171 217.886 77.4884C222.967 80.4607 230.874 85.2292 235.457 88.0848C242.668 92.5797 243.64 93.455 242.684 94.5884C240.45 97.2368 233.787 94.2341 214.781 82.0126C207.399 77.2657 198.576 71.9158 195.176 70.1242C191.776 68.3325 187.013 65.2904 184.592 63.3649C176.302 56.7708 158.798 48.1585 157.108 49.8419C156.258 50.6895 165.665 62.0756 170.607 66.1783C174.37 69.3023 194.112 81.4685 200.216 84.4254C205.108 86.7947 225.957 99.5089 228.079 101.417C230.503 103.596 230.642 105.552 228.417 106.185C226.515 106.726 219.354 103.698 216.524 101.157C215.399 100.146 211.951 97.9277 208.862 96.2285C205.773 94.5283 202.392 92.4008 201.348 91.4998C200.304 90.5989 198.419 89.1243 197.16 88.2225C195.9 87.3197 189.387 82.4279 182.687 77.3518C158.561 59.0712 152.672 55.1687 148.093 54.4268C145.716 54.0419 143.841 54.1146 143.809 54.5942C143.704 56.1492 153.169 66.2293 159.976 71.8143C163.666 74.8421 172.376 81.055 179.331 85.6203C198.224 98.0249 217.508 112.854 217.372 114.873C217.246 116.743 213.851 116.701 211.868 114.805C210.77 113.756 209.003 112.537 207.941 112.098C206.879 111.657 204.817 110.299 203.358 109.079C200.19 106.427 197.065 104.007 190.429 99.0627C186.063 95.8095 176.928 88.2637 155.937 70.57C146.631 62.7252 140.633 59.0269 137.382 59.1291L134.584 59.2175L137.328 63.3821C138.837 65.6729 139.74 67.34 139.335 67.0868C131.841 62.412 129.246 61.0451 126.613 60.3844C124.884 59.9499 123.449 59.8769 123.426 60.2224C123.403 60.568 124.315 62.6135 125.454 64.7682C129.018 71.5155 136.563 80.1918 144.827 87.0464C155.96 96.2814 162.405 101.988 175.413 114.128C191.055 128.728 191.847 129.567 190.881 130.52C189.891 131.498 183.143 127.222 179.232 123.138C176.583 120.373 172.103 115.947 162.327 106.436C159.435 103.624 154.024 98.7563 150.3 95.6205C146.578 92.4847 140.612 87.2067 137.044 83.8915C129.452 76.8382 120.134 70.3149 114.164 67.8759C108.817 65.6904 107.062 65.575 106.94 67.3981C106.872 68.4123 106.439 68.63 105.49 68.1278C102.647 66.6213 99.0272 66.0723 98.9556 67.1368C98.7514 70.173 110.32 83.175 129.528 101.497C146.164 117.367 164.626 137.68 164.474 139.948C164.332 142.059 161.637 141.206 158.128 137.938C156.305 136.241 150.953 130.491 146.233 125.161C115.416 90.3525 106.461 81.1962 97.4309 75.2565C90.9841 71.0164 83.157 67.4084 82.2819 68.2724C81.3297 69.2127 83.6097 73.4545 88.0966 79.0896C93.7042 86.1324 94.6423 87.0922 107.984 99.4552C122.119 112.551 129.937 120.807 138.768 131.961C145.894 140.962 147.468 143.981 145.863 145.567C144.669 146.745 141.242 144.229 136.451 138.655C134.259 136.104 131.452 133.02 130.214 131.8C126.896 128.532 112.969 112.502 103.166 100.666C89.1605 83.7577 75.3309 71.0898 70.4865 70.7341C69.1497 70.6361 69.1342 70.7941 70.206 73.644C73.2068 81.6243 78.9268 89.2568 91.5376 102.106C94.7629 105.392 100.407 111.578 104.081 115.852C107.754 120.125 113.108 126.185 115.978 129.317C123.551 137.582 131.169 147.345 131.08 148.673C130.969 150.318 128.105 149.897 125.73 147.886C123.629 146.108 116.264 137.788 97.9335 116.487C80.9928 96.8008 71.9252 89.9601 54.6244 83.8121C52.2603 82.9724 49.7382 81.9485 49.0201 81.5368C47.832 80.8567 47.8245 81.2295 48.9363 85.6622C49.6081 88.3433 50.7414 91.2787 51.4541 92.1862C52.1669 93.0929 56.8164 96.7981 61.7876 100.419C76.4669 111.113 83.3001 116.959 95.388 129.17C110.069 144 115.933 150.991 115.416 153.044C114.774 155.589 112.344 154.241 107.091 148.426C104.429 145.479 99.3525 140.644 95.811 137.68C92.2695 134.717 85.7968 129.235 81.427 125.498C64.278 110.836 44.9708 100.208 30.5008 97.466L25.3651 96.4932L28.278 100.379C29.8802 102.517 32.4813 105.424 34.0592 106.84C37.4913 109.92 37.3062 110.59 33.594 108.522C31.1074 107.137 18.8066 104.063 18.1903 104.672C17.7524 105.104 22.4122 110.974 28.0878 117.138C33.4262 122.937 39.72 127.463 59.8788 140.004C72.3795 147.779 80.2941 154.238 80.1395 156.536C80.08 157.421 79.5832 158.11 79.0364 158.067C78.1234 157.994 68.3195 151.597 38.6017 131.681C27.3817 124.161 21.0338 121.308 11.8058 119.636L7.06246 118.777L11.1309 123.722C16.0219 129.665 24.3272 137.429 29.5756 140.962C31.6808 142.379 37.8905 146.002 43.3748 149.013C48.86 152.024 53.5947 155.022 53.8964 155.675C55.0596 158.189 52.7083 158.289 43.3405 156.127C29.4908 152.929 12.2873 152.424 5.42522 155.015C-1.82191 157.75 -1.27296 158.963 8.90851 162.71C20.8093 167.091 32.6829 168.38 47.7724 166.933C53.9408 166.341 59.2688 166.084 59.6135 166.361C62.5477 168.717 55.8889 171.295 38.9315 174.364C17.3746 178.267 7.85716 181.255 2.34842 185.852C0.831778 187.117 -0.208788 188.586 0.0357425 189.114C0.601692 190.336 17.2208 190.428 26.727 189.261C38.9683 187.76 53.3452 182.416 71.4358 172.647C80.5737 167.711 84.0139 166.566 85.1761 168.071C87.1724 170.656 72.1255 179.857 57.4173 185.045C54.4872 186.078 49.0692 188.112 45.3764 189.563C34.7877 193.727 20.3909 197.046 15.4401 196.463C13.0973 196.188 18.1576 201.435 22.3517 203.63C26.1501 205.618 30.6611 205.244 42.6776 201.944C57.3829 197.906 81.8076 183.712 94.5499 171.8C101.06 165.715 104.463 163.702 104.306 166.032C104.144 168.451 87.7744 184.451 80.7085 189.097C74.9033 192.913 46.4873 206.643 38.4228 209.527C32.0832 211.795 22.4469 217.205 22.3565 218.548C22.2496 220.138 32.2791 220.541 40.8458 219.292C43.2702 218.938 43.3683 219.002 41.8332 219.947C38.3055 222.119 34.7207 225.07 34.6687 225.844C34.5971 226.908 49.4749 226.775 56.6587 225.648C59.7561 225.162 64.9035 223.581 68.0974 222.136C72.3304 220.221 74.6708 219.663 76.7361 220.079C83.8351 221.509 99.2946 214.965 110.259 205.889C122.987 195.354 134.668 180.789 143.72 164.169C147.539 157.158 149.069 155.719 150.429 157.859C151.368 159.335 149.03 166.291 146.356 169.977C145.443 171.236 144.683 172.457 144.667 172.692C144.618 173.424 138.909 182.357 136.842 184.936C135.761 186.285 134.85 187.785 134.818 188.27C134.785 188.755 132.891 191.318 130.607 193.966C128.324 196.615 125.382 200.406 124.07 202.391C120.064 208.452 106.309 222.272 99.5156 227.062C92.3452 232.118 85.7051 234.619 81.9088 233.695C79.5163 233.111 79.4875 233.136 81.3174 234.196C84.74 236.178 95.5345 237.271 99.4133 236.029C114.128 231.315 132.377 211.509 146.183 185.267C149.11 179.706 152.613 172.587 153.969 169.446C158.087 159.912 162.362 152.399 163.782 152.202C166.11 151.878 165.876 155.087 163.04 162.373C156.888 178.173 155.581 181.111 152.878 185.224C151.323 187.587 147.915 193.649 145.303 198.693C142.691 203.738 139.164 210.009 137.465 212.629C128.193 226.929 121.483 236.747 119.279 239.235C117.107 241.686 112.276 249.785 112.186 251.124C112.112 252.221 114.581 251.607 119.259 249.366C129.143 244.632 136.988 234.08 153.5 203.312C161.873 187.709 169.975 170.316 173.503 160.365C177.006 150.485 178.492 147.593 180.014 147.696C182.229 147.845 181.795 150.613 177.208 165.586C170.103 188.777 167.738 194.554 152.648 225.58C146.914 237.371 143.978 244.891 142.903 250.547C141.92 255.718 143.167 255.868 148.515 251.22ZM65.92 210.587C70.1449 208.458 75.5686 205.447 77.9727 203.894C86.08 198.662 96.1517 192.098 100.864 188.975C105.22 186.088 116.727 173.814 118.592 170.064C120.658 165.908 120.717 163.302 118.755 162.735C117.855 162.475 115.504 164.805 111.509 169.921C97.7939 187.478 79.2599 202.603 59.1622 212.638C57.3407 213.546 56.3878 214.328 57.0449 214.374C57.702 214.42 61.6959 212.716 65.92 210.587ZM100.411 202.578C110.085 196.022 115.308 191.425 127.731 178.529C133.351 172.696 138.61 162.221 136.98 160.109C135.57 158.283 133.547 160.148 129.892 166.642C122.002 180.662 113.347 190.885 101.259 200.466C90.8734 208.698 90.6832 209.171 100.411 202.578ZM98.5538 156.385C98.6657 154.721 96.411 152.243 88.1222 144.923C81.113 138.733 76.9076 135.647 66.7711 129.256C61.5889 125.988 62.4568 127.669 67.833 131.313C71.4199 133.744 84.4382 145.114 93.6511 153.864C97.8622 157.864 98.4346 158.157 98.5538 156.385ZM178.347 135.926C178.377 135.483 177.284 133.851 175.917 132.3C173.028 129.021 155.819 112.875 152.465 110.297C149.836 108.275 157.345 117.642 162.166 122.397C163.876 124.082 167.437 127.946 170.08 130.982C174.365 135.905 178.195 138.196 178.347 135.926ZM203.554 123.972C203.858 123.498 203.255 122.09 202.215 120.844C200.173 118.396 180.331 102.421 174.084 98.1956C171.979 96.7713 169.237 94.7067 167.991 93.6068C166.745 92.5061 165.376 91.5797 164.95 91.5483C164.524 91.516 166.759 93.8186 169.917 96.6642C173.075 99.5107 176.852 103.12 178.311 104.686C182.514 109.198 191.716 117.154 198.061 121.764C202.713 125.144 202.789 125.174 203.554 123.972Z" fill="#155971" fill-opacity="0.08"/>
</svg>
