<svg width="375" height="494" viewBox="0 0 375 494" fill="none" xmlns="http://www.w3.org/2000/svg">
<path fill-rule="evenodd" clip-rule="evenodd" d="M90.8906 7.52557C75.1124 24.4445 66.1359 48.6791 49.4888 119.303C44.737 139.456 40.8938 157.091 40.9467 158.493C41.0984 162.513 29.8198 208.734 27.6601 212.942C25.0748 217.982 22.9419 216.288 22.666 208.976C22.3574 200.796 28.4794 149.055 32.0019 130.066C35.589 110.727 43.0945 81.857 50.174 60.1567C58.8108 33.6824 63.6726 9.87344 60.3857 10.1522C55.9289 10.5305 41.2789 33.049 33.6546 51.2386C25.4087 70.9159 16.7544 119.397 12.622 169.073C8.03151 224.262 6.33401 233.841 2.191 227.939C-0.348952 224.322 -0.487348 219.852 1.13168 193.939C1.86202 182.265 2.99397 160.6 3.64937 145.794C4.30331 130.989 6.09703 107.833 7.63235 94.3375C10.4384 69.6972 10.7152 48.4084 8.35895 38.389L7.0948 33.0096L3.86202 36.71C-0.399079 41.5878 -8.00375 60.0698 -10.4149 71.4075C-13.6513 86.6317 -14.191 113.714 -12.5099 176.537C-11.6225 209.649 -11.1789 238.449 -11.5226 240.537C-11.9309 243.013 -13.013 244.179 -14.6344 243.89C-18.0935 243.273 -19.0956 236.892 -22.7166 192.395C-25.1333 162.696 -25.6431 148.535 -25.0112 128.519C-24.2099 103.173 -26.3797 56.7466 -28.4677 54.5613C-30.0484 52.9042 -34.2236 60.1372 -39.764 74.1371L-44.6726 86.5382L-43.0353 126.382C-42.095 149.278 -39.8379 179.675 -37.7292 197.848C-31.3749 252.616 -30.8108 261.109 -33.5204 261.212C-36.1566 261.311 -36.3043 260.836 -41.286 236.259C-43.2684 226.479 -47.5751 205.27 -50.8587 189.128C-54.1409 172.983 -58.7873 152.67 -61.1825 143.986C-65.4686 128.443 -80.6157 91.9663 -82.7494 92.0468C-84.9004 92.1279 -87.8514 107.656 -87.4976 117.032C-87.2399 123.863 -84.7633 134.246 -78.8056 153.469C-74.2222 168.255 -67.1378 193.42 -63.0619 209.391C-55.7882 237.891 -48.8105 276.661 -50.3868 279.822C-51.9647 282.981 -56.3504 281.535 -58.3071 277.213C-60.975 271.313 -67.0294 248.763 -73.3485 221.18C-79.5106 194.286 -87.8039 161.995 -91.9921 148.589C-94.7945 139.62 -104.99 119.937 -107.755 118.157C-109.868 116.796 -110.833 129.16 -110.055 147.641C-109.337 164.679 -108.906 166.715 -100.984 190.462C-86.167 234.88 -79.3763 257.191 -74.2224 278.385C-69.9319 296.031 -69.454 299.525 -71.0641 301.486C-72.6741 303.449 -73.1854 303.348 -74.4502 300.816C-76.0162 297.679 -82.231 273.358 -84.2886 262.313C-92.2548 219.545 -114.627 153.37 -121.946 150.924C-124.538 150.059 -125.606 158.287 -124.869 173.446C-124.18 187.654 -120.075 201.435 -102.797 247.538C-95.3817 267.325 -82.7547 315.617 -84.4525 317.698C-86.5059 320.213 -89.3073 315.399 -93.5217 302.102C-101.063 278.31 -119.228 227.42 -123.982 216.765C-128.841 205.871 -146.917 177.616 -149.011 177.642C-150.879 177.666 -149.617 192.821 -146.913 202.847C-145.486 208.132 -141.801 218.225 -138.723 225.276C-123.185 260.855 -98.6103 324.025 -97.8183 330.418C-96.5743 340.461 -101.967 332.664 -113.335 307.979C-127.454 277.325 -138.113 258.465 -150.559 242.119C-158.606 231.551 -169.128 222.416 -170.843 224.509C-173.351 227.568 -158.193 261.322 -141.56 289.72C-132.281 305.56 -115.245 341.175 -113.841 347.665C-111.783 357.183 -116.982 351.95 -123.873 337.567C-136.572 311.064 -153.302 283.49 -163.001 273.081C-172.571 262.811 -178.236 260.222 -176.291 267.006C-174.279 274.03 -163.626 294.654 -155.498 307.262C-150.976 314.275 -146.594 321.816 -145.76 324.018C-144.925 326.219 -140.868 333.773 -136.743 340.806C-126.756 357.834 -125.157 363.73 -127.056 376.523C-128.511 386.316 -129.066 387.236 -149.538 413.828C-167.078 436.61 -189.471 470.492 -199.574 489.527C-201.909 493.929 -201.899 493.966 -198.345 493.831C-195.518 493.725 -193.323 491.142 -187.975 481.632C-174.315 457.338 -160.744 436.835 -141.027 410.705C-121.348 384.629 -120.66 383.914 -112.809 381.466L-104.762 378.955L-92.4593 385.252C-85.6919 388.715 -75.6193 394.907 -70.0749 399.013C-48.121 415.274 -15.9915 431.63 -6.88023 431.183C-3.10242 430.998 -3.66822 430.142 -15.6281 417.95C-23.319 410.11 -32.5077 402.583 -38.689 399.06C-62.2121 385.652 -96.9245 363.968 -96.9742 362.651C-97.1436 358.161 -86.0231 359.913 -79.2963 365.435C-77.4051 366.989 -68.276 372.212 -59.0132 377.042C-41.6789 386.079 -24.314 397.19 -7.27455 410.146C5.59966 419.935 23.7276 428.188 23.5768 424.19C23.4831 421.707 11.9789 407.149 4.21888 399.694C-7.87362 388.078 -24.4604 377.222 -50.797 363.685C-75.4295 351.024 -81.1939 346.857 -78.8515 343.404C-77.7097 341.72 -75.7986 341.853 -69.4174 344.061C-65.0157 345.584 -59.606 348.144 -57.3942 349.751C-55.1838 351.36 -51.0776 353.457 -48.2703 354.415C-41.09 356.861 -7.88471 377.541 14.0252 393.211C25.3255 401.294 43.1878 409.881 50.3945 410.697C53.6177 411.061 56.2327 410.781 56.2061 410.075C56.0917 407.045 42.6877 390.933 35.8455 385.601C26.5107 378.329 1.1694 364.077 -20.8134 353.737C-50.7094 339.677 -66.4305 328.453 -62.6647 323.861C-60.706 321.473 -48.7611 325.28 -40.4985 330.925C-37.6495 332.871 -33.0186 335.236 -30.2074 336.18C-27.3963 337.125 -23.0917 339.44 -20.6415 341.326C-11.3071 348.51 52.5972 379.351 66.8097 383.53C75.3491 386.04 85.5849 386.239 85.4964 383.892C85.2983 378.642 62.8655 361.993 44.268 353.294C38.0478 350.385 29.3246 346.29 24.8841 344.195C20.4435 342.1 8.88952 336.808 -0.791462 332.435C-10.4725 328.06 -25.5639 320.996 -34.3293 316.737C-48.1195 310.032 -50.0304 308.644 -48.5279 306.429C-45.0191 301.254 -32.494 305.385 3.92641 323.729C18.0727 330.853 34.917 338.789 41.3581 341.362C47.7992 343.935 56.922 348.495 61.6302 351.493C77.7551 361.762 110.797 373.912 113.512 370.572C114.878 368.89 95.8431 350.232 86.1984 343.802C78.8551 338.906 41.1245 320.801 29.612 316.647C20.3827 313.319 -19.4375 294.439 -23.606 291.415C-28.3673 287.962 -28.9862 284.477 -25.1131 282.921C-21.8024 281.59 -8.37785 285.672 -2.81911 289.699C-0.60745 291.301 5.99911 294.63 11.8638 297.097C17.7285 299.564 24.1997 302.744 26.2429 304.164C28.2876 305.584 31.9483 307.874 34.3794 309.255C36.8106 310.637 49.423 318.186 62.4069 326.031C109.161 354.282 120.467 360.173 128.825 360.64C133.164 360.882 136.515 360.397 136.483 359.53C136.377 356.72 117.487 340.416 104.214 331.679C97.019 326.942 80.2135 317.436 66.8695 310.557C30.6176 291.863 -6.79348 268.891 -6.93118 265.241C-7.0587 261.862 -0.958074 261.296 2.9597 264.324C5.12798 266 8.52996 267.854 10.5188 268.442C12.5091 269.031 16.4663 271.079 19.314 272.993C25.5021 277.154 31.5668 280.908 44.4111 288.528C52.8618 293.542 70.6816 305.359 111.697 333.149C129.882 345.47 141.345 350.975 147.161 350.177L152.166 349.49L146.455 342.534C143.314 338.707 141.378 335.886 142.152 336.264C156.485 343.238 161.4 345.201 166.251 345.89C169.437 346.343 172.025 346.203 172.002 345.578C171.978 344.954 169.955 341.455 167.504 337.803C159.832 326.367 144.652 312.22 128.525 301.479C106.799 287.008 94.1554 277.984 68.5157 258.652C37.6834 235.405 36.1039 234.049 37.6573 232.155C39.2494 230.213 52.1687 236.612 59.9596 243.203C65.2363 247.666 74.1117 254.763 93.4542 269.986C99.175 274.487 109.807 282.2 117.082 287.125C124.356 292.049 136.06 300.395 143.09 305.671C158.047 316.896 176.004 326.843 187.179 330.092C197.187 333.005 200.359 332.88 200.235 329.585C200.166 327.752 200.9 327.28 202.698 328.002C208.086 330.169 214.686 330.47 214.614 328.546C214.407 323.058 191.188 301.908 153.253 272.653C120.397 247.314 83.4249 214.345 83.2703 210.246C83.1263 206.431 88.1233 207.452 95.0399 212.654C98.631 215.356 109.323 224.664 118.801 233.339C180.686 289.989 198.487 304.731 215.816 313.685C228.188 320.077 242.917 325.074 244.324 323.358C245.856 321.491 240.962 314.308 231.845 305.042C220.45 293.462 218.585 291.916 192.304 272.248C164.462 251.414 148.872 238.075 130.915 219.723C116.424 204.916 113.029 199.794 115.61 196.646C117.531 194.305 124.157 198.174 133.808 207.273C138.224 211.437 143.844 216.442 146.297 218.397C152.87 223.635 180.894 249.775 200.723 269.165C229.054 296.865 256.267 316.988 265.029 316.712C267.447 316.635 267.445 316.348 264.983 311.436C258.089 297.68 246.382 285.063 221.321 264.384C214.912 259.095 203.613 249.059 196.212 242.082C188.812 235.107 178.059 225.243 172.316 220.165C157.163 206.761 141.647 190.678 141.556 188.277C141.444 185.304 146.663 185.519 151.306 188.68C155.413 191.475 170.203 205.015 207.125 239.781C241.248 271.913 258.815 282.478 291.027 290.243C295.428 291.304 300.148 292.665 301.515 293.268C303.776 294.264 303.719 293.594 300.886 285.848C299.174 281.163 296.585 276.109 295.135 274.615C293.684 273.122 284.639 267.351 275.033 261.791C246.668 245.371 233.299 236.17 209.298 216.538C180.147 192.696 168.302 181.256 168.843 177.473C169.514 172.785 174.129 174.746 184.656 184.19C189.991 188.976 200.015 196.695 206.931 201.344C213.847 205.994 226.499 214.61 235.048 220.49C268.596 243.567 305.255 258.993 331.743 261.181L341.144 261.956L335.182 255.533C331.903 251.998 326.685 247.273 323.586 245.03C316.844 240.15 317.05 238.913 324.103 241.922C328.827 243.938 351.485 247.132 352.476 245.922C353.18 245.065 343.708 235.41 332.357 225.419C321.681 216.02 309.53 209.085 270.981 190.387C247.077 178.792 231.652 168.696 231.495 164.542C231.435 162.943 232.196 161.613 233.186 161.587C234.838 161.544 253.642 171.174 310.74 201.304C332.298 212.681 344.23 216.602 361.108 217.86L369.783 218.505L361.547 210.4C351.646 200.657 335.274 188.291 325.187 182.942C321.141 180.796 309.311 175.467 298.899 171.099C288.486 166.731 279.422 162.245 278.757 161.13C276.195 156.839 280.396 156.214 297.617 158.326C323.078 161.448 354.049 159.104 365.876 153.159C378.366 146.881 377.151 144.808 358.17 140.005C335.984 134.391 314.43 134.32 287.622 139.768C276.663 141.996 267.149 143.464 266.478 143.032C260.767 139.358 272.231 133.474 302.085 124.762C340.037 113.684 356.554 106.523 365.572 97.2329C368.055 94.6749 369.645 91.8427 369.107 90.9411C367.86 88.8544 338.016 91.8291 321.175 95.7188C299.488 100.726 274.695 113.032 244.073 133.984C228.605 144.568 222.647 147.274 220.276 144.791C216.205 140.529 241.473 121.174 266.89 109.084C271.954 106.676 281.293 102.002 287.647 98.7005C305.864 89.2275 331.076 80.551 340.071 80.6612C344.328 80.7123 334.255 72.2513 326.313 69.1044C319.12 66.2534 311.095 67.7778 290.151 75.9692C264.522 85.9955 223.368 116.085 202.749 139.871C192.215 152.021 186.487 156.277 186.328 152.066C186.163 147.692 212.519 115.885 224.323 106.212C234.021 98.266 282.426 68.2568 296.355 61.5566C307.305 56.288 323.578 44.758 323.486 42.3313C323.378 39.4573 305.301 40.628 290.162 44.4893C285.878 45.5826 285.689 45.4855 288.266 43.4989C294.187 38.9348 300.063 32.9618 300.011 31.563C299.938 29.6389 273.261 32.6879 260.581 36.0688C255.114 37.526 246.174 41.3359 240.715 44.5323C233.48 48.7697 229.385 50.2126 225.599 49.8554C212.588 48.6312 186.079 63.2969 168.114 81.6567C147.262 102.969 129.049 131.317 115.942 162.854C110.413 176.16 107.939 179.03 105.093 175.447C103.129 172.975 106.011 160.049 110.114 152.928C111.515 150.497 112.648 148.161 112.632 147.737C112.582 146.415 121.141 129.304 124.363 124.284C126.049 121.659 127.4 118.795 127.367 117.918C127.334 117.041 130.249 112.083 133.847 106.899C137.445 101.714 142.009 94.3542 143.989 90.5431C150.034 78.9087 172.11 51.507 183.397 41.6277C195.311 31.1987 206.755 25.4554 213.743 26.397C218.148 26.9915 218.195 26.9425 214.71 25.3849C208.193 22.4742 188.613 22.5517 181.886 25.5141C156.368 36.7546 127.358 75.7493 107.536 125.453C103.334 135.987 98.3913 149.427 96.5504 155.32C90.9621 173.209 84.7089 187.5 82.1977 188.123C78.0794 189.143 77.8936 183.34 81.6075 169.728C89.6637 140.209 91.4538 134.688 95.5291 126.796C97.8725 122.261 102.845 110.739 106.579 101.191C110.314 91.6443 115.46 79.7229 118.014 74.6994C131.953 47.2823 142.142 28.3949 145.627 23.5122C149.062 18.7031 156.203 3.25508 156.111 0.834897C156.036 -1.14777 151.721 0.420683 143.748 5.32606C126.904 15.6903 114.818 36.1103 90.9953 94.4498C78.9146 124.035 67.6597 156.783 63.2085 175.309C58.7869 193.702 56.6662 199.173 53.9162 199.277C49.9122 199.428 50.1686 194.377 55.5728 166.638C63.9421 123.673 67.0954 112.859 88.3178 54.3231C96.3818 32.0792 100.229 18.0275 101.091 7.67333C101.879 -1.79357 99.6112 -1.82528 90.8906 7.52557ZM246.805 64.848C239.624 69.4678 230.459 75.8971 226.437 79.137C212.875 90.0599 196.039 103.743 188.173 110.238C180.899 116.242 162.567 140.445 159.927 147.527C157.004 155.378 157.391 160.065 161.019 160.712C162.684 161.009 166.462 156.383 172.667 146.446C193.965 112.345 224.371 81.6988 258.546 59.8917C261.643 57.9164 263.206 56.3329 262.018 56.3744C260.83 56.416 253.984 60.2299 246.805 64.848ZM186.415 85.7386C170.291 99.3316 161.786 108.57 141.926 134.062C132.941 145.593 125.481 165.385 128.806 168.868C131.681 171.878 134.96 168.15 140.293 155.803C151.806 129.152 165.408 109.168 185.292 89.6884C202.377 72.9531 202.629 72.0689 186.415 85.7386ZM198.475 168.293C198.588 171.3 203.103 175.321 219.362 186.892C233.111 196.679 241.242 201.423 260.642 210.978C270.56 215.864 268.684 213.011 258.347 207.487C251.45 203.802 225.938 185.854 207.75 171.891C199.437 165.507 198.354 165.089 198.475 168.293ZM59.1306 220.085C59.1608 220.886 61.432 223.609 64.1774 226.134C69.9817 231.473 103.918 257.199 110.424 261.193C115.525 264.325 100.278 248.933 90.7272 241.309C87.3408 238.608 80.2198 232.345 74.9031 227.396C66.2824 219.37 58.9758 215.983 59.1306 220.085ZM16.1485 246.301C15.694 247.209 17.0424 249.623 19.1436 251.662C23.2714 255.67 61.9008 280.592 73.9105 286.996C77.957 289.155 83.2678 292.342 85.7124 294.081C88.1571 295.821 90.788 297.225 91.5585 297.201C92.3304 297.178 87.8837 293.468 81.6781 288.957C75.4724 284.445 68.0112 278.681 65.0968 276.145C56.7024 268.843 38.6837 256.302 26.4252 249.226C17.4372 244.039 17.2959 243.999 16.1485 246.301Z" fill="#155971" fill-opacity="0.04"/>
</svg>
