<svg width="211" height="1176" viewBox="0 0 211 1176" fill="none" xmlns="http://www.w3.org/2000/svg">
<path fill-rule="evenodd" clip-rule="evenodd" d="M-392.452 258.499C-398.767 297.541 -388.34 336.207 -344.36 436.836C-331.812 465.553 -320.381 490.283 -318.96 491.795C-314.885 496.131 -286.65 562.475 -285.698 569.951C-284.557 578.902 -289.23 579.696 -296.642 571.81C-304.933 562.989 -345.836 496.959 -359.025 471.11C-372.456 444.785 -389.434 402.762 -400.14 369.354C-413.202 328.596 -429.101 295.622 -433.532 300.1C-439.539 306.172 -438.868 350.092 -432.31 380.236C-425.212 412.844 -391.056 478.41 -349.291 539.593C-302.89 607.565 -296.123 620.504 -307.709 619.104C-314.81 618.249 -319.298 613.389 -341.851 582.153C-352.01 568.081 -371.183 542.246 -384.455 524.741C-397.729 507.237 -417.386 478.885 -428.143 461.741C-447.778 430.435 -467.813 406.108 -480.795 397.808L-487.765 393.351L-488.834 401.614C-490.244 412.505 -483.376 442.954 -475.942 458.778C-465.958 480.024 -440.74 511.21 -378.049 579.835C-345.004 616.004 -316.733 647.878 -315.22 650.665C-313.427 653.971 -313.854 656.656 -316.449 658.384C-321.986 662.071 -329.542 656.154 -377.419 610.625C-409.374 580.237 -423.692 564.934 -441.997 541.591C-465.176 512.029 -512.83 462.489 -517.912 462.673C-521.761 462.809 -520.788 476.244 -515.271 499.031L-510.386 519.216L-469.81 562.016C-446.494 586.612 -414.097 617.988 -393.643 635.784C-332.003 689.417 -323.046 698.269 -326.82 701.817C-330.493 705.268 -331.16 704.921 -361.866 683.55C-374.084 675.047 -400.593 656.616 -420.778 642.595C-440.962 628.57 -467.097 611.578 -478.854 604.831C-499.896 592.755 -556.55 570.861 -559.523 573.654C-562.519 576.471 -551.836 597.697 -542.332 607.809C-535.408 615.177 -521.904 623.733 -494.942 637.836C-474.201 648.683 -439.926 668.051 -418.774 680.875C-381.028 703.759 -333.848 738.586 -333.068 744.142C-332.292 749.699 -339.947 753.627 -346.892 751.238C-356.367 747.973 -386.661 730.245 -422.163 707.184C-456.78 684.699 -499.621 658.837 -518.473 649.044C-531.085 642.493 -564.546 633.239 -570.206 634.737C-574.532 635.882 -564.047 651.028 -545.199 670.858C-527.823 689.138 -525.252 690.884 -491.141 707.594C-427.337 738.852 -396.221 755.377 -368.515 772.719C-345.449 787.158 -341.413 790.487 -341.832 794.736C-342.249 798.986 -343.077 799.52 -347.315 798.27C-352.563 796.721 -384.786 777.202 -398.326 767.369C-450.755 729.292 -546.237 683.102 -559.044 689.618C-563.579 691.928 -557.209 702.548 -541.609 718.688C-526.99 733.817 -507.896 744.137 -438.959 774.173C-409.372 787.066 -344.98 825.46 -345.41 829.954C-345.931 835.389 -354.556 833.515 -373.339 823.878C-406.95 806.635 -481.75 772.331 -498.77 766.351C-516.169 760.237 -569.121 751.314 -572.088 753.996C-574.735 756.388 -558.387 771.858 -544.901 779.725C-537.79 783.87 -522.837 790.569 -511.672 794.611C-455.319 814.999 -359.573 855.016 -352.307 861.212C-340.891 870.948 -356.081 868.997 -396.019 855.596C-445.616 838.957 -478.949 831.218 -512.425 828.576C-534.068 826.865 -557.874 829.907 -558.316 834.435C-558.966 841.059 -504.908 859.873 -453.883 870.786C-425.42 876.872 -366.891 895.403 -358.656 900.934C-346.582 909.047 -359.034 909.74 -382.686 902.27C-426.27 888.507 -476.645 878.644 -500.495 879.207C-524.029 879.764 -534.611 884.023 -525.322 889.2C-515.705 894.562 -480.686 904.295 -456.97 908.199C-443.776 910.37 -430.276 913.311 -426.971 914.734C-423.666 916.157 -410.618 919.526 -397.973 922.221C-367.358 928.748 -359.414 933.362 -349.852 950.176C-342.532 963.048 -342.443 964.788 -346.185 1020.67C-349.391 1068.55 -348.883 1135.08 -345.055 1169.31C-344.17 1177.23 -344.12 1177.26 -339.168 1172.6C-335.23 1168.9 -334.572 1163.21 -336.055 1145.73C-339.844 1101.06 -340.122 1060.78 -337.016 1006.37C-333.914 952.074 -333.616 950.398 -324.745 937.696L-315.652 924.674L-292.025 916.181C-279.029 911.509 -258.69 905.723 -246.826 903.324C-199.843 893.827 -138.224 871.547 -125.63 859.503C-120.408 854.509 -122.038 854.261 -150.832 855.681C-169.349 856.593 -189.705 859.755 -201.921 863.618C-248.41 878.315 -318.833 897.866 -320.168 896.445C-324.718 891.604 -307.143 879.489 -292.229 877.187C-288.035 876.542 -269.975 870.86 -252.1 864.566C-218.652 852.786 -183.169 843.302 -146.382 836.309C-118.587 831.025 -84.7568 817.356 -88.8089 813.045C-91.3263 810.366 -121.739 808.544 -139.985 809.977C-168.416 812.213 -202.541 820.998 -253.174 839.115C-300.532 856.059 -312.77 858.667 -312.736 851.811C-312.719 848.468 -309.86 846.197 -298.621 840.6C-290.869 836.739 -280.68 832.77 -275.976 831.778C-271.273 830.79 -263.391 827.951 -258.459 825.473C-245.849 819.132 -178.543 800.36 -132.19 790.254C-108.282 785.042 -74.5112 772.086 -63.4275 763.876C-58.4715 760.202 -55.0021 756.575 -55.7175 755.814C-58.7888 752.546 -93.4098 751.378 -108.306 754.041C-128.627 757.676 -178.524 773.726 -219.866 789.928C-276.089 811.964 -309.33 819.238 -308.354 809.296C-307.847 804.125 -287.12 793.281 -269.894 789.172C-263.954 787.755 -255.066 784.552 -250.141 782.054C-245.217 779.557 -236.843 776.711 -231.53 775.732C-211.295 771.999 -90.3605 725.782 -66.0362 712.484C-51.4219 704.494 -36.6014 691.751 -38.9803 689.22C-44.3018 683.558 -92.3415 693.224 -127.271 706.985C-138.953 711.589 -155.351 718.027 -163.708 721.293C-172.065 724.559 -193.658 733.234 -211.692 740.573C-229.727 747.91 -258.076 759.07 -274.692 765.377C-300.837 775.295 -304.899 776.153 -304.877 771.755C-304.828 761.482 -282.963 750.267 -213.303 724.791C-186.247 714.895 -154.556 702.494 -142.881 697.233C-131.205 691.972 -113.79 685.551 -104.183 682.964C-71.2817 674.102 -12.395 645.93 -11.7211 638.729C-11.3816 635.103 -56.4936 638.203 -76.4491 643.179C-91.6433 646.967 -162.946 674.372 -183.387 684.277C-199.772 692.22 -274.806 721.399 -283.665 723.274C-293.784 725.417 -298.013 722.276 -293.971 715.617C-290.515 709.924 -267.411 697.516 -255.601 695.009C-250.903 694.012 -238.265 689.393 -227.516 684.741C-216.765 680.092 -204.465 675.475 -200.182 674.486C-195.897 673.494 -188.467 671.437 -183.667 669.912C-178.866 668.389 -153.595 660.915 -127.509 653.302C-33.5717 625.893 -11.7589 618.207 0.635436 608.144C7.06907 602.92 11.3938 598.129 10.5151 597.194C7.66643 594.163 -34.9786 599.731 -62.3345 606.704C-77.1636 610.482 -110.305 621.066 -135.98 630.221C-205.734 655.09 -281.25 676.609 -284.95 672.673C-288.375 669.028 -280.199 660.663 -271.693 659.11C-266.986 658.251 -260.344 656.029 -256.937 654.172C-253.527 652.315 -245.906 649.608 -239.999 648.156C-227.161 645.004 -214.891 641.549 -189.22 633.86C-172.33 628.802 -135.52 619.538 -50.2272 598.879C-12.4115 589.72 9.25411 581.399 16.802 573.133L23.2956 566.019L8.45734 565.42C0.296636 565.088 -5.17812 564.363 -3.70897 563.808C23.4693 553.508 32.3789 549.491 39.9721 544.122C44.9609 540.597 48.5264 537.16 47.8933 536.486C47.2603 535.813 41.0102 534.435 34.003 533.426C12.0623 530.265 -23.2098 533.562 -56.5673 541.894C-101.508 553.118 -128.239 558.971 -183.438 569.677C-249.815 582.552 -253.374 583.026 -252.971 578.925C-252.559 574.722 -227.953 565.563 -210.492 563.117C-198.668 561.458 -179.171 558.209 -136.917 550.851C-124.421 548.673 -101.822 543.892 -86.6982 540.223C-71.5759 536.555 -46.8387 531.128 -31.7272 528.165C0.422706 521.86 35.634 510.315 54.7257 499.818C71.825 490.421 76.2387 486.263 72.8987 482.709C71.0408 480.732 71.6377 479.269 74.9003 477.805C84.68 473.421 94.4033 465.399 92.4531 463.324C86.8908 457.405 33.4085 462.997 -48.8865 478.103C-120.164 491.186 -204.647 500.89 -208.802 496.469C-212.669 492.354 -204.546 487.175 -189.669 484.272C-181.943 482.766 -157.729 479.704 -135.856 477.468C6.95983 462.877 46.5485 456.931 79.9108 445.063C103.727 436.591 129.575 423.56 129.939 419.844C130.336 415.801 116.449 413.911 94.5261 415.025C67.1261 416.416 62.9776 417.038 6.53999 428.179C-53.2474 439.983 -88.3321 444.709 -131.609 446.788C-166.531 448.467 -176.299 447 -175.63 440.184C-175.132 435.115 -161.947 431.077 -139.422 429.101C-129.114 428.197 -116.278 426.714 -110.896 425.809C-96.4748 423.381 -31.3359 417.322 15.6146 414.041C82.6893 409.351 140.897 397.541 153.154 386.131C156.536 382.981 156.258 382.661 148.025 380.247C124.972 373.487 96.1294 374.107 40.4668 382.564C26.2297 384.726 0.449657 387.737 -16.823 389.253C-34.0939 390.771 -58.9292 393.284 -72.0107 394.839C-106.531 398.939 -144.144 400.48 -146.577 397.891C-149.591 394.685 -141.925 388.316 -132.255 385.993C-123.703 383.939 -89.5688 380.453 -3.43359 372.837C76.1741 365.8 111.42 355.446 164.912 323.387C172.221 319.005 180.274 314.559 182.806 313.508C186.993 311.766 186.268 311.083 174.786 305.948C167.843 302.84 159.293 300.427 155.786 300.582C152.28 300.738 133.814 305.695 114.749 311.602C58.4484 329.042 30.5109 335.613 -22.634 343.907C-87.1785 353.982 -115.087 356.103 -117.944 351.157C-121.485 345.027 -113.006 341.389 -88.8966 338.69C-76.6782 337.322 -54.9447 333.317 -40.5975 329.794C-26.2504 326.27 0.102419 319.946 17.9631 315.739C88.0584 299.232 155.259 270.166 195.218 239.077L209.399 228.041L194.713 228.359C186.634 228.532 174.642 229.82 168.059 231.22C153.741 234.264 152.847 232.61 165.816 227.064C174.503 223.35 209.953 198.245 210.208 195.627C210.392 193.769 187.588 194.895 161.777 198.021C137.497 200.96 113.475 208.542 40.4332 236.315C-4.85964 253.538 -36.5953 261.707 -40.8057 257.227C-42.4262 255.503 -42.6142 253.04 -41.2247 251.757C-38.9044 249.616 -2.78619 236.641 107.738 198.245C149.467 183.75 170.285 173.051 195.615 153.087L208.633 142.824L189.084 144.128C165.583 145.698 130.315 152.511 110.764 159.264C102.922 161.973 80.9006 170.956 61.8272 179.226C42.7518 187.497 25.4922 193.927 23.4717 193.514C15.691 191.927 21.0963 185.902 47.7366 166.464C87.1241 137.728 129.141 95.854 140.339 74.177C152.167 51.2844 148.441 50.4877 116.704 69.1238C79.6044 90.9057 48.7297 118.129 15.6412 158.225C2.1159 174.617 -10.0734 188.322 -11.4472 188.685C-23.1361 191.782 -12.3974 170.633 21.913 123.003C65.5264 62.4502 82.2617 33.4618 86.236 11.5741C87.3299 5.54782 86.8848 0.343611 85.2498 0.0105575C81.4655 -0.760453 41.6639 40.3959 21.3263 66.1101C-4.8644 99.2215 -28.492 144.489 -52.154 206.878C-64.1048 238.393 -70.0242 248.987 -75.7943 249.194C-85.703 249.551 -68.1633 195.744 -43.4369 149.929C-38.5102 140.803 -29.646 123.708 -23.7336 111.941C-6.78627 78.1941 20.9219 36.4848 33.8846 25.2137C40.0179 19.879 17.5008 23.1101 3.12941 29.6266C-9.88694 35.527 -19.8947 47.4102 -41.9679 83.1663C-68.9778 126.925 -98.9249 212.947 -105.569 265.856C-108.964 292.885 -113.067 304.933 -117.335 300.392C-121.768 295.675 -114.622 226.464 -107.033 200.618C-100.798 179.383 -60.4105 84.266 -46.9319 59.0749C-36.338 39.2708 -24.1444 5.67106 -26.604 3.05394C-29.517 -0.0455471 -54.2303 24.1718 -72.1629 47.6984C-77.237 54.3569 -77.5993 54.4859 -75.8231 48.9846C-71.7403 36.3437 -69.0732 22.1725 -70.4909 20.664C-72.4412 18.5889 -107.644 55.8163 -122.523 75.6869C-128.939 84.2538 -138.06 99.8693 -142.796 110.385C-149.071 124.323 -153.539 131.135 -159.292 135.528C-179.063 150.631 -202.879 200.73 -210.937 244.165C-220.287 294.584 -219.116 349.582 -207.585 401.706C-202.719 423.696 -203.5 430.062 -211.007 429.631C-216.185 429.335 -224.47 411.126 -225.439 397.909C-225.77 393.397 -226.393 389.33 -226.823 388.872C-228.163 387.446 -232.35 357.333 -232.562 347.598C-232.672 342.505 -233.489 337.568 -234.378 336.623C-235.267 335.677 -235.858 326.399 -235.69 316.003C-235.523 305.606 -236.063 291.535 -236.891 284.735C-239.416 263.974 -234.159 205.148 -227.507 179.722C-220.487 152.884 -209.641 131.918 -198.749 124.126C-191.884 119.217 -191.864 119.102 -198.339 121.762C-210.447 126.74 -238.358 151.63 -245.13 163.488C-270.816 208.474 -274.859 289.141 -255.49 370.23C-251.387 387.417 -245.555 408.816 -242.531 417.784C-233.351 445.012 -228.574 469.028 -231.566 472.911C-236.473 479.277 -242.307 472.976 -250.062 452.941C-266.876 409.489 -269.615 401.004 -271.364 386.953C-272.367 378.877 -276.318 359.601 -280.142 344.117C-283.966 328.634 -288.051 308.689 -289.221 299.795C-295.609 251.259 -299.172 217.08 -298.876 207.166C-298.582 197.398 -303.2 170.954 -305.653 168.344C-307.663 166.205 -312.326 173.438 -319.014 189.063C-333.143 222.074 -330.822 260.383 -308.885 356.266C-297.761 404.89 -282.42 456.03 -271.004 482.534C-259.673 508.85 -257.453 517.699 -261.284 521.299C-266.862 526.542 -271.343 520.528 -290.238 482.442C-319.508 423.449 -325.378 407.276 -351.22 314.464C-361.04 279.196 -369.026 258.497 -377.73 245.743C-385.69 234.083 -388.961 236.92 -392.452 258.499ZM-114.596 125.552C-120.425 139.851 -127.355 158.702 -129.994 167.445C-138.896 196.927 -149.828 233.666 -154.839 250.945C-159.474 266.922 -162.449 317.404 -159.425 328.724C-156.07 341.269 -151.018 346.058 -145.213 342.191C-142.548 340.416 -141.586 330.419 -142.255 311.368C-144.539 245.982 -130.489 172.948 -102.571 105.096C-100.039 98.9475 -99.3256 95.185 -100.984 96.7366C-102.642 98.2882 -108.767 111.256 -114.596 125.552ZM-180.862 225.58C-190.864 261.315 -194.153 282.493 -198.077 336.363C-199.853 360.73 -191.521 392.472 -183.427 392.182C-176.429 391.931 -175.32 383.578 -179.546 362.916C-188.668 318.317 -188.404 278.579 -178.677 231.45C-170.318 190.96 -170.806 189.645 -180.862 225.58ZM-84.4018 303.281C-81.3536 306.524 -71.0425 305.333 -36.6989 297.769C-7.65537 291.374 8.51832 286.418 45.4161 272.605C64.2799 265.543 58.8618 264.705 38.7856 271.578C25.392 276.165 -28.2962 288.27 -67.6914 295.583C-85.7003 298.925 -87.6494 299.825 -84.4018 303.281ZM-233.863 538.129C-233.05 538.994 -227.192 539.183 -220.844 538.549C-207.425 537.209 -134.232 523.194 -121.099 519.451C-110.803 516.516 -147.366 518.496 -168.334 522.008C-175.766 523.256 -191.954 525.223 -204.303 526.383C-224.327 528.265 -238.021 533.705 -233.863 538.129ZM-270.138 622.104C-269.916 623.703 -265.673 624.713 -260.712 624.348C-250.967 623.633 -171.837 602.767 -148.526 594.766C-140.671 592.072 -130.022 588.934 -124.859 587.795C-119.695 586.658 -114.587 584.907 -113.509 583.904C-112.428 582.9 -122.344 584.354 -135.542 587.135C-148.742 589.915 -164.938 592.874 -171.537 593.711C-190.543 596.12 -228.332 604.821 -252.643 612.381C-270.467 617.924 -270.708 618.058 -270.138 622.104Z" fill="#155971" fill-opacity="0.06"/>
</svg>
