<svg width="20" height="11" viewBox="0 0 20 11" fill="none" xmlns="http://www.w3.org/2000/svg">
<path fill-rule="evenodd" clip-rule="evenodd" d="M19.7078 10.6337C19.8954 10.4361 20 10.1741 20 9.90168C20 9.62925 19.8954 9.36722 19.7078 9.16968L11.4438 0.606676C11.2616 0.414997 11.0424 0.26237 10.7994 0.158076C10.5564 0.0537818 10.2947 -4.2423e-07 10.0303 -4.35789e-07C9.76588 -4.47348e-07 9.50421 0.0537817 9.26121 0.158076C9.01822 0.26237 8.79897 0.414997 8.61681 0.606676L0.291807 9.23168C-0.0931935 9.63168 -0.0981927 10.2797 0.281806 10.6857C0.372337 10.784 0.482109 10.8626 0.604303 10.9167C0.726497 10.9708 0.858507 10.9992 0.992136 11.0001C1.12576 11.0011 1.25816 10.9745 1.3811 10.9222C1.50404 10.8698 1.61491 10.7927 1.70681 10.6957L9.32381 2.80268C9.4149 2.70676 9.52455 2.63038 9.64609 2.57818C9.76764 2.52599 9.89853 2.49907 10.0308 2.49907C10.1631 2.49907 10.294 2.52599 10.4155 2.57818C10.5371 2.63038 10.6467 2.70676 10.7378 2.80268L18.2948 10.6327C18.3858 10.7286 18.4954 10.8049 18.6168 10.8571C18.7383 10.9093 18.8691 10.9362 19.0013 10.9362C19.1335 10.9362 19.2643 10.9093 19.3858 10.8571C19.5072 10.8049 19.6168 10.7296 19.7078 10.6337Z" fill="#403B36"/>
</svg>
