<svg width="75" height="36" viewBox="0 0 75 36" fill="none" xmlns="http://www.w3.org/2000/svg">
<rect width="74.2846" height="35.9441" rx="17.9721" fill="white"/>
<rect x="0.5" y="0.5" width="73.2846" height="34.9441" rx="17.4721" stroke="black" stroke-opacity="0.11"/>
<rect x="13.1794" y="10.7832" width="16.1749" height="3" rx="1.5" fill="#403B36"/>
<rect x="13.1794" y="15.5832" width="16.1749" height="3" rx="1.5" fill="#403B36"/>
<rect x="13.1794" y="20.3832" width="16.1749" height="3" rx="1.5" fill="#403B36"/>
<path d="M46.1283 13.1795C46.1283 12.4686 46.3391 11.7737 46.7341 11.1826C47.129 10.5915 47.6904 10.1308 48.3472 9.85872C49.004 9.58666 49.7267 9.51548 50.4239 9.65417C51.1212 9.79286 51.7617 10.1352 52.2643 10.6379C52.767 11.1406 53.1094 11.781 53.2481 12.4783C53.3868 13.1755 53.3156 13.8983 53.0435 14.555C52.7715 15.2118 52.3108 15.7732 51.7197 16.1682C51.1286 16.5631 50.4336 16.7739 49.7227 16.7739C48.7694 16.7739 47.8552 16.3952 47.1811 15.7212C46.507 15.0471 46.1283 14.1328 46.1283 13.1795ZM55.7134 25.1609H43.732C43.2554 25.1609 42.7982 24.9716 42.4612 24.6345C42.1242 24.2975 41.9348 23.8403 41.9348 23.3637C41.9348 21.9338 42.5029 20.5624 43.514 19.5512C44.5251 18.5401 45.8965 17.9721 47.3264 17.9721H52.119C53.5489 17.9721 54.9203 18.5401 55.9314 19.5512C56.9426 20.5624 57.5106 21.9338 57.5106 23.3637C57.5106 23.8403 57.3213 24.2975 56.9842 24.6345C56.6472 24.9716 56.1901 25.1609 55.7134 25.1609Z" fill="#403B36"/>
</svg>
