<svg width="141" height="135" viewBox="0 0 141 135" fill="none" xmlns="http://www.w3.org/2000/svg">
<path d="M51.5728 28.6713V28.1352H13.7031V14.5802H68.7272V28.3266L36.1799 93H19.0639L51.5728 28.6713ZM68.1723 47.0892H88.4282V26.8333H102.136V47.0892H122.392V60.7973H102.136V81.0532H88.4282V60.7973H68.1723V47.0892Z" fill="#D9C6A5"/>
<path d="M1.09581 127.592H1.58402C1.89673 127.592 2.16157 127.566 2.37855 127.515C2.59554 127.464 2.77742 127.371 2.9242 127.237C3.07098 127.103 3.18905 126.921 3.27839 126.692C3.36774 126.456 3.43794 126.156 3.48899 125.792C3.54005 125.422 3.57834 124.978 3.60386 124.461C3.63577 123.944 3.66449 123.335 3.69002 122.633L3.92934 116.123H15.1103V130.827H11.2238V119.33H7.59569L7.36595 123.82C7.29575 125.173 7.16173 126.299 6.96389 127.199C6.77244 128.099 6.48206 128.817 6.09277 129.353C5.70986 129.889 5.21208 130.269 4.59943 130.492C3.99315 130.715 3.2401 130.827 2.34026 130.827H1.11495L1.09581 127.592ZM16.0608 123.542C16.0608 121.034 16.6479 119.139 17.8221 117.856C19.0028 116.573 20.7929 115.932 23.1924 115.932C24.2837 115.932 25.257 116.088 26.1121 116.401C26.9673 116.707 27.6916 117.173 28.2851 117.799C28.8786 118.418 29.3286 119.193 29.6349 120.125C29.9476 121.057 30.104 122.148 30.104 123.399V124.519H20.0909V124.528C20.0909 125.198 20.1451 125.76 20.2536 126.213C20.3685 126.66 20.5536 127.024 20.8088 127.304C21.0705 127.579 21.4119 127.777 21.8331 127.898C22.2607 128.013 22.7904 128.07 23.4222 128.07C23.8817 128.07 24.2678 128.035 24.5805 127.965C24.8932 127.888 25.1549 127.78 25.3655 127.639C25.5824 127.493 25.7579 127.314 25.892 127.103C26.026 126.893 26.144 126.647 26.2461 126.366L30.0178 126.615C29.8774 127.298 29.6413 127.917 29.3094 128.472C28.9839 129.021 28.55 129.493 28.0075 129.889C27.4715 130.278 26.8173 130.581 26.0451 130.798C25.2793 131.009 24.3827 131.114 23.3552 131.114C22.1043 131.114 21.0194 130.961 20.1005 130.655C19.1879 130.349 18.4316 129.883 17.8317 129.257C17.2318 128.632 16.7851 127.844 16.4915 126.893C16.2043 125.942 16.0608 124.825 16.0608 123.542ZM20.0909 121.992H26.2653C26.2653 121.436 26.2142 120.967 26.1121 120.584C26.01 120.195 25.8409 119.882 25.6048 119.646C25.3686 119.41 25.0591 119.241 24.6762 119.139C24.2933 119.03 23.8211 118.976 23.2595 118.976C22.6851 118.976 22.1969 119.034 21.7948 119.148C21.3992 119.257 21.0737 119.432 20.8184 119.675C20.5631 119.917 20.3781 120.23 20.2632 120.613C20.1483 120.996 20.0909 121.455 20.0909 121.992ZM30.3819 119.33V116.123H43.7072V119.33H38.9687V130.827H35.0822V119.33H30.3819ZM49.1835 130.827V116.123H53.0796V121.848H58.1053V116.123H61.9727V130.827H58.1053V125.055H53.0796V130.827H49.1835ZM62.8299 126.72C62.8299 126.095 62.8969 125.556 63.0309 125.103C63.1713 124.643 63.3659 124.254 63.6148 123.935C63.8637 123.616 64.1573 123.354 64.4955 123.15C64.8401 122.946 65.2167 122.78 65.6251 122.652C66.0335 122.524 66.4675 122.429 66.927 122.365C67.3929 122.295 67.8683 122.237 68.3533 122.193C68.9915 122.129 69.534 122.094 69.9807 122.087C70.4338 122.074 70.8039 122.039 71.0911 121.982C71.3783 121.918 71.5857 121.806 71.7133 121.647C71.8474 121.487 71.9144 121.229 71.9144 120.872V120.814C71.9144 120.393 71.8888 120.058 71.8378 119.809C71.7867 119.554 71.6814 119.362 71.5219 119.235C71.3687 119.101 71.1486 119.014 70.8614 118.976C70.5742 118.931 70.1977 118.909 69.7318 118.909C69.2468 118.909 68.8511 118.954 68.5448 119.043C68.2384 119.126 67.9896 119.244 67.7981 119.397C67.613 119.544 67.4694 119.723 67.3673 119.933C67.2716 120.138 67.1886 120.361 67.1184 120.603L63.3468 120.297C63.4872 119.627 63.7105 119.024 64.0169 118.488C64.3296 117.945 64.7444 117.486 65.2613 117.109C65.7783 116.733 66.4037 116.443 67.1376 116.238C67.8779 116.034 68.749 115.932 69.7509 115.932C70.3764 115.932 70.9635 115.964 71.5123 116.028C72.0675 116.085 72.5749 116.187 73.0344 116.334C73.5003 116.481 73.9151 116.679 74.2788 116.928C74.6426 117.176 74.9521 117.486 75.2074 117.856C75.4627 118.22 75.6573 118.654 75.7913 119.158C75.9253 119.662 75.9924 120.246 75.9924 120.91V130.827H72.125V128.788H72.0101C71.8314 129.133 71.6304 129.449 71.407 129.736C71.1837 130.017 70.9092 130.259 70.5838 130.463C70.2583 130.668 69.8626 130.824 69.3967 130.932C68.9373 131.047 68.3757 131.105 67.7119 131.105C66.8887 131.105 66.1707 131.035 65.5581 130.894C64.9518 130.754 64.4445 130.518 64.036 130.186C63.634 129.848 63.3308 129.398 63.1266 128.836C62.9288 128.274 62.8299 127.569 62.8299 126.72ZM68.8798 128.29C69.4478 128.29 69.9264 128.246 70.3157 128.156C70.705 128.061 71.0209 127.907 71.2634 127.697C71.5059 127.48 71.6782 127.199 71.7804 126.854C71.8888 126.503 71.9431 126.076 71.9431 125.572V124.011C71.8218 124.094 71.6463 124.171 71.4166 124.241C71.1932 124.305 70.9475 124.366 70.6795 124.423C70.4115 124.474 70.137 124.522 69.8562 124.567C69.5818 124.605 69.3329 124.64 69.1096 124.672C68.7522 124.723 68.4267 124.777 68.1331 124.835C67.8396 124.886 67.5875 124.975 67.3769 125.103C67.1727 125.224 67.0131 125.399 66.8983 125.629C66.7834 125.859 66.726 126.178 66.726 126.586C66.726 126.988 66.7547 127.304 66.8121 127.534C66.8759 127.757 66.9876 127.927 67.1472 128.041C67.3131 128.15 67.5333 128.22 67.8077 128.252C68.0885 128.278 68.4459 128.29 68.8798 128.29ZM89.7611 111.222C89.9717 111.216 90.1759 111.216 90.3738 111.222C90.5716 111.222 90.763 111.222 90.9481 111.222C91.3438 111.222 91.7107 111.222 92.049 111.222C92.3872 111.216 92.6999 111.197 92.9871 111.165C93.2743 111.133 93.5328 111.085 93.7625 111.021C93.9986 110.951 94.206 110.852 94.3847 110.724L95.6292 113.386C95.4186 113.558 95.2112 113.708 95.007 113.836C94.8091 113.957 94.5921 114.059 94.356 114.142C94.1263 114.225 93.8742 114.295 93.5998 114.352C93.3253 114.404 93.0094 114.445 92.6521 114.477C92.3011 114.502 91.899 114.525 91.4459 114.544C90.9928 114.557 90.4759 114.566 89.8951 114.573C88.9251 114.579 88.1274 114.681 87.5019 114.879C86.8765 115.077 86.3755 115.383 85.999 115.798C85.6225 116.213 85.3449 116.742 85.1662 117.387C84.9875 118.032 84.8535 118.804 84.7641 119.704H84.9077C85.1311 119.251 85.3736 118.852 85.6353 118.507C85.8969 118.156 86.2128 117.859 86.583 117.617C86.9595 117.374 87.403 117.192 87.9136 117.071C88.4241 116.944 89.0336 116.88 89.742 116.88C90.8013 116.88 91.7235 117.014 92.5085 117.282C93.2934 117.55 93.9444 117.965 94.4613 118.526C94.9846 119.088 95.3739 119.803 95.6292 120.67C95.8845 121.532 96.0121 122.563 96.0121 123.762C96.0121 125.007 95.8685 126.089 95.5813 127.008C95.2941 127.927 94.8538 128.692 94.2603 129.305C93.6732 129.911 92.9265 130.364 92.0203 130.664C91.1204 130.964 90.0547 131.114 88.823 131.114C87.5913 131.114 86.5223 130.961 85.6161 130.655C84.7099 130.342 83.96 129.857 83.3665 129.2C82.773 128.536 82.3327 127.687 82.0455 126.653C81.7583 125.613 81.6147 124.366 81.6147 122.911V121.704C81.6147 119.815 81.7647 118.21 82.0646 116.889C82.371 115.562 82.8496 114.48 83.5005 113.644C84.1579 112.808 85.0003 112.199 86.0277 111.816C87.0616 111.433 88.306 111.235 89.7611 111.222ZM88.8421 127.955C89.4292 127.955 89.9175 127.885 90.3067 127.745C90.696 127.604 91.0056 127.375 91.2353 127.055C91.465 126.73 91.6278 126.309 91.7235 125.792C91.8192 125.275 91.8671 124.643 91.8671 123.896C91.8671 123.15 91.8192 122.528 91.7235 122.03C91.6278 121.526 91.4619 121.12 91.2257 120.814C90.996 120.508 90.6865 120.291 90.2972 120.163C89.9079 120.035 89.4165 119.972 88.823 119.972C88.2295 119.972 87.7349 120.035 87.3392 120.163C86.9499 120.291 86.6372 120.508 86.4011 120.814C86.1713 121.12 86.0086 121.526 85.9129 122.03C85.8171 122.528 85.7661 123.15 85.7597 123.896C85.7597 124.643 85.8076 125.275 85.9033 125.792C85.999 126.309 86.1649 126.73 86.4011 127.055C86.6372 127.375 86.9531 127.604 87.3488 127.745C87.7444 127.885 88.2422 127.955 88.8421 127.955ZM96.4121 126.72C96.4121 126.095 96.4791 125.556 96.6132 125.103C96.7536 124.643 96.9482 124.254 97.1971 123.935C97.446 123.616 97.7396 123.354 98.0778 123.15C98.4224 122.946 98.7989 122.78 99.2074 122.652C99.6158 122.524 100.05 122.429 100.509 122.365C100.975 122.295 101.451 122.237 101.936 122.193C102.574 122.129 103.116 122.094 103.563 122.087C104.016 122.074 104.386 122.039 104.673 121.982C104.961 121.918 105.168 121.806 105.296 121.647C105.43 121.487 105.497 121.229 105.497 120.872V120.814C105.497 120.393 105.471 120.058 105.42 119.809C105.369 119.554 105.264 119.362 105.104 119.235C104.951 119.101 104.731 119.014 104.444 118.976C104.156 118.931 103.78 118.909 103.314 118.909C102.829 118.909 102.433 118.954 102.127 119.043C101.821 119.126 101.572 119.244 101.38 119.397C101.195 119.544 101.052 119.723 100.95 119.933C100.854 120.138 100.771 120.361 100.701 120.603L96.9291 120.297C97.0695 119.627 97.2928 119.024 97.5992 118.488C97.9119 117.945 98.3267 117.486 98.8436 117.109C99.3605 116.733 99.986 116.443 100.72 116.238C101.46 116.034 102.331 115.932 103.333 115.932C103.959 115.932 104.546 115.964 105.095 116.028C105.65 116.085 106.157 116.187 106.617 116.334C107.083 116.481 107.497 116.679 107.861 116.928C108.225 117.176 108.534 117.486 108.79 117.856C109.045 118.22 109.24 118.654 109.374 119.158C109.508 119.662 109.575 120.246 109.575 120.91V130.827H105.707V128.788H105.592C105.414 129.133 105.213 129.449 104.989 129.736C104.766 130.017 104.492 130.259 104.166 130.463C103.841 130.668 103.445 130.824 102.979 130.932C102.52 131.047 101.958 131.105 101.294 131.105C100.471 131.105 99.753 131.035 99.1404 130.894C98.5341 130.754 98.0267 130.518 97.6183 130.186C97.2162 129.848 96.9131 129.398 96.7089 128.836C96.5111 128.274 96.4121 127.569 96.4121 126.72ZM102.462 128.29C103.03 128.29 103.509 128.246 103.898 128.156C104.287 128.061 104.603 127.907 104.846 127.697C105.088 127.48 105.261 127.199 105.363 126.854C105.471 126.503 105.525 126.076 105.525 125.572V124.011C105.404 124.094 105.229 124.171 104.999 124.241C104.776 124.305 104.53 124.366 104.262 124.423C103.994 124.474 103.719 124.522 103.439 124.567C103.164 124.605 102.915 124.64 102.692 124.672C102.334 124.723 102.009 124.777 101.715 124.835C101.422 124.886 101.17 124.975 100.959 125.103C100.755 125.224 100.595 125.399 100.481 125.629C100.366 125.859 100.308 126.178 100.308 126.586C100.308 126.988 100.337 127.304 100.394 127.534C100.458 127.757 100.57 127.927 100.729 128.041C100.895 128.15 101.116 128.22 101.39 128.252C101.671 128.278 102.028 128.29 102.462 128.29ZM110.24 127.592H110.729C111.041 127.592 111.306 127.566 111.523 127.515C111.74 127.464 111.922 127.371 112.069 127.237C112.215 127.103 112.334 126.921 112.423 126.692C112.512 126.456 112.582 126.156 112.633 125.792C112.685 125.422 112.723 124.978 112.748 124.461C112.78 123.944 112.809 123.335 112.835 122.633L113.074 116.123H124.255V130.827H120.368V119.33H116.74L116.51 123.82C116.44 125.173 116.306 126.299 116.108 127.199C115.917 128.099 115.627 128.817 115.237 129.353C114.854 129.889 114.357 130.269 113.744 130.492C113.138 130.715 112.385 130.827 111.485 130.827H110.259L110.24 127.592ZM125.799 130.827V116.123H129.695V125.447L134.989 116.123H139.009V130.827H135.123V121.475L129.848 130.827H125.799Z" fill="#D9C6A5"/>
</svg>
