<svg width="286" height="149" viewBox="0 0 286 149" fill="none" xmlns="http://www.w3.org/2000/svg">
<path d="M5.21389 90.635L9.82794 100.284L13.6858 90.635H17.9169L11.1586 106.392C10.9926 106.756 10.8171 107.11 10.6321 107.454C10.447 107.799 10.2396 108.124 10.0098 108.431C9.78008 108.737 9.52481 109.018 9.24401 109.273C8.96321 109.522 8.64731 109.739 8.29631 109.924C7.94531 110.109 7.55282 110.253 7.11886 110.355C6.6849 110.457 6.19988 110.508 5.66381 110.508H4.18961V107.138H5.25218C5.64785 107.138 5.9829 107.103 6.25731 107.033C6.53811 106.957 6.77424 106.845 6.9657 106.698C7.16353 106.551 7.32627 106.369 7.45391 106.152C7.58792 105.929 7.70599 105.674 7.8081 105.387L8.04742 104.745L0.925305 90.635H5.21389ZM18.4653 110.24V95.5363H31.3215V110.24H27.4254V98.7431H22.3136V110.24H18.4653ZM32.9588 115.754V95.5363H36.9794V98.006H37.1612C37.2506 97.8082 37.3463 97.604 37.4484 97.3934C37.5569 97.1828 37.6845 96.9786 37.8313 96.7807C37.9781 96.5829 38.1504 96.3978 38.3483 96.2255C38.5525 96.0532 38.795 95.9032 39.0758 95.7756C39.3566 95.6416 39.6821 95.5363 40.0522 95.4597C40.4223 95.3831 40.8531 95.3448 41.3445 95.3448C42.2699 95.3448 43.0995 95.4788 43.8334 95.7469C44.5737 96.0149 45.1991 96.4489 45.7097 97.0488C46.2202 97.6487 46.6127 98.4304 46.8871 99.3941C47.1615 100.351 47.2988 101.522 47.2988 102.907C47.2988 104.254 47.1679 105.409 46.9063 106.373C46.6446 107.33 46.2585 108.112 45.748 108.718C45.2438 109.324 44.6216 109.771 43.8813 110.058C43.141 110.339 42.2922 110.479 41.3349 110.479C40.6202 110.479 40.0267 110.4 39.5544 110.24C39.0885 110.087 38.6993 109.889 38.3865 109.646C38.0802 109.398 37.8345 109.12 37.6494 108.814C37.4644 108.501 37.3016 108.191 37.1612 107.885H37.0368V115.754H32.9588ZM37.1612 102.888C37.1612 103.66 37.1963 104.324 37.2665 104.879C37.3367 105.428 37.4739 105.878 37.6782 106.229C37.8888 106.574 38.1823 106.829 38.5589 106.995C38.9354 107.154 39.43 107.234 40.0426 107.234C40.6617 107.234 41.169 107.151 41.5647 106.985C41.9667 106.819 42.2826 106.561 42.5124 106.21C42.7485 105.852 42.9113 105.399 43.0006 104.851C43.0899 104.302 43.1346 103.648 43.1346 102.888C43.1346 102.129 43.0899 101.481 43.0006 100.945C42.9113 100.402 42.7517 99.9557 42.522 99.6047C42.2922 99.2537 41.9763 98.9984 41.5743 98.8389C41.1786 98.6729 40.668 98.59 40.0426 98.59C39.43 98.59 38.9322 98.6698 38.5493 98.8293C38.1728 98.9825 37.8824 99.2314 37.6782 99.576C37.4739 99.9206 37.3367 100.364 37.2665 100.907C37.1963 101.449 37.1612 102.11 37.1612 102.888ZM47.7108 106.133C47.7108 105.508 47.7778 104.969 47.9118 104.515C48.0522 104.056 48.2468 103.667 48.4957 103.348C48.7446 103.029 49.0382 102.767 49.3764 102.563C49.721 102.358 50.0976 102.193 50.506 102.065C50.9144 101.937 51.3484 101.842 51.8079 101.778C52.2738 101.707 52.7492 101.65 53.2342 101.605C53.8724 101.542 54.4149 101.506 54.8616 101.5C55.3147 101.487 55.6849 101.452 55.972 101.395C56.2592 101.331 56.4666 101.219 56.5943 101.06C56.7283 100.9 56.7953 100.642 56.7953 100.284V100.227C56.7953 99.8057 56.7698 99.4707 56.7187 99.2218C56.6677 98.9665 56.5624 98.7751 56.4028 98.6474C56.2496 98.5134 56.0295 98.4272 55.7423 98.389C55.4551 98.3443 55.0786 98.3219 54.6127 98.3219C54.1277 98.3219 53.732 98.3666 53.4257 98.456C53.1194 98.5389 52.8705 98.657 52.679 98.8102C52.4939 98.9569 52.3503 99.1356 52.2482 99.3462C52.1525 99.5504 52.0695 99.7738 51.9993 100.016L48.2277 99.71C48.3681 99.0399 48.5915 98.4368 48.8978 97.9007C49.2105 97.3583 49.6253 96.8988 50.1422 96.5223C50.6592 96.1457 51.2846 95.8554 52.0185 95.6512C52.7588 95.4469 53.6299 95.3448 54.6319 95.3448C55.2573 95.3448 55.8444 95.3767 56.3932 95.4406C56.9485 95.498 57.4558 95.6001 57.9153 95.7469C58.3812 95.8937 58.796 96.0915 59.1598 96.3404C59.5235 96.5893 59.833 96.8988 60.0883 97.2689C60.3436 97.6327 60.5382 98.0667 60.6722 98.5708C60.8063 99.075 60.8733 99.6589 60.8733 100.323V110.24H57.0059V108.201H56.891C56.7123 108.546 56.5113 108.862 56.2879 109.149C56.0646 109.429 55.7902 109.672 55.4647 109.876C55.1392 110.08 54.7435 110.237 54.2777 110.345C53.8182 110.46 53.2566 110.518 52.5929 110.518C51.7696 110.518 51.0516 110.447 50.439 110.307C49.8327 110.167 49.3254 109.93 48.9169 109.599C48.5149 109.26 48.2117 108.81 48.0075 108.249C47.8097 107.687 47.7108 106.982 47.7108 106.133ZM53.7607 107.703C54.3287 107.703 54.8073 107.659 55.1966 107.569C55.5859 107.473 55.9018 107.32 56.1443 107.11C56.3869 106.893 56.5592 106.612 56.6613 106.267C56.7698 105.916 56.824 105.489 56.824 104.985V103.424C56.7028 103.507 56.5273 103.584 56.2975 103.654C56.0741 103.718 55.8284 103.778 55.5604 103.836C55.2924 103.887 55.018 103.935 54.7372 103.979C54.4627 104.018 54.2138 104.053 53.9905 104.085C53.6331 104.136 53.3076 104.19 53.0141 104.247C52.7205 104.299 52.4684 104.388 52.2578 104.515C52.0536 104.637 51.894 104.812 51.7792 105.042C51.6643 105.272 51.6069 105.591 51.6069 105.999C51.6069 106.401 51.6356 106.717 51.693 106.947C51.7568 107.17 51.8685 107.339 52.0281 107.454C52.194 107.563 52.4142 107.633 52.6886 107.665C52.9694 107.69 53.3268 107.703 53.7607 107.703ZM62.4196 95.5363H68.6898C69.7173 95.5363 70.6011 95.6033 71.3414 95.7373C72.0817 95.8649 72.6912 96.0819 73.1698 96.3883C73.6485 96.6946 73.9995 97.103 74.2228 97.6136C74.4526 98.1177 74.5674 98.7495 74.5674 99.509C74.5674 100.026 74.4909 100.469 74.3377 100.84C74.1845 101.21 73.9644 101.526 73.6772 101.787C73.39 102.043 73.039 102.25 72.6242 102.409C72.2094 102.569 71.7371 102.693 71.2074 102.783C71.8711 102.828 72.4614 102.92 72.9784 103.06C73.4953 103.201 73.9293 103.405 74.2803 103.673C74.6376 103.941 74.9089 104.283 75.0939 104.697C75.2854 105.112 75.3811 105.623 75.3811 106.229C75.3811 106.976 75.2758 107.604 75.0652 108.115C74.861 108.625 74.5291 109.04 74.0697 109.359C73.6165 109.672 73.0262 109.899 72.2987 110.039C71.5776 110.173 70.6969 110.24 69.6566 110.24H62.4196V95.5363ZM66.22 103.979V107.186H69.6566C70.0587 107.186 70.3778 107.174 70.6139 107.148C70.8564 107.122 71.0415 107.062 71.1691 106.966C71.2968 106.864 71.3797 106.711 71.418 106.507C71.4563 106.302 71.4754 106.022 71.4754 105.664C71.4754 105.281 71.4563 104.978 71.418 104.755C71.3797 104.531 71.2968 104.362 71.1691 104.247C71.0415 104.133 70.8564 104.059 70.6139 104.027C70.3778 103.995 70.0587 103.979 69.6566 103.979H66.22ZM66.22 98.657V101.586H68.7759C69.1971 101.586 69.5354 101.577 69.7906 101.558C70.0523 101.532 70.2501 101.471 70.3842 101.376C70.5246 101.274 70.6171 101.124 70.6618 100.926C70.7064 100.728 70.7288 100.453 70.7288 100.102C70.7288 99.7579 70.7064 99.4898 70.6618 99.2984C70.6171 99.1005 70.5214 98.9569 70.3746 98.8676C70.2342 98.7719 70.03 98.7144 69.7619 98.6953C69.4939 98.6698 69.1365 98.657 68.6898 98.657H66.22ZM75.4533 107.004H75.9415C76.2542 107.004 76.5191 106.979 76.736 106.928C76.953 106.877 77.1349 106.784 77.2817 106.65C77.4285 106.516 77.5465 106.334 77.6359 106.105C77.7252 105.868 77.7954 105.568 77.8465 105.205C77.8975 104.835 77.9358 104.391 77.9614 103.874C77.9933 103.357 78.022 102.748 78.0475 102.046L78.2868 95.5363H89.4678V110.24H85.5812V98.7431H81.9532L81.7234 103.233C81.6532 104.586 81.5192 105.712 81.3214 106.612C81.1299 107.512 80.8396 108.23 80.4503 108.766C80.0674 109.302 79.5696 109.682 78.9569 109.905C78.3506 110.128 77.5976 110.24 76.6978 110.24H75.4724L75.4533 107.004ZM90.2842 110.24L93.4528 104.314C93.0125 104.123 92.62 103.916 92.2754 103.692C91.9371 103.469 91.6499 103.207 91.4138 102.907C91.1841 102.601 91.0086 102.244 90.8873 101.835C90.7661 101.42 90.7054 100.929 90.7054 100.361C90.699 99.5249 90.8363 98.8038 91.1171 98.1975C91.4042 97.5848 91.8159 97.0839 92.3519 96.6946C92.888 96.2989 93.5358 96.0085 94.2952 95.8235C95.061 95.632 95.9194 95.5363 96.8703 95.5363H103.428V110.24H99.6272V104.937H97.0139L94.1899 110.24H90.2842ZM94.592 100.476C94.5856 100.833 94.6079 101.124 94.659 101.347C94.71 101.57 94.8121 101.746 94.9653 101.873C95.1248 101.995 95.3514 102.078 95.645 102.122C95.9449 102.161 96.3406 102.18 96.832 102.18H99.6272V98.7336H96.8703C96.3725 98.7336 95.9704 98.7591 95.6641 98.8102C95.3642 98.8548 95.1344 98.9442 94.9749 99.0782C94.8153 99.2058 94.71 99.3813 94.659 99.6047C94.6079 99.8281 94.5856 100.118 94.592 100.476ZM104.213 95.5363H108.281V101.347H110.55C110.69 100.447 110.93 99.627 111.268 98.8867C111.613 98.1464 112.069 97.5146 112.637 96.9913C113.205 96.468 113.891 96.0628 114.695 95.7756C115.499 95.4884 116.437 95.3448 117.509 95.3448C118.722 95.3448 119.772 95.5076 120.659 95.833C121.546 96.1521 122.28 96.6308 122.861 97.2689C123.441 97.9071 123.872 98.6953 124.153 99.6334C124.44 100.572 124.584 101.66 124.584 102.898C124.584 104.129 124.44 105.221 124.153 106.172C123.872 107.122 123.441 107.92 122.861 108.565C122.28 109.209 121.546 109.698 120.659 110.029C119.772 110.361 118.722 110.527 117.509 110.527C116.437 110.527 115.499 110.384 114.695 110.096C113.897 109.809 113.218 109.407 112.656 108.89C112.094 108.367 111.641 107.742 111.297 107.014C110.959 106.28 110.716 105.47 110.569 104.583H108.281V110.24H104.213V95.5363ZM117.509 107.234C118.192 107.234 118.741 107.148 119.156 106.976C119.577 106.803 119.899 106.542 120.123 106.191C120.353 105.833 120.506 105.383 120.582 104.841C120.659 104.292 120.697 103.644 120.697 102.898C120.697 102.151 120.659 101.506 120.582 100.964C120.506 100.422 120.353 99.9748 120.123 99.6238C119.899 99.2728 119.577 99.0144 119.156 98.8484C118.741 98.6761 118.192 98.59 117.509 98.59C116.82 98.59 116.265 98.6761 115.844 98.8484C115.429 99.0144 115.107 99.2728 114.877 99.6238C114.647 99.9748 114.494 100.422 114.417 100.964C114.341 101.506 114.303 102.151 114.303 102.898C114.303 103.644 114.341 104.292 114.417 104.841C114.494 105.383 114.647 105.833 114.877 106.191C115.107 106.542 115.429 106.803 115.844 106.976C116.265 107.148 116.82 107.234 117.509 107.234ZM125.738 95.5363H129.634V107.004H133.779V95.5363H137.675V107.004H141.82V95.5363H145.716V107.033H148.837L148.549 114.452H144.806V110.24H125.738V95.5363ZM149.655 110.24V95.5363H153.552V104.86L158.845 95.5363H162.866V110.24H158.979V100.887L153.705 110.24H149.655ZM164.517 95.5363H168.414V104.86L173.707 95.5363H177.728V110.24H173.841V100.887L168.567 110.24H164.517V95.5363ZM166.384 90.4053H169.208C169.208 90.6223 169.24 90.8361 169.304 91.0467C169.374 91.2509 169.483 91.4328 169.629 91.5923C169.782 91.7519 169.98 91.8795 170.223 91.9752C170.465 92.071 170.762 92.1188 171.113 92.1188C171.451 92.1188 171.739 92.071 171.975 91.9752C172.217 91.8795 172.415 91.7551 172.568 91.6019C172.721 91.4423 172.833 91.2605 172.903 91.0562C172.973 90.8456 173.008 90.6287 173.008 90.4053H175.852C175.852 90.986 175.74 91.5157 175.517 91.9944C175.293 92.4666 174.974 92.8719 174.559 93.2101C174.151 93.5483 173.656 93.81 173.076 93.9951C172.495 94.1801 171.841 94.2727 171.113 94.2727C170.386 94.2727 169.731 94.1801 169.151 93.9951C168.57 93.81 168.072 93.5483 167.657 93.2101C167.249 92.8719 166.933 92.4666 166.71 91.9944C166.493 91.5157 166.384 90.986 166.384 90.4053ZM184.001 110.24V95.5363H196.857V110.24H192.961V98.7431H187.849V110.24H184.001ZM197.805 106.133C197.805 105.508 197.872 104.969 198.006 104.515C198.147 104.056 198.341 103.667 198.59 103.348C198.839 103.029 199.133 102.767 199.471 102.563C199.816 102.358 200.192 102.193 200.601 102.065C201.009 101.937 201.443 101.842 201.903 101.778C202.368 101.707 202.844 101.65 203.329 101.605C203.967 101.542 204.51 101.506 204.956 101.5C205.409 101.487 205.779 101.452 206.067 101.395C206.354 101.331 206.561 101.219 206.689 101.06C206.823 100.9 206.89 100.642 206.89 100.284V100.227C206.89 99.8057 206.864 99.4707 206.813 99.2218C206.762 98.9665 206.657 98.7751 206.497 98.6474C206.344 98.5134 206.124 98.4272 205.837 98.389C205.55 98.3443 205.173 98.3219 204.707 98.3219C204.222 98.3219 203.827 98.3666 203.52 98.456C203.214 98.5389 202.965 98.657 202.774 98.8102C202.589 98.9569 202.445 99.1356 202.343 99.3462C202.247 99.5504 202.164 99.7738 202.094 100.016L198.322 99.71C198.463 99.0399 198.686 98.4368 198.992 97.9007C199.305 97.3583 199.72 96.8988 200.237 96.5223C200.754 96.1457 201.379 95.8554 202.113 95.6512C202.853 95.4469 203.725 95.3448 204.726 95.3448C205.352 95.3448 205.939 95.3767 206.488 95.4406C207.043 95.498 207.55 95.6001 208.01 95.7469C208.476 95.8937 208.891 96.0915 209.254 96.3404C209.618 96.5893 209.928 96.8988 210.183 97.2689C210.438 97.6327 210.633 98.0667 210.767 98.5708C210.901 99.075 210.968 99.6589 210.968 100.323V110.24H207.101V108.201H206.986C206.807 108.546 206.606 108.862 206.383 109.149C206.159 109.429 205.885 109.672 205.559 109.876C205.234 110.08 204.838 110.237 204.372 110.345C203.913 110.46 203.351 110.518 202.687 110.518C201.864 110.518 201.146 110.447 200.534 110.307C199.927 110.167 199.42 109.93 199.012 109.599C198.61 109.26 198.306 108.81 198.102 108.249C197.904 107.687 197.805 106.982 197.805 106.133ZM203.855 107.703C204.423 107.703 204.902 107.659 205.291 107.569C205.681 107.473 205.996 107.32 206.239 107.11C206.481 106.893 206.654 106.612 206.756 106.267C206.864 105.916 206.919 105.489 206.919 104.985V103.424C206.797 103.507 206.622 103.584 206.392 103.654C206.169 103.718 205.923 103.778 205.655 103.836C205.387 103.887 205.113 103.935 204.832 103.979C204.557 104.018 204.308 104.053 204.085 104.085C203.728 104.136 203.402 104.19 203.109 104.247C202.815 104.299 202.563 104.388 202.352 104.515C202.148 104.637 201.989 104.812 201.874 105.042C201.759 105.272 201.702 105.591 201.702 105.999C201.702 106.401 201.73 106.717 201.788 106.947C201.851 107.17 201.963 107.339 202.123 107.454C202.289 107.563 202.509 107.633 202.783 107.665C203.064 107.69 203.421 107.703 203.855 107.703ZM212.514 115.754V95.5363H216.535V98.006H216.717C216.806 97.8082 216.902 97.604 217.004 97.3934C217.112 97.1828 217.24 96.9786 217.387 96.7807C217.534 96.5829 217.706 96.3978 217.904 96.2255C218.108 96.0532 218.35 95.9032 218.631 95.7756C218.912 95.6416 219.238 95.5363 219.608 95.4597C219.978 95.3831 220.409 95.3448 220.9 95.3448C221.825 95.3448 222.655 95.4788 223.389 95.7469C224.129 96.0149 224.755 96.4489 225.265 97.0488C225.776 97.6487 226.168 98.4304 226.443 99.3941C226.717 100.351 226.854 101.522 226.854 102.907C226.854 104.254 226.723 105.409 226.462 106.373C226.2 107.33 225.814 108.112 225.303 108.718C224.799 109.324 224.177 109.771 223.437 110.058C222.696 110.339 221.848 110.479 220.89 110.479C220.176 110.479 219.582 110.4 219.11 110.24C218.644 110.087 218.255 109.889 217.942 109.646C217.636 109.398 217.39 109.12 217.205 108.814C217.02 108.501 216.857 108.191 216.717 107.885H216.592V115.754H212.514ZM216.717 102.888C216.717 103.66 216.752 104.324 216.822 104.879C216.892 105.428 217.029 105.878 217.234 106.229C217.444 106.574 217.738 106.829 218.114 106.995C218.491 107.154 218.985 107.234 219.598 107.234C220.217 107.234 220.724 107.151 221.12 106.985C221.522 106.819 221.838 106.561 222.068 106.21C222.304 105.852 222.467 105.399 222.556 104.851C222.645 104.302 222.69 103.648 222.69 102.888C222.69 102.129 222.645 101.481 222.556 100.945C222.467 100.402 222.307 99.9557 222.077 99.6047C221.848 99.2537 221.532 98.9984 221.13 98.8389C220.734 98.6729 220.224 98.59 219.598 98.59C218.985 98.59 218.488 98.6698 218.105 98.8293C217.728 98.9825 217.438 99.2314 217.234 99.576C217.029 99.9206 216.892 100.364 216.822 100.907C216.752 101.449 216.717 102.11 216.717 102.888ZM227.19 98.7431V95.5363H240.515V98.7431H235.776V110.24H231.89V98.7431H227.19ZM241.37 110.24V95.5363H245.266V101.261H250.291V95.5363H254.159V110.24H250.291V104.468H245.266V110.24H241.37ZM255.112 102.955C255.112 100.447 255.699 98.5517 256.873 97.2689C258.054 95.9862 259.844 95.3448 262.243 95.3448C263.335 95.3448 264.308 95.5012 265.163 95.8139C266.018 96.1202 266.743 96.5861 267.336 97.2115C267.93 97.8305 268.379 98.6059 268.686 99.5377C268.999 100.469 269.155 101.561 269.155 102.812V103.932H259.142V103.941C259.142 104.611 259.196 105.173 259.305 105.626C259.419 106.073 259.604 106.436 259.86 106.717C260.121 106.992 260.463 107.189 260.884 107.311C261.312 107.426 261.841 107.483 262.473 107.483C262.933 107.483 263.319 107.448 263.631 107.378C263.944 107.301 264.206 107.193 264.416 107.052C264.633 106.905 264.809 106.727 264.943 106.516C265.077 106.306 265.195 106.06 265.297 105.779L269.069 106.028C268.928 106.711 268.692 107.33 268.36 107.885C268.035 108.434 267.601 108.906 267.058 109.302C266.522 109.691 265.868 109.994 265.096 110.211C264.33 110.422 263.434 110.527 262.406 110.527C261.155 110.527 260.07 110.374 259.151 110.068C258.239 109.761 257.483 109.295 256.883 108.67C256.283 108.045 255.836 107.256 255.542 106.306C255.255 105.355 255.112 104.238 255.112 102.955ZM259.142 101.404H265.316C265.316 100.849 265.265 100.38 265.163 99.9972C265.061 99.6079 264.892 99.2952 264.656 99.059C264.42 98.8229 264.11 98.6538 263.727 98.5517C263.344 98.4432 262.872 98.389 262.31 98.389C261.736 98.389 261.248 98.4464 260.846 98.5613C260.45 98.6698 260.125 98.8453 259.869 99.0878C259.614 99.3303 259.429 99.643 259.314 100.026C259.199 100.409 259.142 100.868 259.142 101.404ZM265.086 89.6299C265.367 89.6299 265.626 89.681 265.862 89.7831C266.104 89.8852 266.315 90.0256 266.494 90.2043C266.679 90.3766 266.822 90.5808 266.924 90.8169C267.027 91.0531 267.078 91.3051 267.078 91.5732C267.078 91.8412 267.027 92.0933 266.924 92.3294C266.822 92.5655 266.679 92.773 266.494 92.9516C266.315 93.124 266.104 93.2644 265.862 93.3728C265.626 93.475 265.367 93.526 265.086 93.526C264.812 93.526 264.55 93.475 264.301 93.3728C264.059 93.2644 263.845 93.124 263.66 92.9516C263.481 92.773 263.338 92.5655 263.229 92.3294C263.127 92.0933 263.076 91.8412 263.076 91.5732C263.076 91.3051 263.127 91.0531 263.229 90.8169C263.338 90.5808 263.481 90.3766 263.66 90.2043C263.845 90.0256 264.059 89.8852 264.301 89.7831C264.55 89.681 264.812 89.6299 265.086 89.6299ZM257.218 91.5732C257.218 91.3051 257.269 91.0531 257.371 90.8169C257.479 90.5808 257.623 90.3766 257.802 90.2043C257.987 90.0256 258.2 89.8852 258.443 89.7831C258.692 89.681 258.954 89.6299 259.228 89.6299C259.509 89.6299 259.767 89.681 260.003 89.7831C260.246 89.8852 260.456 90.0256 260.635 90.2043C260.82 90.3766 260.964 90.5808 261.066 90.8169C261.168 91.0531 261.219 91.3051 261.219 91.5732C261.219 91.8412 261.168 92.0933 261.066 92.3294C260.964 92.5655 260.82 92.773 260.635 92.9516C260.456 93.124 260.246 93.2644 260.003 93.3728C259.767 93.475 259.509 93.526 259.228 93.526C258.954 93.526 258.692 93.475 258.443 93.3728C258.2 93.2644 257.987 93.124 257.802 92.9516C257.623 92.773 257.479 92.5655 257.371 92.3294C257.269 92.0933 257.218 91.8412 257.218 91.5732ZM270.199 115.754V95.5363H274.219V98.006H274.401C274.49 97.8082 274.586 97.604 274.688 97.3934C274.797 97.1828 274.924 96.9786 275.071 96.7807C275.218 96.5829 275.39 96.3978 275.588 96.2255C275.792 96.0532 276.035 95.9032 276.316 95.7756C276.596 95.6416 276.922 95.5363 277.292 95.4597C277.662 95.3831 278.093 95.3448 278.584 95.3448C279.51 95.3448 280.339 95.4788 281.073 95.7469C281.814 96.0149 282.439 96.4489 282.95 97.0488C283.46 97.6487 283.853 98.4304 284.127 99.3941C284.401 100.351 284.539 101.522 284.539 102.907C284.539 104.254 284.408 105.409 284.146 106.373C283.884 107.33 283.498 108.112 282.988 108.718C282.484 109.324 281.861 109.771 281.121 110.058C280.381 110.339 279.532 110.479 278.575 110.479C277.86 110.479 277.267 110.4 276.794 110.24C276.328 110.087 275.939 109.889 275.626 109.646C275.32 109.398 275.074 109.12 274.889 108.814C274.704 108.501 274.542 108.191 274.401 107.885H274.277V115.754H270.199ZM274.401 102.888C274.401 103.66 274.436 104.324 274.506 104.879C274.577 105.428 274.714 105.878 274.918 106.229C275.129 106.574 275.422 106.829 275.799 106.995C276.175 107.154 276.67 107.234 277.283 107.234C277.902 107.234 278.409 107.151 278.805 106.985C279.207 106.819 279.523 106.561 279.752 106.21C279.988 105.852 280.151 105.399 280.24 104.851C280.33 104.302 280.374 103.648 280.374 102.888C280.374 102.129 280.33 101.481 280.24 100.945C280.151 100.402 279.992 99.9557 279.762 99.6047C279.532 99.2537 279.216 98.9984 278.814 98.8389C278.418 98.6729 277.908 98.59 277.283 98.59C276.67 98.59 276.172 98.6698 275.789 98.8293C275.413 98.9825 275.122 99.2314 274.918 99.576C274.714 99.9206 274.577 100.364 274.506 100.907C274.436 101.449 274.401 102.11 274.401 102.888ZM47.5331 142.24V122.635H51.6781V131.279H51.9366L58.9917 122.635H63.9599L56.6846 131.413L64.0461 142.24H59.0874L53.7171 134.18L51.6781 136.669V142.24H47.5331ZM64.4246 142.24V127.536H68.5025V142.24H64.4246ZM64.2714 123.573C64.2714 123.292 64.3288 123.028 64.4437 122.779C64.5586 122.523 64.7149 122.303 64.9128 122.118C65.117 121.933 65.3531 121.786 65.6212 121.678C65.8892 121.569 66.1732 121.515 66.4731 121.515C66.7795 121.515 67.0666 121.569 67.3347 121.678C67.6027 121.786 67.8356 121.933 68.0335 122.118C68.2377 122.303 68.3972 122.523 68.5121 122.779C68.627 123.028 68.6844 123.292 68.6844 123.573C68.6844 123.86 68.627 124.128 68.5121 124.377C68.3972 124.626 68.2377 124.846 68.0335 125.038C67.8356 125.223 67.6027 125.37 67.3347 125.478C67.0666 125.587 66.7795 125.641 66.4731 125.641C66.1732 125.641 65.8892 125.587 65.6212 125.478C65.3531 125.37 65.117 125.223 64.9128 125.038C64.7149 124.846 64.5586 124.626 64.4437 124.377C64.3288 124.128 64.2714 123.86 64.2714 123.573ZM70.2284 142.24V122.635H74.3064V130.006H74.4308C74.5202 129.808 74.6159 129.604 74.718 129.393C74.8265 129.183 74.9542 128.979 75.1009 128.781C75.2477 128.583 75.42 128.398 75.6179 128.226C75.8221 128.053 76.0646 127.903 76.3454 127.776C76.6262 127.642 76.9517 127.536 77.3218 127.46C77.692 127.383 78.1227 127.345 78.6141 127.345C79.5395 127.345 80.3691 127.479 81.103 127.747C81.8433 128.015 82.4687 128.449 82.9793 129.049C83.4898 129.649 83.8823 130.43 84.1567 131.394C84.4312 132.351 84.5684 133.522 84.5684 134.907C84.5684 136.254 84.4375 137.409 84.1759 138.373C83.9142 139.33 83.5281 140.112 83.0176 140.718C82.5134 141.324 81.8912 141.771 81.1509 142.058C80.4106 142.339 79.5618 142.479 78.6046 142.479C77.8898 142.479 77.2963 142.4 76.824 142.24C76.3582 142.087 75.9689 141.889 75.6561 141.646C75.3498 141.398 75.1041 141.12 74.9191 140.814C74.734 140.501 74.5712 140.191 74.4308 139.885H74.249V142.24H70.2284ZM74.4308 134.888C74.4308 135.66 74.4659 136.324 74.5361 136.879C74.6063 137.428 74.7436 137.878 74.9478 138.229C75.1584 138.574 75.4519 138.829 75.8285 138.995C76.205 139.154 76.6996 139.234 77.3122 139.234C77.9313 139.234 78.4386 139.151 78.8343 138.985C79.2364 138.819 79.5523 138.561 79.782 138.21C80.0181 137.852 80.1809 137.399 80.2702 136.851C80.3596 136.302 80.4042 135.648 80.4042 134.888C80.4042 134.129 80.3596 133.481 80.2702 132.945C80.1809 132.402 80.0213 131.956 79.7916 131.605C79.5618 131.254 79.2459 130.998 78.8439 130.839C78.4482 130.673 77.9377 130.59 77.3122 130.59C76.6996 130.59 76.2018 130.67 75.8189 130.829C75.4424 130.982 75.152 131.231 74.9478 131.576C74.7436 131.921 74.6063 132.364 74.5361 132.907C74.4659 133.449 74.4308 134.11 74.4308 134.888ZM84.9828 138.133C84.9828 137.508 85.0498 136.969 85.1838 136.515C85.3242 136.056 85.5188 135.667 85.7677 135.348C86.0166 135.029 86.3102 134.767 86.6484 134.563C86.993 134.358 87.3696 134.193 87.778 134.065C88.1864 133.937 88.6204 133.842 89.0799 133.778C89.5458 133.707 90.0212 133.65 90.5062 133.605C91.1444 133.542 91.6869 133.506 92.1336 133.5C92.5867 133.487 92.9568 133.452 93.244 133.395C93.5312 133.331 93.7386 133.219 93.8663 133.06C94.0003 132.9 94.0673 132.642 94.0673 132.284V132.227C94.0673 131.806 94.0418 131.471 93.9907 131.222C93.9396 130.967 93.8343 130.775 93.6748 130.647C93.5216 130.513 93.3015 130.427 93.0143 130.389C92.7271 130.344 92.3506 130.322 91.8847 130.322C91.3997 130.322 91.004 130.367 90.6977 130.456C90.3914 130.539 90.1425 130.657 89.951 130.81C89.7659 130.957 89.6223 131.136 89.5202 131.346C89.4245 131.55 89.3415 131.774 89.2713 132.016L85.4997 131.71C85.6401 131.04 85.8635 130.437 86.1698 129.901C86.4825 129.358 86.8973 128.899 87.4142 128.522C87.9312 128.146 88.5566 127.855 89.2905 127.651C90.0308 127.447 90.9019 127.345 91.9038 127.345C92.5293 127.345 93.1164 127.377 93.6652 127.441C94.2204 127.498 94.7278 127.6 95.1873 127.747C95.6532 127.894 96.068 128.091 96.4317 128.34C96.7955 128.589 97.105 128.899 97.3603 129.269C97.6156 129.633 97.8102 130.067 97.9442 130.571C98.0783 131.075 98.1453 131.659 98.1453 132.323V142.24H94.2779V140.201H94.163C93.9843 140.546 93.7833 140.862 93.5599 141.149C93.3366 141.429 93.0621 141.672 92.7367 141.876C92.4112 142.08 92.0155 142.237 91.5497 142.345C91.0902 142.46 90.5286 142.518 89.8649 142.518C89.0416 142.518 88.3236 142.447 87.711 142.307C87.1047 142.167 86.5974 141.93 86.1889 141.599C85.7869 141.26 85.4837 140.81 85.2795 140.249C85.0817 139.687 84.9828 138.982 84.9828 138.133ZM91.0327 139.703C91.6007 139.703 92.0793 139.659 92.4686 139.569C92.8579 139.473 93.1738 139.32 93.4163 139.11C93.6588 138.893 93.8312 138.612 93.9333 138.267C94.0418 137.916 94.096 137.489 94.096 136.985V135.424C93.9747 135.507 93.7992 135.584 93.5695 135.654C93.3461 135.718 93.1004 135.778 92.8324 135.836C92.5644 135.887 92.2899 135.935 92.0091 135.979C91.7347 136.018 91.4858 136.053 91.2625 136.085C90.9051 136.136 90.5796 136.19 90.2861 136.247C89.9925 136.299 89.7404 136.388 89.5298 136.515C89.3256 136.637 89.166 136.812 89.0512 137.042C88.9363 137.272 88.8789 137.591 88.8789 137.999C88.8789 138.401 88.9076 138.717 88.965 138.947C89.0288 139.17 89.1405 139.339 89.3001 139.454C89.466 139.563 89.6862 139.633 89.9606 139.665C90.2414 139.69 90.5988 139.703 91.0327 139.703ZM99.6916 142.24V127.536H103.645V130.102H103.798C103.932 129.649 104.092 129.25 104.277 128.905C104.462 128.554 104.692 128.264 104.966 128.034C105.241 127.798 105.569 127.622 105.952 127.508C106.341 127.386 106.801 127.326 107.331 127.326C107.535 127.326 107.752 127.338 107.982 127.364C108.218 127.389 108.428 127.425 108.613 127.469V131.088C108.518 131.056 108.4 131.027 108.259 131.002C108.125 130.976 107.978 130.954 107.819 130.935C107.666 130.915 107.506 130.899 107.34 130.887C107.181 130.874 107.031 130.868 106.89 130.868C106.322 130.868 105.841 130.919 105.445 131.021C105.049 131.123 104.727 131.295 104.478 131.538C104.229 131.774 104.047 132.087 103.932 132.476C103.824 132.865 103.77 133.347 103.77 133.921V142.24H99.6916ZM108.511 134.955C108.511 132.447 109.098 130.552 110.272 129.269C111.453 127.986 113.243 127.345 115.643 127.345C116.734 127.345 117.707 127.501 118.562 127.814C119.417 128.12 120.142 128.586 120.735 129.212C121.329 129.831 121.779 130.606 122.085 131.538C122.398 132.469 122.554 133.561 122.554 134.812V135.932H112.541V135.941C112.541 136.611 112.595 137.173 112.704 137.626C112.819 138.073 113.004 138.436 113.259 138.717C113.521 138.992 113.862 139.189 114.283 139.311C114.711 139.426 115.241 139.483 115.872 139.483C116.332 139.483 116.718 139.448 117.031 139.378C117.343 139.301 117.605 139.193 117.816 139.052C118.033 138.905 118.208 138.727 118.342 138.516C118.476 138.306 118.594 138.06 118.696 137.779L122.468 138.028C122.328 138.711 122.091 139.33 121.76 139.885C121.434 140.434 121 140.906 120.458 141.302C119.922 141.691 119.267 141.994 118.495 142.211C117.729 142.422 116.833 142.527 115.805 142.527C114.554 142.527 113.47 142.374 112.551 142.068C111.638 141.761 110.882 141.295 110.282 140.67C109.682 140.045 109.235 139.256 108.942 138.306C108.654 137.355 108.511 136.238 108.511 134.955ZM112.541 133.404H118.715C118.715 132.849 118.664 132.38 118.562 131.997C118.46 131.608 118.291 131.295 118.055 131.059C117.819 130.823 117.509 130.654 117.126 130.552C116.743 130.443 116.271 130.389 115.71 130.389C115.135 130.389 114.647 130.446 114.245 130.561C113.849 130.67 113.524 130.845 113.269 131.088C113.013 131.33 112.828 131.643 112.713 132.026C112.598 132.409 112.541 132.868 112.541 133.404ZM123.598 142.24V127.536H127.551V130.102H127.705C127.839 129.649 127.998 129.25 128.183 128.905C128.368 128.554 128.598 128.264 128.872 128.034C129.147 127.798 129.476 127.622 129.858 127.508C130.248 127.386 130.707 127.326 131.237 127.326C131.441 127.326 131.658 127.338 131.888 127.364C132.124 127.389 132.335 127.425 132.52 127.469V131.088C132.424 131.056 132.306 131.027 132.165 131.002C132.031 130.976 131.885 130.954 131.725 130.935C131.572 130.915 131.412 130.899 131.247 130.887C131.087 130.874 130.937 130.868 130.797 130.868C130.229 130.868 129.747 130.919 129.351 131.021C128.955 131.123 128.633 131.295 128.384 131.538C128.135 131.774 127.953 132.087 127.839 132.476C127.73 132.865 127.676 133.347 127.676 133.921V142.24H123.598ZM137.709 122.635H145.444C146.663 122.635 147.712 122.775 148.593 123.056C149.48 123.337 150.211 123.758 150.785 124.32C151.36 124.875 151.784 125.567 152.058 126.397C152.333 127.227 152.47 128.187 152.47 129.279C152.47 130.376 152.333 131.34 152.058 132.169C151.784 132.993 151.356 133.679 150.776 134.228C150.195 134.776 149.455 135.191 148.555 135.472C147.655 135.746 146.583 135.884 145.338 135.884H141.854V142.24H137.709V122.635ZM141.854 126.024V132.562H144.668C145.383 132.562 145.967 132.505 146.42 132.39C146.88 132.275 147.24 132.09 147.502 131.834C147.77 131.573 147.952 131.235 148.047 130.82C148.15 130.399 148.201 129.885 148.201 129.279C148.201 128.672 148.15 128.162 148.047 127.747C147.945 127.332 147.763 126.997 147.502 126.742C147.24 126.486 146.88 126.305 146.42 126.196C145.961 126.081 145.37 126.024 144.649 126.024H141.854ZM153.468 142.24V127.536H157.422V130.102H157.575C157.709 129.649 157.869 129.25 158.054 128.905C158.239 128.554 158.469 128.264 158.743 128.034C159.017 127.798 159.346 127.622 159.729 127.508C160.118 127.386 160.578 127.326 161.107 127.326C161.312 127.326 161.529 127.338 161.758 127.364C161.994 127.389 162.205 127.425 162.39 127.469V131.088C162.294 131.056 162.176 131.027 162.036 131.002C161.902 130.976 161.755 130.954 161.596 130.935C161.442 130.915 161.283 130.899 161.117 130.887C160.957 130.874 160.807 130.868 160.667 130.868C160.099 130.868 159.617 130.919 159.222 131.021C158.826 131.123 158.504 131.295 158.255 131.538C158.006 131.774 157.824 132.087 157.709 132.476C157.601 132.865 157.546 133.347 157.546 133.921V142.24H153.468ZM162.288 134.946C162.288 132.425 162.875 130.529 164.049 129.259C165.23 127.983 167.055 127.345 169.525 127.345C171.994 127.345 173.816 127.983 174.991 129.259C176.171 130.529 176.762 132.425 176.762 134.946C176.762 137.447 176.171 139.336 174.991 140.613C173.816 141.889 171.994 142.527 169.525 142.527C167.055 142.527 165.23 141.889 164.049 140.613C162.875 139.336 162.288 137.447 162.288 134.946ZM166.433 134.917C166.433 135.676 166.474 136.337 166.557 136.898C166.646 137.454 166.806 137.916 167.036 138.286C167.265 138.65 167.581 138.921 167.983 139.1C168.392 139.279 168.912 139.368 169.544 139.368C170.169 139.368 170.68 139.279 171.075 139.1C171.477 138.921 171.79 138.65 172.014 138.286C172.243 137.916 172.4 137.454 172.483 136.898C172.572 136.337 172.617 135.676 172.617 134.917C172.617 134.157 172.572 133.497 172.483 132.935C172.4 132.374 172.243 131.911 172.014 131.547C171.79 131.177 171.477 130.903 171.075 130.724C170.68 130.545 170.169 130.456 169.544 130.456C168.912 130.456 168.392 130.545 167.983 130.724C167.581 130.903 167.265 131.177 167.036 131.547C166.806 131.911 166.646 132.374 166.557 132.935C166.474 133.497 166.433 134.157 166.433 134.917ZM177.796 147.754V127.536H181.816V130.006H181.998C182.088 129.808 182.183 129.604 182.285 129.393C182.394 129.183 182.522 128.979 182.668 128.781C182.815 128.583 182.987 128.398 183.185 128.226C183.389 128.053 183.632 127.903 183.913 127.776C184.194 127.642 184.519 127.536 184.889 127.46C185.259 127.383 185.69 127.345 186.182 127.345C187.107 127.345 187.937 127.479 188.67 127.747C189.411 128.015 190.036 128.449 190.547 129.049C191.057 129.649 191.45 130.43 191.724 131.394C191.999 132.351 192.136 133.522 192.136 134.907C192.136 136.254 192.005 137.409 191.743 138.373C191.482 139.33 191.096 140.112 190.585 140.718C190.081 141.324 189.459 141.771 188.718 142.058C187.978 142.339 187.129 142.479 186.172 142.479C185.457 142.479 184.864 142.4 184.391 142.24C183.926 142.087 183.536 141.889 183.224 141.646C182.917 141.398 182.672 141.12 182.486 140.814C182.301 140.501 182.139 140.191 181.998 139.885H181.874V147.754H177.796ZM181.998 134.888C181.998 135.66 182.033 136.324 182.104 136.879C182.174 137.428 182.311 137.878 182.515 138.229C182.726 138.574 183.019 138.829 183.396 138.995C183.772 139.154 184.267 139.234 184.88 139.234C185.499 139.234 186.006 139.151 186.402 138.985C186.804 138.819 187.12 138.561 187.349 138.21C187.586 137.852 187.748 137.399 187.838 136.851C187.927 136.302 187.972 135.648 187.972 134.888C187.972 134.129 187.927 133.481 187.838 132.945C187.748 132.402 187.589 131.956 187.359 131.605C187.129 131.254 186.813 130.998 186.411 130.839C186.016 130.673 185.505 130.59 184.88 130.59C184.267 130.59 183.769 130.67 183.386 130.829C183.01 130.982 182.719 131.231 182.515 131.576C182.311 131.921 182.174 132.364 182.104 132.907C182.033 133.449 181.998 134.11 181.998 134.888ZM192.644 134.955C192.644 132.447 193.231 130.552 194.405 129.269C195.586 127.986 197.376 127.345 199.775 127.345C200.866 127.345 201.84 127.501 202.695 127.814C203.55 128.12 204.274 128.586 204.868 129.212C205.461 129.831 205.911 130.606 206.218 131.538C206.53 132.469 206.687 133.561 206.687 134.812V135.932H196.674V135.941C196.674 136.611 196.728 137.173 196.836 137.626C196.951 138.073 197.136 138.436 197.392 138.717C197.653 138.992 197.995 139.189 198.416 139.311C198.843 139.426 199.373 139.483 200.005 139.483C200.464 139.483 200.851 139.448 201.163 139.378C201.476 139.301 201.738 139.193 201.948 139.052C202.165 138.905 202.341 138.727 202.475 138.516C202.609 138.306 202.727 138.06 202.829 137.779L206.601 138.028C206.46 138.711 206.224 139.33 205.892 139.885C205.567 140.434 205.133 140.906 204.59 141.302C204.054 141.691 203.4 141.994 202.628 142.211C201.862 142.422 200.965 142.527 199.938 142.527C198.687 142.527 197.602 142.374 196.683 142.068C195.771 141.761 195.014 141.295 194.414 140.67C193.815 140.045 193.368 139.256 193.074 138.306C192.787 137.355 192.644 136.238 192.644 134.955ZM196.674 133.404H202.848C202.848 132.849 202.797 132.38 202.695 131.997C202.593 131.608 202.424 131.295 202.188 131.059C201.951 130.823 201.642 130.654 201.259 130.552C200.876 130.443 200.404 130.389 199.842 130.389C199.268 130.389 198.78 130.446 198.378 130.561C197.982 130.67 197.656 130.845 197.401 131.088C197.146 131.33 196.961 131.643 196.846 132.026C196.731 132.409 196.674 132.868 196.674 133.404ZM207.731 142.24V127.536H211.684V130.102H211.837C211.971 129.649 212.131 129.25 212.316 128.905C212.501 128.554 212.731 128.264 213.005 128.034C213.28 127.798 213.608 127.622 213.991 127.508C214.38 127.386 214.84 127.326 215.37 127.326C215.574 127.326 215.791 127.338 216.02 127.364C216.257 127.389 216.467 127.425 216.652 127.469V131.088C216.557 131.056 216.439 131.027 216.298 131.002C216.164 130.976 216.017 130.954 215.858 130.935C215.705 130.915 215.545 130.899 215.379 130.887C215.22 130.874 215.07 130.868 214.929 130.868C214.361 130.868 213.879 130.919 213.484 131.021C213.088 131.123 212.766 131.295 212.517 131.538C212.268 131.774 212.086 132.087 211.971 132.476C211.863 132.865 211.808 133.347 211.808 133.921V142.24H207.731ZM218.12 127.536V124.014H222.198V127.536H224.964V130.6H222.198V137.722C222.198 138.124 222.207 138.427 222.226 138.631C222.252 138.829 222.309 138.966 222.399 139.043C222.494 139.119 222.632 139.158 222.81 139.158C222.995 139.158 223.251 139.158 223.576 139.158H224.964L225.443 142.441H223.021C222.159 142.441 221.419 142.38 220.8 142.259C220.181 142.138 219.67 141.921 219.268 141.608C218.873 141.295 218.579 140.871 218.388 140.335C218.203 139.793 218.113 139.1 218.12 138.258V130.6H216.109V127.536H218.12ZM229.124 127.536L232.168 138.334H232.321L235.394 127.536L239.711 127.555L233.996 143.829C233.792 144.416 233.534 144.949 233.221 145.428C232.908 145.913 232.529 146.324 232.082 146.663C231.642 147.001 231.128 147.262 230.541 147.448C229.954 147.633 229.28 147.725 228.521 147.725C228.004 147.725 227.519 147.687 227.066 147.61C226.619 147.534 226.249 147.435 225.955 147.314L226.874 144.26C227.117 144.336 227.347 144.394 227.564 144.432C227.781 144.477 227.988 144.499 228.186 144.499C228.562 144.499 228.888 144.407 229.162 144.222C229.443 144.036 229.679 143.724 229.871 143.283L230.11 142.661L224.835 127.536H229.124Z" fill="#D9C6A5"/>
<path fill-rule="evenodd" clip-rule="evenodd" d="M117.936 36.1992V72.3985L142.119 48.6258L166.302 24.8532L155.812 24.8294L145.323 24.8054L139.085 30.9367L132.847 37.0679V18.5339V0H125.392H117.936V36.1992ZM144.255 48.9803C144.167 49.1472 142.618 52.2851 140.812 55.9535L137.528 62.6234L142.524 67.5349L147.521 72.4464L158 72.4224L168.48 72.3986L156.448 60.5378L144.416 48.6771L144.255 48.9803Z" fill="#D9C6A5"/>
</svg>
