<svg width="176" height="145" viewBox="0 0 176 145" fill="none" xmlns="http://www.w3.org/2000/svg">
<path d="M2.09961 86.6411H6.2446V95.1704H9.193C9.31425 93.7664 9.60782 92.5188 10.0737 91.4275C10.5396 90.3362 11.1586 89.4172 11.9308 88.6706C12.7094 87.9175 13.6316 87.3463 14.6973 86.957C15.7695 86.5678 16.9756 86.3731 18.3158 86.3731C19.7326 86.3731 21.0089 86.5741 22.1449 86.9762C23.2809 87.3782 24.2445 87.9941 25.0359 88.8237C25.8272 89.6534 26.4335 90.7 26.8547 91.9636C27.2823 93.2272 27.4961 94.7205 27.4961 96.4436C27.4961 98.1667 27.2823 99.6601 26.8547 100.924C26.4335 102.187 25.8272 103.234 25.0359 104.064C24.2445 104.893 23.2809 105.509 22.1449 105.911C21.0089 106.313 19.7326 106.514 18.3158 106.514C17.0331 106.514 15.8716 106.335 14.8313 105.978C13.7975 105.614 12.8976 105.088 12.1318 104.399C11.3724 103.709 10.7502 102.861 10.2651 101.852C9.78651 100.844 9.45465 99.6952 9.26958 98.406H6.2446V106.246H2.09961V86.6411ZM18.3158 102.848C19.1901 102.848 19.94 102.733 20.5654 102.503C21.1908 102.267 21.7046 101.894 22.1066 101.383C22.515 100.873 22.815 100.212 23.0064 99.4016C23.1979 98.5847 23.2936 97.5987 23.2936 96.4436C23.2936 95.2821 23.1979 94.2961 23.0064 93.4856C22.815 92.6752 22.515 92.0146 22.1066 91.5041C21.7046 90.9935 21.1908 90.6234 20.5654 90.3937C19.94 90.1575 19.1901 90.0395 18.3158 90.0395C17.4415 90.0395 16.6884 90.1575 16.0566 90.3937C15.4312 90.6234 14.9175 90.9935 14.5154 91.5041C14.1134 92.0146 13.8166 92.6752 13.6252 93.4856C13.4337 94.2961 13.338 95.2821 13.338 96.4436C13.338 97.5987 13.4337 98.5847 13.6252 99.4016C13.8166 100.212 14.1134 100.873 14.5154 101.383C14.9175 101.894 15.4312 102.267 16.0566 102.503C16.6884 102.733 17.4415 102.848 18.3158 102.848ZM27.3887 111.76V91.5424H31.4093V94.0121H31.5912C31.6805 93.8143 31.7762 93.6101 31.8784 93.3995C31.9868 93.1889 32.1145 92.9847 32.2613 92.7868C32.408 92.589 32.5804 92.4039 32.7782 92.2316C32.9824 92.0593 33.2249 91.9093 33.5057 91.7817C33.7865 91.6477 34.112 91.5424 34.4821 91.4658C34.8523 91.3892 35.2831 91.3509 35.7745 91.3509C36.6998 91.3509 37.5295 91.4849 38.2634 91.753C39.0037 92.021 39.6291 92.455 40.1396 93.0549C40.6502 93.6548 41.0426 94.4365 41.3171 95.4002C41.5915 96.3575 41.7287 97.5285 41.7287 98.9134C41.7287 100.26 41.5979 101.415 41.3362 102.379C41.0746 103.336 40.6885 104.118 40.1779 104.724C39.6737 105.33 39.0515 105.777 38.3112 106.064C37.5709 106.345 36.7222 106.485 35.7649 106.485C35.0501 106.485 34.4566 106.406 33.9844 106.246C33.5185 106.093 33.1292 105.895 32.8165 105.653C32.5102 105.404 32.2645 105.126 32.0794 104.82C31.8943 104.507 31.7316 104.198 31.5912 103.891H31.4667V111.76H27.3887ZM31.5912 98.8942C31.5912 99.6664 31.6263 100.33 31.6965 100.885C31.7667 101.434 31.9039 101.884 32.1081 102.235C32.3187 102.58 32.6123 102.835 32.9888 103.001C33.3653 103.16 33.8599 103.24 34.4726 103.24C35.0916 103.24 35.599 103.157 35.9946 102.991C36.3967 102.825 36.7126 102.567 36.9423 102.216C37.1785 101.859 37.3412 101.405 37.4305 100.857C37.5199 100.308 37.5646 99.6537 37.5646 98.8942C37.5646 98.1348 37.5199 97.487 37.4305 96.951C37.3412 96.4085 37.1816 95.9618 36.9519 95.6108C36.7222 95.2598 36.4063 95.0045 36.0042 94.845C35.6085 94.679 35.098 94.5961 34.4726 94.5961C33.8599 94.5961 33.3621 94.6759 32.9792 94.8354C32.6027 94.9886 32.3123 95.2375 32.1081 95.5821C31.9039 95.9267 31.7667 96.3702 31.6965 96.9127C31.6263 97.4551 31.5912 98.1157 31.5912 98.8942ZM42.8299 106.246V91.5424H46.726V100.866L52.0198 91.5424H56.0403V106.246H52.1538V96.8935L46.8792 106.246H42.8299ZM56.5433 110.554V103.011H57.6728C57.9919 102.806 58.2536 102.481 58.4578 102.034C58.6684 101.587 58.8375 101.064 58.9652 100.464C59.0928 99.8579 59.1917 99.2006 59.2619 98.4922C59.3385 97.7838 59.4055 97.069 59.4629 96.3479L59.8458 91.5424H71.1225V103.011H73.4008V110.554H69.5143V106.246H60.5255V110.554H56.5433ZM61.7317 103.011H67.2743V94.6822H63.3112L63.158 96.3479C63.1006 97.1329 63.0336 97.8572 62.957 98.5209C62.8868 99.1846 62.7974 99.7941 62.6889 100.349C62.5805 100.898 62.4464 101.393 62.2869 101.833C62.1337 102.273 61.9487 102.666 61.7317 103.011ZM74.1598 106.246V91.5424H78.056V100.866L83.3497 91.5424H87.3702V106.246H83.4837V96.8935L78.2091 106.246H74.1598ZM89.0219 91.5232H92.8701V96.5393C92.8701 97.0818 92.8988 97.5062 92.9563 97.8125C93.0201 98.1188 93.1541 98.3486 93.3583 98.5018C93.5626 98.6485 93.8593 98.7379 94.2486 98.7698C94.6443 98.8017 95.1708 98.8177 95.8281 98.8177C96.5365 98.8177 97.2321 98.7379 97.915 98.5783V91.5424H101.782V106.246H97.915V101.804C97.564 101.875 97.2098 101.929 96.8524 101.967C96.495 102.005 96.1536 102.025 95.8281 102.025C94.6283 102.025 93.5977 101.942 92.7361 101.776C91.881 101.603 91.1758 101.31 90.6205 100.895C90.0717 100.48 89.6665 99.9217 89.4048 99.2197C89.1495 98.5113 89.0219 97.6179 89.0219 96.5393V91.5232ZM102.738 98.9612C102.738 96.4532 103.325 94.5578 104.499 93.275C105.68 91.9923 107.47 91.3509 109.869 91.3509C110.961 91.3509 111.934 91.5073 112.789 91.82C113.644 92.1263 114.368 92.5922 114.962 93.2176C115.555 93.8366 116.005 94.612 116.312 95.5438C116.624 96.4755 116.781 97.5668 116.781 98.8177V99.9377H106.768V99.9472C106.768 100.617 106.822 101.179 106.93 101.632C107.045 102.079 107.23 102.443 107.486 102.723C107.747 102.998 108.089 103.196 108.51 103.317C108.938 103.432 109.467 103.489 110.099 103.489C110.559 103.489 110.945 103.454 111.257 103.384C111.57 103.307 111.832 103.199 112.042 103.058C112.259 102.912 112.435 102.733 112.569 102.522C112.703 102.312 112.821 102.066 112.923 101.785L116.695 102.034C116.554 102.717 116.318 103.336 115.986 103.891C115.661 104.44 115.227 104.912 114.684 105.308C114.148 105.697 113.494 106 112.722 106.217C111.956 106.428 111.059 106.533 110.032 106.533C108.781 106.533 107.696 106.38 106.777 106.074C105.865 105.767 105.108 105.302 104.509 104.676C103.909 104.051 103.462 103.263 103.168 102.312C102.881 101.361 102.738 100.244 102.738 98.9612ZM106.768 97.4105H112.942C112.942 96.8552 112.891 96.3862 112.789 96.0033C112.687 95.614 112.518 95.3013 112.282 95.0651C112.045 94.829 111.736 94.6599 111.353 94.5578C110.97 94.4493 110.498 94.3951 109.936 94.3951C109.362 94.3951 108.874 94.4525 108.472 94.5674C108.076 94.6759 107.751 94.8514 107.495 95.0939C107.24 95.3364 107.055 95.6491 106.94 96.032C106.825 96.4149 106.768 96.8744 106.768 97.4105ZM117.231 98.9517C117.231 97.7072 117.371 96.6127 117.652 95.6682C117.939 94.7173 118.377 93.9228 118.964 93.2846C119.557 92.6464 120.307 92.1646 121.213 91.8391C122.126 91.5137 123.204 91.3509 124.449 91.3509C125.553 91.3509 126.507 91.4849 127.311 91.753C128.122 92.021 128.795 92.4007 129.331 92.8921C129.867 93.3835 130.272 93.977 130.547 94.6727C130.828 95.3619 130.99 96.1309 131.035 96.9797H127.187C127.129 96.6159 127.046 96.2841 126.938 95.9841C126.829 95.6778 126.673 95.4193 126.469 95.2087C126.271 94.9918 126.012 94.8258 125.693 94.711C125.381 94.5897 124.988 94.5291 124.516 94.5291C123.922 94.5291 123.425 94.6057 123.023 94.7588C122.621 94.9056 122.295 95.1513 122.046 95.4959C121.804 95.8342 121.631 96.2809 121.529 96.8361C121.427 97.3913 121.376 98.0774 121.376 98.8942C121.376 99.7175 121.427 100.41 121.529 100.972C121.631 101.533 121.804 101.989 122.046 102.34C122.295 102.685 122.621 102.934 123.023 103.087C123.425 103.234 123.922 103.307 124.516 103.307C124.988 103.307 125.381 103.253 125.693 103.145C126.006 103.036 126.261 102.88 126.459 102.675C126.663 102.465 126.82 102.206 126.928 101.9C127.043 101.594 127.129 101.246 127.187 100.857H131.035C130.99 101.699 130.828 102.471 130.547 103.173C130.266 103.869 129.858 104.466 129.321 104.963C128.792 105.461 128.125 105.847 127.321 106.122C126.517 106.396 125.566 106.533 124.468 106.533C123.217 106.533 122.136 106.371 121.223 106.045C120.317 105.72 119.567 105.238 118.973 104.6C118.38 103.961 117.939 103.17 117.652 102.226C117.371 101.281 117.231 100.19 117.231 98.9517ZM132.029 106.246V91.5424H136.106V97.2477H137.255L141.257 91.5424H146.043L140.845 98.8368L146.1 106.246H141.257L137.629 101.029H136.106V106.246H132.029ZM145.613 98.9517C145.613 96.4309 146.2 94.5355 147.374 93.2655C148.555 91.9891 150.38 91.3509 152.85 91.3509C155.319 91.3509 157.141 91.9891 158.316 93.2655C159.496 94.5355 160.087 96.4309 160.087 98.9517C160.087 101.453 159.496 103.342 158.316 104.619C157.141 105.895 155.319 106.533 152.85 106.533C150.38 106.533 148.555 105.895 147.374 104.619C146.2 103.342 145.613 101.453 145.613 98.9517ZM149.758 98.923C149.758 99.6824 149.799 100.343 149.882 100.905C149.971 101.46 150.131 101.922 150.361 102.293C150.59 102.656 150.906 102.928 151.308 103.106C151.717 103.285 152.237 103.374 152.869 103.374C153.494 103.374 154.005 103.285 154.4 103.106C154.802 102.928 155.115 102.656 155.338 102.293C155.568 101.922 155.725 101.46 155.808 100.905C155.897 100.343 155.942 99.6824 155.942 98.923C155.942 98.1635 155.897 97.503 155.808 96.9414C155.725 96.3798 155.568 95.9171 155.338 95.5534C155.115 95.1832 154.802 94.9088 154.4 94.7301C154.005 94.5514 153.494 94.4621 152.869 94.4621C152.237 94.4621 151.717 94.5514 151.308 94.7301C150.906 94.9088 150.59 95.1832 150.361 95.5534C150.131 95.9171 149.971 96.3798 149.882 96.9414C149.799 97.503 149.758 98.1635 149.758 98.923ZM160.527 98.9612C160.527 96.4532 161.114 94.5578 162.289 93.275C163.469 91.9923 165.259 91.3509 167.659 91.3509C168.75 91.3509 169.723 91.5073 170.579 91.82C171.434 92.1263 172.158 92.5922 172.752 93.2176C173.345 93.8366 173.795 94.612 174.101 95.5438C174.414 96.4755 174.57 97.5668 174.57 98.8177V99.9377H164.557V99.9472C164.557 100.617 164.612 101.179 164.72 101.632C164.835 102.079 165.02 102.443 165.275 102.723C165.537 102.998 165.878 103.196 166.3 103.317C166.727 103.432 167.257 103.489 167.889 103.489C168.348 103.489 168.734 103.454 169.047 103.384C169.36 103.307 169.621 103.199 169.832 103.058C170.049 102.912 170.224 102.733 170.358 102.522C170.493 102.312 170.611 102.066 170.713 101.785L174.484 102.034C174.344 102.717 174.108 103.336 173.776 103.891C173.45 104.44 173.017 104.912 172.474 105.308C171.938 105.697 171.284 106 170.512 106.217C169.746 106.428 168.849 106.533 167.822 106.533C166.571 106.533 165.486 106.38 164.567 106.074C163.654 105.767 162.898 105.302 162.298 104.676C161.698 104.051 161.252 103.263 160.958 102.312C160.671 101.361 160.527 100.244 160.527 98.9612ZM164.557 97.4105H170.732C170.732 96.8552 170.681 96.3862 170.579 96.0033C170.477 95.614 170.307 95.3013 170.071 95.0651C169.835 94.829 169.526 94.6599 169.143 94.5578C168.76 94.4493 168.288 94.3951 167.726 94.3951C167.152 94.3951 166.663 94.4525 166.261 94.5674C165.866 94.6759 165.54 94.8514 165.285 95.0939C165.03 95.3364 164.845 95.6491 164.73 96.032C164.615 96.4149 164.557 96.8744 164.557 97.4105ZM9.01111 130.952C9.01111 128.431 9.59824 126.535 10.7725 125.265C11.9531 123.989 13.7783 123.351 16.2481 123.351C18.7179 123.351 20.5399 123.989 21.7141 125.265C22.8948 126.535 23.4851 128.431 23.4851 130.952C23.4851 133.453 22.8948 135.342 21.7141 136.619C20.5399 137.895 18.7179 138.533 16.2481 138.533C13.7783 138.533 11.9531 137.895 10.7725 136.619C9.59824 135.342 9.01111 133.453 9.01111 130.952ZM13.1561 130.923C13.1561 131.682 13.1976 132.343 13.2805 132.905C13.3699 133.46 13.5294 133.922 13.7592 134.293C13.9889 134.656 14.3048 134.928 14.7069 135.106C15.1153 135.285 15.6354 135.374 16.2672 135.374C16.8927 135.374 17.4032 135.285 17.7989 135.106C18.2009 134.928 18.5136 134.656 18.737 134.293C18.9667 133.922 19.1231 133.46 19.2061 132.905C19.2954 132.343 19.3401 131.682 19.3401 130.923C19.3401 130.164 19.2954 129.503 19.2061 128.941C19.1231 128.38 18.9667 127.917 18.737 127.553C18.5136 127.183 18.2009 126.909 17.7989 126.73C17.4032 126.551 16.8927 126.462 16.2672 126.462C15.6354 126.462 15.1153 126.551 14.7069 126.73C14.3048 126.909 13.9889 127.183 13.7592 127.553C13.5294 127.917 13.3699 128.38 13.2805 128.941C13.1976 129.503 13.1561 130.164 13.1561 130.923ZM32.1201 118.641C32.3307 118.635 32.5349 118.635 32.7327 118.641C32.9305 118.641 33.122 118.641 33.3071 118.641C33.7027 118.641 34.0697 118.641 34.4079 118.641C34.7462 118.635 35.0589 118.616 35.3461 118.584C35.6333 118.552 35.8917 118.504 36.1215 118.44C36.3576 118.37 36.565 118.271 36.7437 118.143L37.9881 120.805C37.7775 120.977 37.5701 121.127 37.3659 121.255C37.1681 121.376 36.9511 121.478 36.715 121.561C36.4852 121.644 36.2331 121.714 35.9587 121.771C35.6843 121.822 35.3684 121.864 35.011 121.896C34.66 121.921 34.258 121.944 33.8049 121.963C33.3518 121.976 32.8348 121.985 32.2541 121.992C31.284 121.998 30.4863 122.1 29.8609 122.298C29.2355 122.496 28.7345 122.802 28.358 123.217C27.9814 123.632 27.7038 124.161 27.5251 124.806C27.3465 125.451 27.2124 126.223 27.1231 127.123H27.2667C27.49 126.669 27.7326 126.271 27.9942 125.926C28.2559 125.575 28.5718 125.278 28.9419 125.036C29.3184 124.793 29.762 124.611 30.2725 124.49C30.7831 124.362 31.3925 124.299 32.1009 124.299C33.1603 124.299 34.0825 124.433 34.8674 124.701C35.6524 124.969 36.3033 125.384 36.8203 125.945C37.3436 126.507 37.7329 127.222 37.9881 128.089C38.2434 128.951 38.3711 129.982 38.3711 131.181C38.3711 132.426 38.2275 133.508 37.9403 134.427C37.6531 135.346 37.2128 136.111 36.6192 136.724C36.0321 137.33 35.2854 137.783 34.3792 138.083C33.4794 138.383 32.4136 138.533 31.1819 138.533C29.9502 138.533 28.8813 138.38 27.9751 138.074C27.0688 137.761 26.319 137.276 25.7255 136.619C25.132 135.955 24.6916 135.106 24.4044 134.072C24.1173 133.032 23.9737 131.785 23.9737 130.329V129.123C23.9737 127.234 24.1236 125.629 24.4236 124.308C24.7299 122.981 25.2085 121.899 25.8595 121.063C26.5168 120.227 27.3592 119.618 28.3867 119.235C29.4205 118.852 30.665 118.654 32.1201 118.641ZM31.2011 135.374C31.7882 135.374 32.2764 135.304 32.6657 135.164C33.055 135.023 33.3645 134.794 33.5943 134.474C33.824 134.149 33.9867 133.728 34.0825 133.211C34.1782 132.694 34.2261 132.062 34.2261 131.315C34.2261 130.569 34.1782 129.947 34.0825 129.449C33.9867 128.945 33.8208 128.539 33.5847 128.233C33.3549 127.927 33.0454 127.71 32.6561 127.582C32.2668 127.454 31.7754 127.391 31.1819 127.391C30.5884 127.391 30.0938 127.454 29.6982 127.582C29.3089 127.71 28.9962 127.927 28.76 128.233C28.5303 128.539 28.3675 128.945 28.2718 129.449C28.1761 129.947 28.125 130.569 28.1187 131.315C28.1187 132.062 28.1665 132.694 28.2622 133.211C28.358 133.728 28.5239 134.149 28.76 134.474C28.9962 134.794 29.3121 135.023 29.7077 135.164C30.1034 135.304 30.6012 135.374 31.2011 135.374ZM39.4603 143.76V123.542H43.4809V126.012H43.6628C43.7521 125.814 43.8478 125.61 43.9499 125.399C44.0584 125.189 44.1861 124.985 44.3329 124.787C44.4796 124.589 44.6519 124.404 44.8498 124.232C45.054 124.059 45.2965 123.909 45.5773 123.782C45.8581 123.648 46.1836 123.542 46.5537 123.466C46.9239 123.389 47.3546 123.351 47.846 123.351C48.7714 123.351 49.601 123.485 50.335 123.753C51.0752 124.021 51.7007 124.455 52.2112 125.055C52.7218 125.655 53.1142 126.437 53.3887 127.4C53.6631 128.357 53.8003 129.529 53.8003 130.913C53.8003 132.26 53.6695 133.415 53.4078 134.379C53.1461 135.336 52.76 136.118 52.2495 136.724C51.7453 137.33 51.1231 137.777 50.3828 138.064C49.6425 138.345 48.7937 138.485 47.8365 138.485C47.1217 138.485 46.5282 138.406 46.0559 138.246C45.5901 138.093 45.2008 137.895 44.8881 137.653C44.5817 137.404 44.336 137.126 44.151 136.82C43.9659 136.507 43.8032 136.198 43.6628 135.891H43.5383V143.76H39.4603ZM43.6628 130.894C43.6628 131.666 43.6979 132.33 43.7681 132.885C43.8383 133.434 43.9755 133.884 44.1797 134.235C44.3903 134.58 44.6839 134.835 45.0604 135.001C45.4369 135.16 45.9315 135.24 46.5442 135.24C47.1632 135.24 47.6705 135.157 48.0662 134.991C48.4683 134.825 48.7842 134.567 49.0139 134.216C49.25 133.859 49.4128 133.405 49.5021 132.857C49.5915 132.308 49.6361 131.654 49.6361 130.894C49.6361 130.135 49.5915 129.487 49.5021 128.951C49.4128 128.409 49.2532 127.962 49.0235 127.611C48.7937 127.26 48.4778 127.005 48.0758 126.845C47.6801 126.679 47.1696 126.596 46.5442 126.596C45.9315 126.596 45.4337 126.676 45.0508 126.835C44.6743 126.989 44.3839 127.237 44.1797 127.582C43.9755 127.927 43.8383 128.37 43.7681 128.913C43.6979 129.455 43.6628 130.116 43.6628 130.894ZM54.2123 134.139C54.2123 133.514 54.2793 132.975 54.4133 132.522C54.5537 132.062 54.7484 131.673 54.9972 131.354C55.2461 131.035 55.5397 130.773 55.8779 130.569C56.2226 130.365 56.5991 130.199 57.0075 130.071C57.416 129.943 57.8499 129.848 58.3094 129.784C58.7753 129.714 59.2507 129.656 59.7358 129.611C60.3739 129.548 60.9164 129.513 61.3631 129.506C61.8162 129.493 62.1864 129.458 62.4736 129.401C62.7607 129.337 62.9681 129.225 63.0958 129.066C63.2298 128.906 63.2968 128.648 63.2968 128.29V128.233C63.2968 127.812 63.2713 127.477 63.2202 127.228C63.1692 126.973 63.0639 126.781 62.9043 126.654C62.7512 126.52 62.531 126.433 62.2438 126.395C61.9566 126.35 61.5801 126.328 61.1142 126.328C60.6292 126.328 60.2335 126.373 59.9272 126.462C59.6209 126.545 59.372 126.663 59.1805 126.816C58.9955 126.963 58.8519 127.142 58.7498 127.352C58.654 127.557 58.5711 127.78 58.5009 128.022L54.7292 127.716C54.8696 127.046 55.093 126.443 55.3993 125.907C55.712 125.364 56.1268 124.905 56.6438 124.528C57.1607 124.152 57.7861 123.861 58.52 123.657C59.2603 123.453 60.1314 123.351 61.1334 123.351C61.7588 123.351 62.3459 123.383 62.8948 123.447C63.45 123.504 63.9573 123.606 64.4168 123.753C64.8827 123.9 65.2975 124.098 65.6613 124.346C66.025 124.595 66.3346 124.905 66.5898 125.275C66.8451 125.639 67.0397 126.073 67.1738 126.577C67.3078 127.081 67.3748 127.665 67.3748 128.329V138.246H63.5074V136.207H63.3925C63.2138 136.552 63.0128 136.868 62.7895 137.155C62.5661 137.436 62.2917 137.678 61.9662 137.882C61.6407 138.087 61.2451 138.243 60.7792 138.351C60.3197 138.466 59.7581 138.524 59.0944 138.524C58.2711 138.524 57.5532 138.454 56.9405 138.313C56.3342 138.173 55.8269 137.937 55.4184 137.605C55.0164 137.266 54.7133 136.817 54.509 136.255C54.3112 135.693 54.2123 134.988 54.2123 134.139ZM60.2623 135.709C60.8302 135.709 61.3089 135.665 61.6982 135.575C62.0875 135.48 62.4034 135.326 62.6459 135.116C62.8884 134.899 63.0607 134.618 63.1628 134.273C63.2713 133.922 63.3255 133.495 63.3255 132.991V131.43C63.2043 131.513 63.0288 131.59 62.799 131.66C62.5757 131.724 62.33 131.785 62.0619 131.842C61.7939 131.893 61.5195 131.941 61.2387 131.986C60.9643 132.024 60.7154 132.059 60.492 132.091C60.1346 132.142 59.8091 132.196 59.5156 132.254C59.222 132.305 58.9699 132.394 58.7593 132.522C58.5551 132.643 58.3956 132.818 58.2807 133.048C58.1658 133.278 58.1084 133.597 58.1084 134.005C58.1084 134.407 58.1371 134.723 58.1945 134.953C58.2584 135.176 58.37 135.346 58.5296 135.46C58.6955 135.569 58.9157 135.639 59.1901 135.671C59.4709 135.697 59.8283 135.709 60.2623 135.709ZM68.1649 134.082H72.1185C72.1185 134.446 72.1504 134.733 72.2142 134.944C72.2844 135.148 72.4056 135.304 72.578 135.413C72.7503 135.515 72.98 135.582 73.2672 135.614C73.5608 135.639 73.9309 135.652 74.3776 135.652C74.8307 135.652 75.2073 135.636 75.5072 135.604C75.8072 135.572 76.0465 135.496 76.2252 135.374C76.4102 135.247 76.5411 135.065 76.6176 134.829C76.6942 134.586 76.7325 134.261 76.7325 133.852C76.7325 133.469 76.7038 133.16 76.6464 132.924C76.5889 132.688 76.4804 132.506 76.3209 132.378C76.1677 132.25 75.9539 132.167 75.6795 132.129C75.4051 132.084 75.0477 132.062 74.6074 132.062H72.4918V129.391H74.6074C75.0413 129.391 75.3891 129.375 75.6508 129.343C75.9125 129.312 76.1103 129.241 76.2443 129.133C76.3847 129.024 76.4741 128.871 76.5123 128.673C76.557 128.469 76.5794 128.195 76.5794 127.85C76.5794 127.486 76.5538 127.196 76.5028 126.979C76.4581 126.756 76.3656 126.587 76.2252 126.472C76.0911 126.357 75.8933 126.283 75.6317 126.251C75.3764 126.213 75.0381 126.194 74.6169 126.194C74.1957 126.194 73.8479 126.207 73.5735 126.232C73.2991 126.258 73.0821 126.322 72.9226 126.424C72.763 126.526 72.6513 126.673 72.5875 126.864C72.5237 127.056 72.4918 127.32 72.4918 127.659H68.5574C68.5574 126.88 68.685 126.22 68.9403 125.677C69.202 125.128 69.5817 124.682 70.0795 124.337C70.5773 123.992 71.1899 123.743 71.9174 123.59C72.6513 123.431 73.4906 123.351 74.4351 123.351C75.4562 123.351 76.3337 123.424 77.0676 123.571C77.8015 123.718 78.4046 123.957 78.8768 124.289C79.3491 124.615 79.6969 125.042 79.9202 125.572C80.1436 126.095 80.2553 126.736 80.2553 127.496C80.2553 128.006 80.1883 128.434 80.0543 128.779C79.9266 129.117 79.7384 129.401 79.4895 129.631C79.2406 129.86 78.9342 130.049 78.5705 130.195C78.2131 130.336 77.8047 130.46 77.3452 130.569V130.722C77.7983 130.747 78.2227 130.824 78.6183 130.952C79.014 131.079 79.3586 131.277 79.6522 131.545C79.9458 131.807 80.1787 132.151 80.351 132.579C80.5233 133.007 80.6095 133.536 80.6095 134.168C80.6095 134.972 80.4786 135.652 80.217 136.207C79.9553 136.762 79.5629 137.212 79.0395 137.557C78.5162 137.901 77.8685 138.15 77.0963 138.304C76.3241 138.457 75.4242 138.533 74.3968 138.533C73.3948 138.533 72.5046 138.457 71.726 138.304C70.9538 138.157 70.3028 137.911 69.7731 137.566C69.2498 137.215 68.851 136.756 68.5766 136.188C68.3021 135.62 68.1649 134.918 68.1649 134.082ZM80.8994 130.952C80.8994 128.431 81.4866 126.535 82.6608 125.265C83.8414 123.989 85.6666 123.351 88.1364 123.351C90.6062 123.351 92.4282 123.989 93.6024 125.265C94.7831 126.535 95.3734 128.431 95.3734 130.952C95.3734 133.453 94.7831 135.342 93.6024 136.619C92.4282 137.895 90.6062 138.533 88.1364 138.533C85.6666 138.533 83.8414 137.895 82.6608 136.619C81.4866 135.342 80.8994 133.453 80.8994 130.952ZM85.0444 130.923C85.0444 131.682 85.0859 132.343 85.1689 132.905C85.2582 133.46 85.4178 133.922 85.6475 134.293C85.8772 134.656 86.1931 134.928 86.5952 135.106C87.0036 135.285 87.5238 135.374 88.1556 135.374C88.781 135.374 89.2915 135.285 89.6872 135.106C90.0892 134.928 90.402 134.656 90.6253 134.293C90.8551 133.922 91.0114 133.46 91.0944 132.905C91.1837 132.343 91.2284 131.682 91.2284 130.923C91.2284 130.164 91.1837 129.503 91.0944 128.941C91.0114 128.38 90.8551 127.917 90.6253 127.553C90.402 127.183 90.0892 126.909 89.6872 126.73C89.2915 126.551 88.781 126.462 88.1556 126.462C87.5238 126.462 87.0036 126.551 86.5952 126.73C86.1931 126.909 85.8772 127.183 85.6475 127.553C85.4178 127.917 85.2582 128.38 85.1689 128.941C85.0859 129.503 85.0444 130.164 85.0444 130.923ZM96.4076 123.542H102.678C103.705 123.542 104.589 123.609 105.329 123.743C106.07 123.871 106.679 124.088 107.158 124.394C107.636 124.701 107.987 125.109 108.211 125.62C108.441 126.124 108.555 126.756 108.555 127.515C108.555 128.032 108.479 128.476 108.326 128.846C108.173 129.216 107.952 129.532 107.665 129.793C107.378 130.049 107.027 130.256 106.612 130.416C106.197 130.575 105.725 130.7 105.195 130.789C105.859 130.834 106.449 130.926 106.966 131.067C107.483 131.207 107.917 131.411 108.268 131.679C108.626 131.947 108.897 132.289 109.082 132.703C109.273 133.118 109.369 133.629 109.369 134.235C109.369 134.982 109.264 135.61 109.053 136.121C108.849 136.631 108.517 137.046 108.058 137.365C107.605 137.678 107.014 137.905 106.287 138.045C105.566 138.179 104.685 138.246 103.645 138.246H96.4076V123.542ZM100.208 131.986V135.192H103.645C104.047 135.192 104.366 135.18 104.602 135.154C104.844 135.129 105.029 135.068 105.157 134.972C105.285 134.87 105.368 134.717 105.406 134.513C105.444 134.309 105.463 134.028 105.463 133.67C105.463 133.287 105.444 132.984 105.406 132.761C105.368 132.538 105.285 132.368 105.157 132.254C105.029 132.139 104.844 132.065 104.602 132.033C104.366 132.001 104.047 131.986 103.645 131.986H100.208ZM100.208 126.663V129.592H102.764C103.185 129.592 103.523 129.583 103.779 129.564C104.04 129.538 104.238 129.477 104.372 129.382C104.513 129.28 104.605 129.13 104.65 128.932C104.694 128.734 104.717 128.46 104.717 128.109C104.717 127.764 104.694 127.496 104.65 127.304C104.605 127.107 104.509 126.963 104.363 126.874C104.222 126.778 104.018 126.721 103.75 126.701C103.482 126.676 103.124 126.663 102.678 126.663H100.208ZM109.633 134.139C109.633 133.514 109.7 132.975 109.834 132.522C109.974 132.062 110.169 131.673 110.418 131.354C110.667 131.035 110.96 130.773 111.298 130.569C111.643 130.365 112.02 130.199 112.428 130.071C112.836 129.943 113.27 129.848 113.73 129.784C114.196 129.714 114.671 129.656 115.156 129.611C115.794 129.548 116.337 129.513 116.784 129.506C117.237 129.493 117.607 129.458 117.894 129.401C118.181 129.337 118.389 129.225 118.516 129.066C118.65 128.906 118.717 128.648 118.717 128.29V128.233C118.717 127.812 118.692 127.477 118.641 127.228C118.59 126.973 118.484 126.781 118.325 126.654C118.172 126.52 117.951 126.433 117.664 126.395C117.377 126.35 117.001 126.328 116.535 126.328C116.05 126.328 115.654 126.373 115.348 126.462C115.041 126.545 114.792 126.663 114.601 126.816C114.416 126.963 114.272 127.142 114.17 127.352C114.074 127.557 113.992 127.78 113.921 128.022L110.15 127.716C110.29 127.046 110.513 126.443 110.82 125.907C111.132 125.364 111.547 124.905 112.064 124.528C112.581 124.152 113.207 123.861 113.94 123.657C114.681 123.453 115.552 123.351 116.554 123.351C117.179 123.351 117.766 123.383 118.315 123.447C118.87 123.504 119.378 123.606 119.837 123.753C120.303 123.9 120.718 124.098 121.082 124.346C121.445 124.595 121.755 124.905 122.01 125.275C122.266 125.639 122.46 126.073 122.594 126.577C122.728 127.081 122.795 127.665 122.795 128.329V138.246H118.928V136.207H118.813C118.634 136.552 118.433 136.868 118.21 137.155C117.987 137.436 117.712 137.678 117.387 137.882C117.061 138.087 116.666 138.243 116.2 138.351C115.74 138.466 115.179 138.524 114.515 138.524C113.692 138.524 112.974 138.454 112.361 138.313C111.755 138.173 111.247 137.937 110.839 137.605C110.437 137.266 110.134 136.817 109.929 136.255C109.732 135.693 109.633 134.988 109.633 134.139ZM115.683 135.709C116.251 135.709 116.729 135.665 117.119 135.575C117.508 135.48 117.824 135.326 118.066 135.116C118.309 134.899 118.481 134.618 118.583 134.273C118.692 133.922 118.746 133.495 118.746 132.991V131.43C118.625 131.513 118.449 131.59 118.219 131.66C117.996 131.724 117.75 131.785 117.482 131.842C117.214 131.893 116.94 131.941 116.659 131.986C116.385 132.024 116.136 132.059 115.912 132.091C115.555 132.142 115.23 132.196 114.936 132.254C114.642 132.305 114.39 132.394 114.18 132.522C113.976 132.643 113.816 132.818 113.701 133.048C113.586 133.278 113.529 133.597 113.529 134.005C113.529 134.407 113.558 134.723 113.615 134.953C113.679 135.176 113.79 135.346 113.95 135.46C114.116 135.569 114.336 135.639 114.611 135.671C114.891 135.697 115.249 135.709 115.683 135.709ZM124.342 138.246V123.542H128.238V129.267H133.263V123.542H137.131V138.246H133.263V132.474H128.238V138.246H124.342ZM138.677 138.246V123.542H142.573V132.866L147.867 123.542H151.888V138.246H148.001V128.894L142.726 138.246H138.677ZM152.946 130.961C152.946 128.453 153.533 126.558 154.707 125.275C155.888 123.992 157.678 123.351 160.077 123.351C161.169 123.351 162.142 123.507 162.997 123.82C163.852 124.126 164.577 124.592 165.17 125.218C165.764 125.837 166.213 126.612 166.52 127.544C166.833 128.476 166.989 129.567 166.989 130.818V131.938H156.976V131.947C156.976 132.617 157.03 133.179 157.139 133.632C157.253 134.079 157.438 134.443 157.694 134.723C157.955 134.998 158.297 135.196 158.718 135.317C159.146 135.432 159.675 135.489 160.307 135.489C160.767 135.489 161.153 135.454 161.465 135.384C161.778 135.307 162.04 135.199 162.25 135.058C162.467 134.912 162.643 134.733 162.777 134.522C162.911 134.312 163.029 134.066 163.131 133.785L166.903 134.034C166.762 134.717 166.526 135.336 166.194 135.891C165.869 136.44 165.435 136.912 164.892 137.308C164.356 137.697 163.702 138 162.93 138.217C162.164 138.428 161.268 138.533 160.24 138.533C158.989 138.533 157.904 138.38 156.985 138.074C156.073 137.767 155.317 137.302 154.717 136.676C154.117 136.051 153.67 135.263 153.376 134.312C153.089 133.361 152.946 132.244 152.946 130.961ZM156.976 129.41H163.15C163.15 128.855 163.099 128.386 162.997 128.003C162.895 127.614 162.726 127.301 162.49 127.065C162.254 126.829 161.944 126.66 161.561 126.558C161.178 126.449 160.706 126.395 160.144 126.395C159.57 126.395 159.082 126.452 158.68 126.567C158.284 126.676 157.959 126.851 157.703 127.094C157.448 127.336 157.263 127.649 157.148 128.032C157.033 128.415 156.976 128.874 156.976 129.41Z" fill="#D9C6A5"/>
<path fill-rule="evenodd" clip-rule="evenodd" d="M116.846 0.975744C116.846 1.51257 116.69 2.19031 116.5 2.48185C116.187 2.96144 116.011 3.01222 114.663 3.01222C113.483 3.01222 112.84 3.15078 111.579 3.67771C110.116 4.28919 109.987 4.39418 109.987 4.96866V5.59412H104.628H99.2696V4.97232C99.2696 4.37826 99.1946 4.33007 97.5939 3.89652C95.2325 3.25686 91.4952 3.26116 89.2842 3.90599L87.6951 4.36944L87.6964 22.571C87.6976 42.002 87.7373 42.8757 88.7897 46.6815C91.6861 57.155 100.125 65.1535 110.844 67.5841C113.299 68.1409 118.108 68.3425 120.806 68.0017C132.016 66.5854 141.488 58.7093 145.013 47.8728C146.353 43.7519 146.288 44.9159 146.368 23.757L146.442 4.37439L144.845 3.90857C142.607 3.256 138.906 3.25513 136.537 3.90664C134.935 4.3475 134.851 4.40128 134.851 4.98243V5.59412H129.506H124.161L124.093 4.90346C124.031 4.26487 123.913 4.16848 122.526 3.62607C121.475 3.2149 120.608 3.03417 119.632 3.02255C118.866 3.0133 118.143 2.93455 118.025 2.84762C117.585 2.52381 117.274 1.70104 117.274 0.863647C117.274 0.388576 117.178 0 117.06 0C116.942 0 116.846 0.439139 116.846 0.975744ZM91.9826 25.4425C91.9832 38.7533 92.0353 41.5011 92.3176 43.1212C94.0154 52.8651 101.174 60.6177 110.839 63.1787C113.383 63.8531 117.998 64.0973 120.7 63.7005C130.898 62.2036 138.914 54.9046 141.492 44.7676C142.229 41.8671 142.345 39.044 142.349 23.9364L142.353 9.68214H117.167H91.9819L91.9826 25.4425ZM100.917 16.0614C100.684 16.2944 100.747 35.7873 100.988 38.3398C101.338 42.0452 102.474 45.0368 104.505 47.5972C107.881 51.8532 113.975 53.88 120.275 52.8425C123.563 52.301 126.056 51.1271 128.253 49.0852C130.483 47.013 131.878 44.5791 132.756 41.2274C133.192 39.5681 133.218 38.8972 133.295 27.7017L133.377 15.9217H128.326H123.276V26.7767C123.276 37.9056 123.201 39.1042 122.41 40.6747C121.498 42.485 119.158 43.8924 117.06 43.8924C114.898 43.8924 112.712 42.5218 111.7 40.5309L111.166 39.4816L111.058 27.7555L110.951 16.0293L106.007 15.9717C103.288 15.94 100.997 15.9803 100.917 16.0614ZM102.8 50.5717C102.724 50.6952 102.782 50.9418 102.93 51.1198C103.153 51.3893 103.048 51.5952 102.304 52.3569C101.604 53.0727 101.467 53.3273 101.67 53.5315C101.874 53.7356 102.128 53.5971 102.844 52.8914C103.737 52.0118 103.769 51.9997 104.189 52.3817C104.59 52.7461 104.629 52.7479 104.76 52.4053C104.856 52.1523 104.644 51.7749 104.078 51.1925C103.209 50.2993 103.024 50.2094 102.8 50.5717ZM130.17 51.121C129.545 51.5608 129.611 52.517 130.287 52.815C130.547 52.9297 130.789 53.2201 130.823 53.4605C130.872 53.8032 131.045 53.8972 131.627 53.8972C132.993 53.8972 133.416 52.0893 132.096 51.892C131.818 51.8506 131.635 51.6675 131.635 51.4309C131.635 51.0853 131.246 50.7774 130.808 50.7774C130.726 50.7774 130.439 50.9321 130.17 51.121ZM130.564 51.9608C130.564 52.1383 130.66 52.2835 130.778 52.2835C130.896 52.2835 130.992 52.1383 130.992 51.9608C130.992 51.7833 130.896 51.6381 130.778 51.6381C130.66 51.6381 130.564 51.7833 130.564 51.9608ZM131.528 52.7139C131.353 52.9979 131.61 53.4006 131.865 53.2425C132.125 53.0811 132.123 52.4987 131.862 52.4987C131.751 52.4987 131.601 52.5955 131.528 52.7139ZM127.769 53.2578C127.361 53.5601 127.044 53.8542 127.065 53.9114C127.085 53.9687 127.138 54.1249 127.183 54.2583C127.237 54.4207 127.451 54.3779 127.829 54.129L128.395 53.7567L128.635 54.6877C129.037 56.2504 129.085 56.3716 129.299 56.3716C129.412 56.3716 129.555 56.2427 129.615 56.085C129.757 55.714 128.982 52.866 128.715 52.7765C128.603 52.739 128.177 52.9557 127.769 53.2578ZM105.164 53.4041C104.091 54.0216 103.901 55.1383 104.707 56.0798C105.734 57.2774 107.629 56.625 107.629 55.0744C107.629 54.1774 107.43 53.8086 106.756 53.459C106.035 53.0848 105.737 53.0745 105.164 53.4041ZM105.314 54.263C104.74 54.839 105.159 55.9412 105.952 55.9412C106.546 55.9412 107.07 54.9956 106.779 54.4495C106.518 53.959 105.718 53.8572 105.314 54.263ZM124.91 54.9767C124.474 55.4152 124.459 56.1301 124.884 56.2937C125.066 56.3638 125.205 56.6844 125.205 57.0325C125.205 58.1675 126.763 58.3314 127.335 57.2567C127.635 56.6947 127.63 56.667 127.155 56.2186C126.93 56.0069 126.713 55.5916 126.672 55.2958C126.614 54.8704 126.458 54.7441 125.929 54.6925C125.522 54.6527 125.122 54.7645 124.91 54.9767ZM108.516 56.3718C108.061 57.7903 108.052 58.308 108.482 58.308C108.584 58.308 108.779 57.9691 108.915 57.5549C109.21 56.6569 109.405 56.6076 109.677 57.3621L109.88 57.9226L110.503 57.4276L111.126 56.9325L110.955 57.5663C110.699 58.5124 110.708 59.0075 110.982 59.1034C111.125 59.1536 111.452 58.5191 111.767 57.5773C112.252 56.1286 112.271 55.9578 111.951 55.8885C111.755 55.8459 111.287 56.0413 110.91 56.3225L110.226 56.8337L109.997 55.9793C109.812 55.2906 109.45 54.8654 109.047 54.8654C109.021 54.8654 108.782 55.5434 108.516 56.3718ZM125.52 55.5217C125.316 55.8526 125.595 56.066 125.87 55.7898C126.024 55.6353 126.028 55.515 125.882 55.4242C125.762 55.3498 125.599 55.3937 125.52 55.5217ZM122.648 55.8862C122.304 56.1654 122.18 56.4275 122.274 56.6745C122.352 56.8778 122.507 56.9878 122.618 56.9189C122.729 56.8499 122.95 57.2546 123.108 57.8181C123.294 58.4762 123.531 58.8687 123.774 58.9154C124.189 58.9956 124.178 58.901 123.511 56.6455L123.162 55.4677L122.648 55.8862ZM113.539 56.4944C113.054 56.9809 113.122 57.4473 113.776 58.1326C114.411 58.7985 114.343 59.1211 113.646 58.7465C113.281 58.5507 113.17 58.5707 113.063 58.851C112.878 59.3345 113.236 59.6226 114.05 59.6458C115.195 59.6785 115.562 58.4261 114.595 57.7899C113.954 57.368 113.886 56.9215 114.488 57.0792C115.074 57.2331 115.287 56.8029 114.801 56.4464C114.285 56.0675 113.951 56.0802 113.539 56.4944ZM116.513 56.6452C116.448 56.8154 116.424 57.573 116.46 58.3284C116.512 59.4348 116.597 59.7162 116.899 59.7739C117.195 59.8304 117.276 59.6938 117.28 59.1305L117.286 58.4156L117.87 59.1168C118.224 59.5428 118.65 59.8171 118.954 59.816C119.45 59.8141 119.449 59.8083 118.793 58.9763C118.429 58.5154 118.132 58.0732 118.132 57.9936C118.132 57.914 118.384 57.5166 118.693 57.1102C119.229 56.4051 119.234 56.3716 118.815 56.3716C118.564 56.3716 118.163 56.6708 117.88 57.0693L117.385 57.7673L117.276 57.141C117.157 56.4531 116.7 56.1566 116.513 56.6452ZM125.947 56.8163C125.869 56.9424 125.859 57.0997 125.925 57.1655C126.101 57.3426 126.706 57.0663 126.706 56.8085C126.706 56.5166 126.127 56.5224 125.947 56.8163ZM120.275 58.0412C120.275 58.3727 120.397 58.4306 120.927 58.3525C121.709 58.2374 121.655 57.7978 120.848 57.7021C120.405 57.6494 120.275 57.7262 120.275 58.0412Z" fill="#D9C6A5"/>
<path fill-rule="evenodd" clip-rule="evenodd" d="M44.3091 0.015115C39.4328 0.20969 34.7093 1.42118 30.384 3.58667C25.0398 6.26227 20.5317 10.2357 17.2388 15.1726C15.1096 18.3649 13.5574 21.841 12.6082 25.5421C12.054 27.7035 11.7443 29.6323 11.5715 32.0002C11.5166 32.7516 11.5165 35.4872 11.5713 36.2279C11.9273 41.0389 13.0458 45.1774 15.1027 49.2939C17.2768 53.6451 20.2806 57.4107 24.0248 60.4785C30.0978 65.4547 37.7217 68.1691 45.6236 68.1687C46.7887 68.1686 47.5697 68.1342 48.6854 68.0337C55.7001 67.402 62.3961 64.5669 67.7882 59.9456C71.2073 57.0153 74.0425 53.3916 76.0379 49.4017C77.6917 46.0949 78.7739 42.6477 79.3167 38.9576C79.4732 37.8934 79.6358 36.1463 79.6359 35.5272C79.6359 35.3798 79.6514 35.2438 79.6701 35.2251C79.6927 35.2025 79.7 34.8114 79.6918 34.0783C79.647 30.1151 79.0208 26.4455 77.7847 22.9038C74.8311 14.4407 68.6949 7.47866 60.7162 3.53806C60.2586 3.31206 59.6745 3.035 59.4183 2.92235C55.4895 1.19541 51.3138 0.221307 47.0048 0.0264998C46.3469 -0.0032273 44.9199 -0.00925262 44.3091 0.015115ZM43.2376 3.7849C42.6482 3.8333 42.1602 3.87998 42.153 3.88856C42.1458 3.89719 42.1592 4.14392 42.1828 4.43687C42.3255 6.20984 42.3012 7.40928 42.1111 7.98565C41.9716 8.40839 41.747 8.58552 41.3505 8.58552H41.1401L41.119 8.80815C41.1074 8.93059 41.0979 9.10802 41.0978 9.20243L41.0975 9.37407L41.4054 9.39701C42.2493 9.45979 42.7445 9.14737 42.9793 8.40399C43.1083 7.9956 43.1635 7.58561 43.184 6.88361C43.2007 6.31064 43.1631 5.28943 43.1072 4.79955L43.0879 4.62964L43.3657 4.60777C43.8019 4.57342 44.9344 4.51859 44.947 4.53124C44.9532 4.5375 45.0363 5.55781 45.1316 6.79856L45.3049 9.05449L45.6889 9.03276C46.1519 9.00656 46.2559 8.98845 46.2559 8.93409C46.2559 8.91128 46.1661 7.74513 46.0563 6.34263C45.9464 4.94013 45.8566 3.76906 45.8566 3.74026C45.8566 3.65481 44.5505 3.67708 43.2376 3.7849ZM49.1025 6.61297C47.9604 8.2973 47.4335 9.1012 47.462 9.11585C47.505 9.13795 48.4237 9.22397 48.4329 9.20676C48.4357 9.2015 48.6074 8.93998 48.8145 8.62556L49.1909 8.05396L49.3126 8.07107C49.9942 8.16701 51.6638 8.48355 51.6997 8.5236C51.7036 8.52789 51.7689 8.83092 51.8449 9.197C51.9209 9.56305 51.9936 9.87144 52.0066 9.88229C52.0469 9.91608 52.9496 10.1527 52.968 10.1343C52.9832 10.1191 51.6847 4.32545 51.6582 4.2902C51.6526 4.28274 51.4538 4.24402 51.2165 4.20414L50.785 4.13164L49.1025 6.61297ZM36.7527 4.92072C35.7195 5.04855 34.7842 5.73854 34.4084 6.65019C34.2669 6.99337 34.2085 7.30292 34.2091 7.70575C34.21 8.29467 34.363 8.81658 34.6744 9.29374C35.0615 9.88692 35.6044 10.2754 36.3218 10.4726C36.6128 10.5526 37.3081 10.5488 37.6364 10.4654C38.2306 10.3144 38.7032 10.0426 39.1074 9.61944C39.5895 9.11475 39.8295 8.55729 39.8586 7.87496C39.8762 7.46081 39.8451 7.21927 39.7266 6.85033C39.3101 5.55355 38.0814 4.75634 36.7527 4.92072ZM50.3364 6.32023C49.9933 6.83511 49.7173 7.26108 49.7231 7.2668C49.729 7.27253 49.9581 7.31704 50.2323 7.36571C50.7088 7.45029 51.251 7.55709 51.4232 7.60033L51.5039 7.6206L51.2559 6.52809C51.1195 5.92719 50.9972 5.42396 50.9841 5.40981C50.971 5.39566 50.6795 5.80535 50.3364 6.32023ZM36.6879 5.83434C36.6696 5.84027 36.5727 5.87043 36.4726 5.90139C36.3724 5.93235 36.1807 6.03358 36.0465 6.12639C35.4784 6.5192 35.2069 7.02243 35.2069 7.68255C35.2069 8.76371 36.0351 9.64378 37.054 9.64534C37.579 9.64617 38.0071 9.4772 38.3489 9.13422C38.9298 8.5514 39.0505 7.67726 38.6597 6.88361C38.4153 6.38717 37.9538 6.00142 37.4485 5.87109C37.2721 5.82559 36.7876 5.80219 36.6879 5.83434ZM31.1824 7.34607C30.9366 7.48771 30.7238 7.63262 30.7094 7.66804C30.695 7.70349 30.6 8.3242 30.4982 9.0474C30.3964 9.77061 30.3063 10.3937 30.298 10.4321C30.2861 10.4867 29.9998 10.7017 29.8464 10.7712C29.8349 10.7764 29.565 10.3532 29.2465 9.83079C28.8479 9.177 28.6531 8.88632 28.6215 8.8982C28.5962 8.90769 28.4208 9.0238 28.2316 9.15619C27.994 9.32244 27.893 9.41228 27.9051 9.44657C27.9237 9.49934 30.6063 13.9043 30.6494 13.9528C30.6856 13.9937 31.3971 13.5014 31.3927 13.4385C31.3907 13.4102 31.1391 12.9766 30.8334 12.4748C30.3168 11.6267 30.2819 11.5594 30.3378 11.5175C30.3709 11.4928 30.4967 11.4134 30.6175 11.3411L30.837 11.2097L31.7469 11.5618C32.9342 12.0212 33.0655 12.0579 33.5263 12.0591C33.8688 12.06 33.9063 12.0534 34.1087 11.9562C34.2277 11.899 34.3832 11.8011 34.4544 11.7385L34.5839 11.6247L34.4093 11.3431C34.3132 11.1881 34.2132 11.0274 34.1871 10.9858L34.1395 10.9101L34.0296 10.9939C33.8289 11.147 33.5209 11.1633 33.073 11.0442C32.8698 10.9902 31.1698 10.3763 31.1345 10.3442C31.1113 10.323 31.6048 7.35206 31.6666 7.1416C31.676 7.10955 31.6715 7.08451 31.6565 7.08595C31.6416 7.08738 31.4282 7.20442 31.1824 7.34607ZM57.7817 8.32769C57.374 8.46105 57.1062 8.77986 57.0304 9.222C56.9988 9.40679 57.0031 9.46052 57.0663 9.66864C57.2042 10.1227 57.5674 10.4104 58.0371 10.4376C58.3529 10.4559 58.597 10.3711 58.8289 10.1625C59.3879 9.65976 59.2567 8.72493 58.5807 8.3941C58.3612 8.28665 57.9991 8.25656 57.7817 8.32769ZM63.7613 10.6746C63.6104 10.7013 63.6081 10.7329 63.7219 11.2278L63.8137 11.6273L64.1619 11.6157C64.7539 11.5959 65.1648 11.751 65.5595 12.1433C66.0132 12.5943 66.1853 13.1868 66.0408 13.8C66.0001 13.9729 65.8464 14.3404 65.8148 14.3404C65.8101 14.3404 65.6493 14.1886 65.4577 14.0032C65.266 13.8177 64.8716 13.4503 64.5812 13.1867C64.1613 12.8055 64.0439 12.7152 64.0076 12.7453C63.9322 12.8078 63.4851 13.343 63.4989 13.3541C63.8923 13.67 65.2273 14.9395 65.2263 14.9969C65.2254 15.0533 64.7145 15.2919 64.5002 15.336C63.7658 15.4871 63.0031 15.1637 62.5902 14.5259C62.3956 14.2254 62.3216 13.9562 62.3219 13.5497C62.322 13.3194 62.3098 13.2083 62.2846 13.2077C62.264 13.2072 62.0599 13.179 61.8311 13.1449C61.6023 13.1109 61.4076 13.0901 61.3984 13.0988C61.3893 13.1074 61.3826 13.2892 61.3835 13.5027C61.387 14.2882 61.664 14.9106 62.2684 15.491C62.8156 16.0165 63.3958 16.2795 64.1108 16.3262C64.8758 16.3762 65.7055 16.0368 66.2627 15.446C67.3454 14.2979 67.3122 12.6174 66.1849 11.505C65.7627 11.0885 65.221 10.7984 64.6675 10.6924C64.4197 10.645 63.978 10.6364 63.7613 10.6746ZM24.7486 11.981C24.5701 12.147 24.425 12.3001 24.426 12.3213C24.4271 12.3424 25.1963 13.0188 26.1354 13.8244L27.8427 15.2891L27.1069 16.0381C26.7022 16.4501 26.3549 16.7855 26.3353 16.7834C26.3071 16.7806 24.5709 15.2963 23.1382 14.0503L22.9339 13.8726L22.6165 14.2352L22.2992 14.5977L24.0085 16.0727L25.7179 17.5477L25.6345 17.6501C25.3419 18.0095 24.8173 18.6954 24.6471 18.9409L24.4464 19.2305L24.3597 19.1573C24.312 19.117 23.542 18.4549 22.6486 17.6859C21.7552 16.9169 21.0142 16.2849 21.0019 16.2814C20.9796 16.275 20.5089 16.934 20.4777 17.0153C20.4676 17.0415 21.1643 17.6665 22.2513 18.6064C23.2359 19.4578 24.1579 20.2564 24.3003 20.3811C24.4426 20.5059 24.5641 20.6021 24.5703 20.595C24.5765 20.5879 24.7229 20.3722 24.8958 20.1157C25.4714 19.2614 26.1091 18.433 26.8176 17.6193C27.1859 17.1962 28.4862 15.879 28.9336 15.4756L29.1998 15.2356L29.0806 15.1292C28.7398 14.825 25.1135 11.6928 25.0949 11.6865C25.0829 11.6825 24.9271 11.815 24.7486 11.981ZM67.4388 16.9917C66.2307 17.7875 65.2289 18.452 65.2125 18.4683C65.1685 18.512 65.7219 19.2421 65.7816 19.2192C65.8076 19.2092 66.2136 18.9489 66.6838 18.6407C67.1539 18.3325 67.5566 18.0698 67.5786 18.057C67.6211 18.032 67.9546 18.4938 67.9546 18.5776C67.9546 18.6029 67.804 19.0556 67.62 19.5837C67.2305 20.7014 67.1545 21.0493 67.2124 21.4508C67.2542 21.741 67.3693 21.9915 67.5524 22.1904L67.6846 22.334L67.9943 22.1277C68.1647 22.0142 68.3172 21.9096 68.3331 21.8951C68.3492 21.8806 68.3328 21.8267 68.2966 21.7747C68.1384 21.5476 68.1143 21.249 68.2191 20.8151C68.2745 20.5858 68.8052 18.886 68.8384 18.8317C68.8448 18.8211 69.5585 18.9145 70.4242 19.0393C71.2899 19.1641 72.0241 19.2626 72.0558 19.2583C72.1014 19.2521 72.0532 19.1544 71.8217 18.785L71.5301 18.3194L70.1334 18.1627C69.3652 18.0764 68.7187 18.0051 68.6968 18.004C68.638 18.0013 68.3398 17.5699 68.3745 17.5378C68.3907 17.5229 68.8083 17.2452 69.3025 16.9207C69.7967 16.5962 70.2069 16.3252 70.2141 16.3184C70.2264 16.3067 69.6595 15.5355 69.6431 15.5417C69.6388 15.5433 68.6469 16.1958 67.4388 16.9917ZM37.1787 33.6716L37.1871 49.6434H46.8384H56.4896L56.4997 46.5642C56.5099 43.4428 56.4843 42.2271 56.3879 41.2611C55.9774 37.1462 54.3853 34.4017 51.4584 32.7632C51.016 32.5156 50.4446 32.2482 50.004 32.0826L49.7085 31.9715L49.9736 31.849C51.0408 31.3562 51.9901 30.5893 52.8809 29.5005C53.692 28.5091 54.2085 27.3169 54.3961 26.0033C54.4722 25.4708 54.4722 24.5407 54.3962 24.0108C54.1644 22.3942 53.5591 21.0978 52.5491 20.0551C52.1552 19.6485 51.8295 19.3829 51.248 18.9944C50.2245 18.3106 49.2459 17.9725 47.7369 17.7813C47.3129 17.7276 46.8163 17.7213 42.2207 17.7111L37.1704 17.6998L37.1787 33.6716ZM41.5384 33.5875L41.5468 47.8791H43.0777H44.6086L44.617 42.5445L44.6254 37.21H46.6388H48.6521V42.5362V47.8625H50.3851H52.1181L52.1038 44.5752C52.089 41.1552 52.08 40.911 51.9295 39.8231C51.6738 37.9743 51.1921 36.5435 50.455 35.4429C49.8619 34.5572 49.1439 33.9173 48.2361 33.4653C47.2504 32.9745 46.4527 32.7915 44.8825 32.6961L44.5575 32.6763L44.5664 31.8889L44.5753 31.1014L44.9747 31.079C46.7369 30.9803 48.2989 30.0393 49.3422 28.4477C49.8263 27.7092 50.1128 26.8506 50.1708 25.964L50.193 25.6254H47.4091H44.6252V24.8431V24.0608H47.3875C49.8922 24.0608 50.1497 24.0558 50.1497 24.0077C50.1497 23.8804 50.0027 23.2507 49.8943 22.9137C49.3287 21.1553 48.0718 19.931 46.3891 19.4993C45.7201 19.3277 45.6939 19.3259 43.5519 19.3105L41.5301 19.2958L41.5384 33.5875ZM71.3159 21.6352C70.287 21.7506 69.3469 22.4602 68.9908 23.3902C68.8528 23.7508 68.8096 23.9931 68.8119 24.3937C68.8211 26.0067 70.0632 27.2898 71.6155 27.2898C72.7419 27.2898 73.8209 26.5855 74.2421 25.5754C74.3973 25.2031 74.4559 24.8443 74.4348 24.3956C74.4088 23.8448 74.2845 23.4314 74.0049 22.9661C73.4432 22.0312 72.3978 21.5138 71.3159 21.6352ZM71.4077 22.6283C70.5551 22.7834 69.8795 23.4301 69.7458 24.2189C69.6547 24.7569 69.8578 25.3717 70.2592 25.7726C70.6851 26.1981 71.2562 26.3473 71.9861 26.2238C72.3734 26.1582 72.6861 25.9926 72.9837 25.6954C73.3581 25.3215 73.5435 24.8961 73.5451 24.4073C73.5458 24.2029 73.4438 23.7872 73.3443 23.5891C73.1406 23.1835 72.7244 22.8199 72.3212 22.6953C72.0737 22.6189 71.6362 22.5868 71.4077 22.6283ZM19.5985 22.727C19.3013 22.8178 19.0375 23.0461 18.9034 23.3284C18.7809 23.5863 18.7784 24.0002 18.8979 24.243C19.0785 24.6101 19.4105 24.8265 19.8315 24.8515C20.1715 24.8716 20.4137 24.781 20.649 24.5456C21.329 23.8655 20.8431 22.6856 19.8884 22.6988C19.7748 22.7003 19.6443 22.7131 19.5985 22.727ZM72.7969 29.0129C71.3692 29.1502 70.1946 29.2684 70.1866 29.2754C70.1715 29.2889 70.3032 30.1839 70.3228 30.2006C70.329 30.206 70.7909 30.1681 71.3492 30.1165C71.9075 30.0649 72.4041 30.0219 72.4528 30.0211C72.5365 30.0196 72.5433 30.0317 72.5779 30.2442C72.6375 30.6104 72.7415 31.5961 72.7789 32.15C72.798 32.4338 72.8205 32.7583 72.8287 32.8711L72.8438 33.0763L72.6872 33.0964C72.5043 33.12 70.7407 33.2818 70.667 33.2818C70.625 33.2818 70.6171 33.3554 70.6171 33.7459C70.6171 34.0012 70.6292 34.2175 70.644 34.2267C70.6589 34.2359 71.8383 34.1321 73.2649 33.996C74.6914 33.86 75.8872 33.7485 75.9221 33.7483C75.9823 33.7479 75.9844 33.7247 75.9653 33.2779C75.9542 33.0195 75.9393 32.8021 75.9322 32.795C75.925 32.7878 75.4565 32.827 74.891 32.8821C74.3256 32.9372 73.8235 32.9822 73.7754 32.9822H73.6878L73.6652 32.5578C73.6365 32.0173 73.5624 31.223 73.4743 30.5086C73.4363 30.2009 73.4132 29.9412 73.4229 29.9315C73.4326 29.9218 73.9247 29.869 74.5165 29.8142C75.1082 29.7594 75.6088 29.7096 75.6289 29.7036C75.6544 29.6959 75.647 29.5742 75.6041 29.2985C75.5216 28.7682 75.5175 28.7538 75.4504 28.7588C75.4187 28.7611 74.2246 28.8754 72.7969 29.0129ZM15.5239 29.8115C15.4721 30.1298 15.368 31.1396 15.3515 31.4842C15.2958 32.6493 15.7626 33.2806 16.7799 33.416C17.4611 33.5067 18.0539 33.2482 18.4027 32.7083L18.5263 32.5171L19.0509 32.9744C19.6763 33.5195 19.7664 33.6485 19.7912 34.0344L19.8069 34.2805L20.0272 34.2772C20.1484 34.2754 20.3292 34.2642 20.4292 34.2523C20.6103 34.2306 20.611 34.2301 20.656 34.0808C20.712 33.8947 20.689 33.6189 20.597 33.3731C20.4718 33.0383 20.2968 32.8457 19.5247 32.1931L18.7905 31.5725L18.8112 31.2571C18.8226 31.0836 18.8399 30.9337 18.8497 30.9239C18.8594 30.9142 19.2902 30.9443 19.807 30.991C20.3239 31.0377 20.755 31.0629 20.7652 31.0472C20.797 30.9978 20.9036 30.1487 20.8808 30.1259C20.8625 30.1076 15.8926 29.6931 15.6328 29.6883C15.5558 29.6869 15.5415 29.703 15.5239 29.8115ZM16.3364 30.7269C16.336 30.7315 16.3156 30.9075 16.291 31.1181C16.2205 31.7223 16.2856 32.0395 16.5229 32.2479C16.6526 32.3618 16.8205 32.4159 17.0453 32.4161C17.417 32.4166 17.7172 32.1554 17.83 31.7337C17.8664 31.5973 17.9427 30.8821 17.9229 30.8623C17.9029 30.8423 16.3379 30.7088 16.3364 30.7269ZM11.5264 34.1307C11.5264 34.7532 11.5309 35.0032 11.5364 34.6862C11.5418 34.3692 11.5418 33.8598 11.5363 33.5543C11.5308 33.2489 11.5264 33.5082 11.5264 34.1307ZM18.0843 36.8134C16.7115 37.6926 15.576 38.4241 15.5612 38.4389C15.535 38.465 15.634 39.2491 15.6703 39.3027C15.6923 39.3355 21.4629 40.8156 21.4844 40.7941C21.493 40.7855 21.4444 40.5673 21.3764 40.3091L21.2527 39.8397L21.1328 39.8081C21.0669 39.7907 20.763 39.7142 20.4574 39.638L19.902 39.4996L19.8673 39.3381C19.8109 39.0746 19.5714 37.6093 19.5494 37.393C19.5383 37.2832 19.522 37.1465 19.5132 37.0893C19.4974 36.9865 19.5044 36.9808 20.072 36.6275C20.3882 36.4307 20.6522 36.2649 20.6588 36.2591C20.6796 36.2405 20.623 35.2126 20.6012 35.2137C20.5897 35.2143 19.4571 35.9342 18.0843 36.8134ZM72.331 36.1606C71.0161 36.4501 70.1488 37.5716 70.1423 38.9909C70.1403 39.4079 70.1825 39.6466 70.3229 40.0132C70.6487 40.864 71.4429 41.5304 72.3545 41.7178C72.7183 41.7926 73.2938 41.7866 73.6364 41.7044C74.634 41.4652 75.3582 40.7408 75.6503 39.69C75.7414 39.3625 75.765 38.7368 75.6994 38.3906C75.4845 37.2563 74.6368 36.396 73.5055 36.164C73.197 36.1008 72.6108 36.0991 72.331 36.1606ZM72.4024 37.1628C71.9504 37.2723 71.4762 37.6242 71.2548 38.0146C71.1959 38.1184 71.1161 38.328 71.0776 38.4804C70.7654 39.7153 71.762 40.8436 73.0936 40.7626C73.9255 40.7121 74.5942 40.1846 74.7927 39.4223C74.8508 39.1992 74.8585 38.7296 74.8077 38.5092C74.7057 38.0662 74.3149 37.573 73.889 37.3496C73.464 37.1267 72.8633 37.0512 72.4024 37.1628ZM17.9844 37.933C17.6 38.178 17.1607 38.4578 17.008 38.5547L16.7305 38.7307L17.8483 39.0115C18.7278 39.2323 18.9662 39.2817 18.9662 39.2432C18.9662 39.2004 18.7745 38.0001 18.7075 37.6233L18.6833 37.4873L17.9844 37.933ZM19.3822 43.0506C18.0643 43.6975 16.9817 44.2481 16.9765 44.2739C16.9675 44.3184 17.2442 45.0858 17.2833 45.125C17.2934 45.135 18.204 44.6963 19.307 44.1501C20.41 43.6038 21.3219 43.1522 21.3334 43.1467C21.3449 43.1411 21.4409 43.3572 21.5468 43.627C21.6527 43.8967 21.8342 44.3317 21.9502 44.5936C22.0662 44.8554 22.161 45.0802 22.1609 45.0929C22.1607 45.1057 21.2615 45.5568 20.1625 46.0955C19.0636 46.6341 18.1578 47.0855 18.1498 47.0985C18.1417 47.1115 18.2244 47.3103 18.3336 47.5401L18.532 47.9582L19.6227 47.4236C20.2226 47.1297 21.1364 46.6824 21.6534 46.4296L22.5934 45.9701L22.71 46.1839C22.7742 46.3015 22.8813 46.4988 22.948 46.6224C23.0147 46.746 23.1957 47.0619 23.3501 47.3244C23.5045 47.5869 23.6258 47.8064 23.6198 47.8123C23.6137 47.8182 22.7064 48.2688 21.6036 48.8136C20.5008 49.3585 19.5985 49.817 19.5985 49.8326C19.5985 49.8542 19.9388 50.411 20.0674 50.5998C20.0816 50.6208 24.8721 48.3083 24.9527 48.2415C24.9596 48.2358 24.8159 48.002 24.6333 47.7222C23.6365 46.1947 22.8364 44.5982 22.1842 42.8358C22.0657 42.5154 21.9419 42.1671 21.9091 42.0618C21.8762 41.9566 21.8334 41.8713 21.8139 41.8723C21.7943 41.8734 20.7001 42.4035 19.3822 43.0506ZM69.1963 42.3938C69.1576 42.4996 69.0805 42.7084 69.0248 42.8578L68.9236 43.1295L69.9451 43.7104C70.5069 44.0299 71.3409 44.4978 71.7985 44.7503C72.2561 45.0027 72.6754 45.2382 72.7303 45.2735L72.8302 45.3378L72.7375 45.3176C72.3506 45.2332 68.2307 44.6791 68.2021 44.7077C68.1961 44.7136 68.1165 44.8787 68.0251 45.0745L67.8589 45.4304L68.2798 45.8891C68.9875 46.6603 70.3583 48.1248 70.7307 48.5073C70.9245 48.7064 71.083 48.8738 71.083 48.8794C71.083 48.885 70.8696 48.7873 70.6087 48.6622C70.0237 48.3816 67.1455 47.1187 67.0275 47.0908C66.9764 47.0787 66.4456 47.8995 66.4834 47.9322C66.4964 47.9434 67.5702 48.3958 68.8698 48.9375C70.1694 49.4791 71.2882 49.9456 71.3561 49.9741L71.4794 50.0259L71.7584 49.5517C71.9118 49.2909 72.0647 49.0301 72.0981 48.9722C72.1588 48.8671 72.1588 48.867 72.0658 48.7559C71.9018 48.5597 70.2185 46.7653 69.6852 46.218C69.3166 45.8397 69.1931 45.6943 69.2526 45.7085C69.3526 45.7324 70.4036 45.877 70.9831 45.9465C72.0186 46.0708 73.4565 46.2315 73.4619 46.2235C73.4886 46.1841 73.9802 44.9574 73.9722 44.9503C73.9442 44.9258 69.353 42.2347 69.3128 42.2193C69.2805 42.2069 69.2452 42.2597 69.1963 42.3938ZM65.296 49.5019C65.1481 49.6896 65.0274 49.8731 65.0277 49.9097C65.028 49.9463 65.2211 51.0399 65.4568 52.3398C65.6925 53.6398 65.8829 54.7059 65.8799 54.709C65.8769 54.7121 65.2344 54.1241 64.4522 53.4024C63.67 52.6807 63.0151 52.0902 62.9969 52.0902C62.955 52.0902 62.3079 52.7116 62.3303 52.7303C62.3586 52.7541 66.0677 56.1556 66.1833 56.2638L66.2922 56.3658L66.6241 56.0339L66.9559 55.702L66.5235 53.3385C66.2857 52.0385 66.0954 50.962 66.1007 50.9461C66.1059 50.9301 66.75 51.5041 67.532 52.2215L68.9537 53.5259L69.0322 53.4322C69.0754 53.3806 69.2093 53.2187 69.3297 53.0722L69.5486 52.8059L69.4588 52.7185C69.266 52.5309 65.6394 49.2067 65.6032 49.1844C65.5793 49.1697 65.4631 49.2898 65.296 49.5019ZM24.8974 50.0499C24.8323 50.0624 24.824 50.0796 24.8395 50.1702C24.8664 50.327 24.9566 50.9539 24.9566 50.9831C24.9565 50.997 25.1077 51.0035 25.2925 50.9977C25.698 50.9849 25.9706 51.0553 26.2726 51.2509C27.1203 51.8001 27.3697 52.8767 26.853 53.7569C26.6023 54.1841 26.0816 54.5764 25.6008 54.7005C25.3416 54.7674 24.9279 54.7682 24.6749 54.7023C24.3755 54.6242 24.1655 54.4957 23.8891 54.2213C23.4722 53.8073 23.3368 53.4475 23.3678 52.8358L23.3848 52.4996L22.9643 52.4113C22.733 52.3627 22.5197 52.323 22.4902 52.3231C22.3976 52.3233 22.3611 52.8905 22.429 53.2741C22.6334 54.4285 23.527 55.3704 24.6737 55.6402C25.0129 55.72 25.5982 55.7114 25.9366 55.6217C26.9518 55.3526 27.7249 54.5674 28.0084 53.5176C28.0966 53.1907 28.0878 52.5499 27.9903 52.2067C27.7341 51.3045 27.0611 50.5519 26.2205 50.2277C25.8101 50.0694 25.2135 49.9892 24.8974 50.0499ZM30.2727 54.1269C30.0417 54.4376 27.2893 58.3736 27.2802 58.4062C27.2714 58.4377 28.0181 58.9967 28.0363 58.9722C28.2848 58.6377 31.1135 54.5813 31.1135 54.5594C31.1135 54.5293 30.4795 54.0643 30.3935 54.0313C30.3722 54.0231 30.3179 54.0661 30.2727 54.1269ZM60.2994 54.3422C60.0893 54.4818 59.9118 54.601 59.9048 54.6069C59.8978 54.6129 60.1565 55.0474 60.4795 55.5726C60.8025 56.0978 61.0628 56.5308 61.0579 56.5349C61.053 56.5389 60.9289 56.617 60.782 56.7085L60.515 56.8747L59.6505 56.5453C59.175 56.364 58.6605 56.1788 58.5072 56.1336C57.822 55.9314 57.2744 56.015 56.8782 56.3825L56.7675 56.4851L56.8433 56.6096C56.8849 56.678 56.9835 56.8353 57.0622 56.9591L57.2053 57.1843L57.3384 57.0961C57.5109 56.982 57.8278 56.9553 58.1404 57.0287C58.3599 57.0802 60.1958 57.7075 60.2407 57.7463C60.2538 57.7576 60.1447 58.4842 59.9984 59.361C59.852 60.2379 59.7365 60.9674 59.7417 60.9823C59.7504 61.0074 60.599 60.5271 60.665 60.4597C60.6814 60.4429 60.7786 59.8224 60.8808 59.0809C60.983 58.3394 61.0746 57.6938 61.0843 57.6464C61.0953 57.5923 61.1478 57.5337 61.2252 57.4889C61.293 57.4498 61.3948 57.3875 61.4515 57.3505L61.5544 57.2833L62.1441 58.232C62.4684 58.7538 62.7413 59.1807 62.7506 59.1807C62.7598 59.1807 62.9373 59.0592 63.145 58.9106L63.5226 58.6405L63.314 58.3031C63.1993 58.1175 62.5776 57.1118 61.9324 56.0682C61.2873 55.0246 60.7419 54.1522 60.7204 54.1295C60.6897 54.0971 60.5994 54.1427 60.2994 54.3422ZM32.0778 55.8277C31.6243 55.9824 31.3096 56.2675 31.0774 56.734C30.8405 57.2099 30.8284 57.6423 31.0394 58.0931C31.2442 58.5305 31.621 58.8757 32.3719 59.3139C32.5759 59.4329 32.7431 59.5421 32.7435 59.5565C32.7439 59.571 32.527 59.9509 32.2616 60.4009C31.9962 60.8508 31.7791 61.2232 31.7791 61.2284C31.7791 61.2485 32.5863 61.7132 32.5991 61.7005C32.6533 61.6463 35.3329 57.0656 35.3213 57.0469C35.2911 56.998 33.7363 56.0776 33.4973 55.9671C33.005 55.7396 32.4857 55.6886 32.0778 55.8277ZM32.3588 56.7139C32.0527 56.853 31.8295 57.1993 31.8311 57.5329C31.8322 57.7874 31.9159 57.9518 32.1546 58.1686C32.3156 58.3149 33.1649 58.8423 33.1885 58.8107C33.2081 58.7845 34.0592 57.3375 34.0687 57.3142C34.0848 57.2752 33.2798 56.8113 33.0505 56.7274C32.7968 56.6346 32.5442 56.6297 32.3588 56.7139ZM55.0553 57.2403L54.6859 57.3908L53.8748 59.7005C53.4287 60.9709 53.0554 62.0103 53.0452 62.0103C53.0351 62.0103 52.7661 61.1941 52.4474 60.1964C52.1288 59.1988 51.8595 58.3687 51.849 58.3517C51.8348 58.3288 50.9729 58.4949 50.9245 58.5298C50.919 58.5338 52.4937 63.4417 52.5609 63.63C52.5706 63.657 52.7055 63.6355 53.0121 63.5582C53.2526 63.4975 53.4575 63.4398 53.4674 63.4299C53.4772 63.4201 53.8206 62.4487 54.2303 61.2714C55.0482 58.9216 55.0776 58.8391 55.0925 58.8541C55.1004 58.8621 55.7542 60.876 56.2279 62.3515C56.2558 62.4385 56.297 62.5096 56.3194 62.5096C56.3865 62.5096 57.144 62.1957 57.147 62.1666C57.1485 62.1519 56.7846 61.0022 56.3384 59.6117C55.7183 57.6793 55.515 57.0843 55.4759 57.0867C55.4477 57.0884 55.2584 57.1576 55.0553 57.2403ZM37.2537 57.9959C36.6034 58.1571 36.1709 58.759 36.2129 59.4442C36.2343 59.7946 36.3251 59.9722 36.6419 60.2842L36.9005 60.5389L36.7896 60.5597C36.4714 60.6194 36.094 60.9077 35.9408 61.2081C35.5344 62.0048 35.9256 62.8477 36.8893 63.2521C37.1162 63.3473 39.0931 63.8599 39.1219 63.831C39.1325 63.8206 39.4741 62.6613 39.8811 61.255C40.375 59.5486 40.6091 58.6908 40.5848 58.6761C40.5203 58.6372 38.3588 58.0229 38.1544 57.9853C37.8991 57.9384 37.4652 57.9435 37.2537 57.9959ZM37.5865 58.8527C37.3051 58.9567 37.1372 59.2053 37.1372 59.5176C37.1372 59.8342 37.3578 60.084 37.7861 60.2526C37.9649 60.3229 39.0713 60.6532 39.0826 60.6396C39.1128 60.6032 39.487 59.2432 39.4697 59.2325C39.4581 59.2253 39.1569 59.1337 38.8004 59.0289C38.1223 58.8297 37.7822 58.7803 37.5865 58.8527ZM45.3075 60.7898C44.8393 60.9454 44.5609 61.3005 44.5333 61.7773C44.5136 62.1176 44.6044 62.3599 44.8394 62.595C45.3565 63.1123 46.2088 62.9846 46.5568 62.3377C46.66 62.1457 46.6703 62.1015 46.6711 61.8439C46.6718 61.601 46.6589 61.5343 46.5798 61.3731C46.4724 61.1544 46.247 60.9335 46.0361 60.8402C45.8465 60.7563 45.4836 60.7312 45.3075 60.7898ZM37.2086 61.1452C36.9748 61.2446 36.8273 61.4392 36.7849 61.7042C36.7423 61.9706 36.9113 62.2449 37.2116 62.3971C37.3829 62.484 38.389 62.7858 38.445 62.7671C38.4721 62.7581 38.877 61.4402 38.8576 61.4243C38.854 61.4214 38.634 61.3554 38.3685 61.2776C37.8616 61.1291 37.3766 61.0737 37.2086 61.1452Z" fill="#D9C6A5"/>
</svg>
