<svg width="16" height="16" viewBox="0 0 16 16" fill="none" xmlns="http://www.w3.org/2000/svg">
<path d="M4.19348 3.59442C4.19348 2.88351 4.40429 2.18857 4.79925 1.59747C5.19421 1.00637 5.75558 0.545663 6.41238 0.27361C7.06917 0.00155741 7.79189 -0.069624 8.48913 0.0690673C9.18638 0.207759 9.82685 0.550094 10.3295 1.05278C10.8322 1.55547 11.1746 2.19593 11.3132 2.89318C11.4519 3.59043 11.3808 4.31315 11.1087 4.96994C10.8367 5.62673 10.3759 6.1881 9.78485 6.58306C9.19375 6.97802 8.49881 7.18883 7.7879 7.18883C6.8346 7.18883 5.92035 6.81013 5.24626 6.13605C4.57218 5.46197 4.19348 4.54771 4.19348 3.59442ZM13.7786 15.5758H1.79721C1.32056 15.5758 0.863432 15.3865 0.52639 15.0494C0.189348 14.7124 0 14.2552 0 13.7786C0 12.3486 0.568044 10.9773 1.57917 9.96614C2.59029 8.95501 3.96168 8.38697 5.39162 8.38697H10.1842C11.6141 8.38697 12.9855 8.95501 13.9966 9.96614C15.0078 10.9773 15.5758 12.3486 15.5758 13.7786C15.5758 14.2552 15.3865 14.7124 15.0494 15.0494C14.7124 15.3865 14.2552 15.5758 13.7786 15.5758Z" fill="#403B36"/>
</svg>
